<?xml version="1.0" encoding="UTF-8"?>
<svg width="100pt" height="100pt" version="1.1" viewBox="0 0 100 100" xmlns="http://www.w3.org/2000/svg">
 <path d="m29.031 5c-1.1055 0-2 0.89453-2 2v12.281c-3.4336 0.89844-6 4.0156-6 7.7188 0 4.3945 3.6055 8 8 8s8-3.6055 8-8c0-3.7031-2.5664-6.8203-6-7.7188v-12.281c0-1.1055-0.89453-2-2-2zm42 0c-1.1055 0-2 0.89453-2 2v12.281c-3.4336 0.89844-6 4.0156-6 7.7188 0 4.3945 3.6055 8 8 8s8-3.6055 8-8c0-3.7031-2.5664-6.8203-6-7.7188v-12.281c0-1.1055-0.89453-2-2-2zm-56 6c-5.5195 0-10.031 4.5117-10.031 10.031v63.938c0 5.5195 4.5117 10.031 10.031 10.031h69.938c5.5195 0 10.031-4.5117 10.031-10.031v-63.938c0-5.5195-4.5117-10.031-10.031-10.031h-5.9688c-1.0547-0.015625-2.0312 0.94141-2.0312 2s0.97656 2.0156 2.0312 2h5.9688c3.3711 0 6.0312 2.6602 6.0312 6.0312v17.969h-82v-17.969c0-3.3711 2.6602-6.0312 6.0312-6.0312h5.9688c1.0547 0.015625 2.0312-0.94141 2.0312-2s-0.97656-2.0156-2.0312-2zm21.969 0c-1.1055 0-2 0.89453-2 2s0.89453 2 2 2h26c1.1055 0 2-0.89453 2-2s-0.89453-2-2-2zm-7.9688 12c2.2344 0 4 1.7656 4 4s-1.7656 4-4 4-4-1.7656-4-4 1.7656-4 4-4zm42 0c2.2344 0 4 1.7656 4 4s-1.7656 4-4 4-4-1.7656-4-4 1.7656-4 4-4zm-62.031 20h82v41.969c0 3.3711-2.6602 6.0312-6.0312 6.0312h-69.938c-3.3711 0-6.0312-2.6602-6.0312-6.0312z"/>
</svg>
