<?xml version="1.0" encoding="utf-8"?>
<svg version="1.1" xmlns:xlink="http://www.w3.org/1999/xlink" width="17px" height="21px" xmlns="http://www.w3.org/2000/svg">
  <g transform="matrix(1 0 0 1 -36 -299 )">
    <path d="M 13.42775 3.5175  L 11.60745 3.5175  C 11.5996375 2.0448500000000003  10.400425 0.8494999999999999  8.924949999999999 0.8494999999999999  L 8.232574999999999 0.8494999999999999  C 6.757974999999998 0.8494999999999999  5.557824999999999 2.0448000000000004  5.548074999999999 3.5175  L 3.485574999999999 3.5175  C 1.8156499999999989 3.5175  0.4553249999999984 4.8778500000000005  0.4553249999999984 6.5477500000000015  C 0.4553249999999984 7.422750000000001  0.8400999999999987 8.2577  1.4982999999999986 8.829975000000001  L 1.4982999999999986 16.642475  C 1.4982999999999986 18.62295  3.108649999999999 20.232225  5.088049999999999 20.232225  L 11.828299999999999 20.232225  C 13.808774999999997 20.232225  15.418049999999997 18.621875  15.418049999999997 16.642475  L 15.418049999999997 8.829975000000001  C 16.075274999999998 8.257700000000002  16.461024999999996 7.422750000000001  16.461024999999996 6.5477500000000015  C 16.457118749999996 4.8778250000000005  15.099699999999995 3.5175  13.427774999999997 3.5175  Z M 8.23525 1.8202249999999998  L 8.927625 1.8202249999999998  C 9.86805 1.8202249999999998  10.6327 2.58  10.642475000000001 3.5175  L 6.519475 3.5175  C 6.53021725 2.58  7.294874999999999 1.8202249999999998  8.2353 1.8202249999999998  Z M 14.6445 8.206975  L 14.447235 8.351505  L 14.447235 16.641505  C 14.447235 18.086805  13.272434999999998 19.261505  11.827234999999998 19.261505  L 5.087984999999998 19.2624815  C 3.6426849999999984 19.2624815  2.467984999999998 18.0876815  2.467984999999998 16.6424815  L 2.467984999999998 8.3524815  L 2.270719999999998 8.2079515  C 1.7355699999999983 7.8134265  1.4259949999999986 7.2079515  1.4259949999999986 6.547801500000001  C 1.4259949999999986 5.4130265  2.350794999999999 4.4882265  3.485569999999999 4.4882265  L 13.42607 4.4882265  C 14.560845 4.4882265  15.485644999999998 5.4130265  15.485644999999998 6.547801500000001  C 15.490527999999998 7.2099015  15.18292 7.8124515  14.64482 8.2069765  Z " fill-rule="nonzero" fill="#f7c6c6" stroke="none" transform="matrix(1 0 0 1 36 299 )" />
  </g>
</svg>