<svg id="Слой_2" data-name="Слой 2" xmlns="http://www.w3.org/2000/svg" viewBox="0 0 2761.48 1173.71"><defs><style>.cls-1{fill:#ebf3fa;}.cls-2{fill:#2c3a64;}.cls-3{fill:#afcdfb;}.cls-4{fill:#2b478b;}.cls-5{fill:#233862;}.cls-6{fill:#ffb27d;}.cls-7{fill:#f99746;}.cls-8{fill:#ed985f;}.cls-9{fill:#ed7d2b;}.cls-10{fill:#88add8;}.cls-11{fill:#98b9ea;}.cls-12{fill:#f9ddbf;}.cls-13{fill:#e5c1a1;}.cls-14{fill:#a8d29f;}.cls-15{fill:#9dc993;}.cls-16{fill:#82b378;}.cls-17{fill:#db6a1d;}.cls-18{fill:#ea863b;}.cls-19{fill:#ffb93e;}.cls-20{fill:#ffa412;}.cls-21{fill:#e2810e;}.cls-22{fill:#ed975d;}.cls-23{fill:#a9453d;}.cls-24{fill:#1e3d70;}.cls-25{fill:#2a4e96;}.cls-26{fill:#ea8e50;}.cls-27{fill:#ffb07b;}.cls-28{fill:#ffc299;}.cls-29{fill:#b5453c;}.cls-30{fill:#699ff0;}.cls-31{fill:#2e3552;}</style></defs><path class="cls-1" d="M563.47,1630.06S103.31,1316.54,338.41,963.2C537.67,663.73,894.86,740,1082.17,864.35,1162,917.3,1393,1002.19,1589,690.63c242.21-384.94,1156.84-302.25,988.11,351.78-81.66,316.5,375.43,271.95,207.2,588.32Z" transform="translate(-271.52 -459.76)"/><path class="cls-2" d="M2189.57,568c.07-1.94,1.57-22.9,33.49-24,0,0-15.69,1.87-18.41,8.77,0,0,10.69-8.53,19.39-5.78s13.82,18,13.87,23-4.78,21.19-10.31,22.56a16.92,16.92,0,0,1-6.69,0,75.89,75.89,0,0,1,4.29,7.65c12.74,26.15-.4,51.7-11.18,48.88-6.92-1.81-8.87,10-8.87,10L2138,604.64S2162.64,553.58,2189.57,568Z" transform="translate(-271.52 -459.76)"/><path class="cls-3" d="M1868.53,970.7l-1.55,9.87a100.71,100.71,0,0,0-4.14,11.25h-12.95C1860.44,978.91,1868.53,970.7,1868.53,970.7Z" transform="translate(-271.52 -459.76)"/><path class="cls-4" d="M2166.17,1338.2l14.28,5.31s62-86,69.61-161.6c1.36-13.51.91-26.59-2-38.67,0,0,.61-3.46,1.67-9.58.49-2.86,1.09-6.29,1.78-10.23,2-11.55,4.79-27.35,8-45.33,7.29-41.4,16.74-94.32,24.08-133.22l-3.84-1.24-41.61-13.42-8.6-27.31-31-8.15s-6.92,13.53-13.1,77.49c-1.15,8.39-2.18,17.64-3,27.67a547.21,547.21,0,0,0,2.94,112c1.43,11.12,3.22,22.59,5.44,34.38,1.64,8.65,1.88,20.43,1.19,34C2188.87,1242.11,2166.17,1338.2,2166.17,1338.2Z" transform="translate(-271.52 -459.76)"/><path class="cls-5" d="M2182.42,999.92l67.27,133.74c.49-2.86,1.09-6.29,1.78-10.23,2-11.55,4.79-27.35,8-45.33,7.29-41.4,16.74-94.32,24.08-133.22l-3.84-1.24-41.61-13.42-8.6-27.31-31-8.15s-6.92,13.53-13.1,77.49C2184.23,980.64,2183.2,989.89,2182.42,999.92Z" transform="translate(-271.52 -459.76)"/><path class="cls-4" d="M2212,911.92l1.56-13.36c26.09,6.94,95.8-19.36,95.8-19.36s25.27,22.22,22,75.48c-1.62,26-4.58,136.45-7.67,169.14-1.12,11.84-2.1,20.27-2.5,23.64v0a4.72,4.72,0,0,0,.76,2.9,153.28,153.28,0,0,1,11.41,24c30.33,80.82-4.67,180.36-4.67,180.36l-9.08-3.66s-19.92-110.78-36.11-159.71c-2.75-8.3-5.38-14.83-7.79-18.72-7-11.36-13.57-29.92-19.5-52-11.2-41.73-20.22-96-26.22-137.91C2229.12,982.79,2212,911.92,2212,911.92Z" transform="translate(-271.52 -459.76)"/><path class="cls-6" d="M2024.71,867.54l2,13.06s.86,0,2.37-.1c4.76-.33,16.31-1,29.38-2.38,19.65-1.94,43-5.4,52.27-11.12,14.15-8.64,37.37-35.1,52.49-61.56a19,19,0,0,0,1.08-2c7.88-14,13.39-28,13.82-39.09a55.76,55.76,0,0,0-1.84-17.71,45.13,45.13,0,0,0-8-16,8.08,8.08,0,0,0-1.51-1.83,37.34,37.34,0,0,0-10.26-8.75c-2.59-1.08-5.4.22-8.32,3.35v.11a49.85,49.85,0,0,0-7.45,11c-.11.11-.21.22-.21.33-.54,1-1.08,2.05-1.73,3.24a2.41,2.41,0,0,0-.43.75q-1.78,3.74-3.57,7.78c-13.28,28.94-27.43,72.79-39.2,85.85-5.08,5.62-28.3,16.64-46.76,24.84C2035.51,863.22,2024.71,867.54,2024.71,867.54Z" transform="translate(-271.52 -459.76)"/><path class="cls-6" d="M2162.17,749.94a81.33,81.33,0,0,0,30,7c44.86,2.46,55-36.86,56.9-63a37.57,37.57,0,0,0-15.4-1.94c-3.18.17-6.5.5-9.23.84-5.49-2.87-15.35-16.79-21.05-40.08l-1.93.89-32.37,15.22s3.44,10.53,6,20.61c2,7.89,3.4,15.51,2.21,17.64-2.55,1-4.07,1.69-4.07,1.69v0A221.37,221.37,0,0,0,2162.17,749.94Z" transform="translate(-271.52 -459.76)"/><path class="cls-7" d="M2151,779.37c.34.89.71,1.77,1.12,2.66,11.35,24.47,32.39,125.82,32.39,125.82-3,18.22,136.94-3.57,137.3-20.17,4.93-17.59-17.49-45.85-30.13-60a40.4,40.4,0,0,1-4.24-5.71,39.87,39.87,0,0,1-5.73-16.73c-2.48-23.52-1.54-45.56-1.75-59h0c-2.47-1.83-4.86-3.52-7.08-5.12a62.62,62.62,0,0,1-8.62-7.16c-2.44-2.56-4-5.18-4.14-8.14a43.48,43.48,0,0,1,.17-6.83c.11-1.08.25-2.17.41-3.25a92.7,92.7,0,0,1,6.5-21.7c-12-4.88-33.44-2-33.44-2s0,1.18,0,3.13c.07,7.82,0,27.89-2.5,31.69-3.14,4.73-60.47,25.46-63.5,19s5.18-35.9,5.49-37v0c-19.2,7.54-26.07,13.86-26.07,13.86C2158.75,730.25,2142,755.63,2151,779.37Z" transform="translate(-271.52 -459.76)"/><path class="cls-8" d="M2169.13,669s3.44,10.52,6,20.61c18.92-5.28,24.66-25.17,26.39-35.83Z" transform="translate(-271.52 -459.76)"/><path class="cls-6" d="M2165.15,680.09s45.26-10.48,38.3-38.56-5.8-48.36-35-42.86-32.13,17.6-32.09,27.54S2153.2,682.09,2165.15,680.09Z" transform="translate(-271.52 -459.76)"/><path class="cls-2" d="M2133.83,610.27c4.86-10.18,10.59-9.64,14.17-7.83,21.27-19.68,42.13-3.61,42.13-3.61a55.3,55.3,0,0,0,25.43,27.33s-6.95,7.12-27.11,7c-6.15,0-12.34-2.87-18-6.77a108.3,108.3,0,0,0,23.6,17.6c-25.23-4.82-42.15-34-43.88-37.13-2.14,3.15-6.23,9.87-6.57,15.54-.47,7.71,2.18,22.68-2.23,23.25C2141.4,645.61,2126.53,625.54,2133.83,610.27Z" transform="translate(-271.52 -459.76)"/><path class="cls-7" d="M2147.18,722.74s-10.9,19-12.53,23.9c0,0,14.13-.54,19.84,10.33C2154.49,757,2155.86,725.3,2147.18,722.74Z" transform="translate(-271.52 -459.76)"/><path class="cls-9" d="M2222.13,873.8c27.6-.29,51-29,65.26-51.86a39.87,39.87,0,0,1-5.73-16.73c-2.48-23.52-1.54-45.56-1.75-59h0c-2.47-1.83-4.86-3.52-7.08-5.12a62.62,62.62,0,0,1-8.62-7.16C2241.6,772.17,2184.71,874.19,2222.13,873.8Z" transform="translate(-271.52 -459.76)"/><path class="cls-5" d="M2275.84,1362.16h71.88s1.72-11-2-19.27c-3.6-8-9.24-11.6-7.89-21.25-4.56,4.71-12,10-22.4,8.57-1.27,2.07-8.22,13.11-12.47,16.17C2298.23,1349.75,2277.29,1348.55,2275.84,1362.16Z" transform="translate(-271.52 -459.76)"/><path class="cls-5" d="M2121.51,1362.16h71.88s2.69-11.47-2-19.27c-4.18-6.9-2.58-10.83.52-16.54a28.07,28.07,0,0,1-12.11,2.28c-3.58-.21-7.37-1.84-10.69-3.76-3.09,3.52-16.34,18.54-20.48,21.51C2143.91,1349.75,2123,1348.55,2121.51,1362.16Z" transform="translate(-271.52 -459.76)"/><path class="cls-6" d="M2022.52,867.25s-13.32-2.6-16.36,0-17.48,17.26-14.39,22.08,17.91-4,21-4.82,11.7-4.2,11.7-4.2Z" transform="translate(-271.52 -459.76)"/><path class="cls-10" d="M2119.38,849.59a28.58,28.58,0,0,0-3.77-6h0a28.57,28.57,0,0,0-3.66-3.72l-5.54-5.61-1.46,1.08c-28.32-13.87-86.82.83-146,39.46-71.52,46.69-117.44,111-104.19,145.16l-2,1.49,8,7.93c.38.4.77.79,1.18,1.17l.22.22.07,0a32.72,32.72,0,0,0,6.88,4.79l0,0h0c28,14.65,87.09.07,146.91-39C2088.84,949.07,2135.13,883.24,2119.38,849.59Z" transform="translate(-271.52 -459.76)"/><path class="cls-3" d="M1950.42,866.29c72.86-47.56,144.7-58.85,160.45-25.21s-30.54,99.48-103.39,147S1862.78,1047,1847,1013.34,1877.56,913.86,1950.42,866.29Z" transform="translate(-271.52 -459.76)"/><path class="cls-11" d="M1898.11,1018.38a58,58,0,0,1-16-2c-9.08-2.61-15.39-7.64-18.73-14.94-6.57-14.33-.49-35.6,17.13-59.89,17.21-23.74,43.49-47.81,74-67.78h0c46.84-30.67,94.48-45.49,121.36-37.74,9.09,2.62,15.39,7.65,18.74,15,6.57,14.32.49,35.59-17.13,59.88-17.22,23.74-43.5,47.81-74,67.78C1964.86,1003.87,1925.73,1018.37,1898.11,1018.38ZM2060,839.32c-26.42,0-65.22,14.42-102.57,38.88-30,19.62-55.75,43.22-72.59,66.45-16.2,22.33-22.25,42.21-16.61,54.52,2.67,5.82,7.84,9.87,15.36,12a52.4,52.4,0,0,0,14.39,1.8c26.42,0,65.22-14.42,102.57-38.88,30-19.62,55.75-43.22,72.59-66.44,16.2-22.34,22.25-42.21,16.6-54.53-2.67-5.82-7.83-9.87-15.36-12A52.33,52.33,0,0,0,2060,839.32Z" transform="translate(-271.52 -459.76)"/><path class="cls-11" d="M1949.59,944.55a38.9,38.9,0,0,0,6-3.25,28.68,28.68,0,0,0,4.86-4.12,38.63,38.63,0,0,0,4.22-5.43,73.3,73.3,0,0,0,4-7.1q3.52-7,7.22-13a78.91,78.91,0,0,1,8.28-11.22,66.76,66.76,0,0,1,10.46-9.5,71.83,71.83,0,0,1,13.75-7.78,50.09,50.09,0,0,1,12.29-3.85,21.19,21.19,0,0,1,9.35.32,11.3,11.3,0,0,1,6.09,4.22,14.32,14.32,0,0,1,2.42,7.94l17.19-7.56-.89,9.26-17.43,7.66a39.65,39.65,0,0,1-4.81,10.75,57.13,57.13,0,0,1-8.38,10.27,77.92,77.92,0,0,1-11.63,9.29,98,98,0,0,1-14.65,7.9l1.62-16.72q9.65-4.23,14.7-9.19t5.52-9.77a6.24,6.24,0,0,0-.65-4,4,4,0,0,0-2.67-1.79,10.25,10.25,0,0,0-4.29.16,29.83,29.83,0,0,0-5.48,1.86,35.93,35.93,0,0,0-5.44,2.94,26.71,26.71,0,0,0-4.65,4,38.1,38.1,0,0,0-4.22,5.45q-2,3.13-4.3,7.45-3.67,7-7.41,13a81.25,81.25,0,0,1-8.36,11.23,68.9,68.9,0,0,1-10.49,9.51,71.58,71.58,0,0,1-13.68,7.75,50.17,50.17,0,0,1-12.52,3.92,20.69,20.69,0,0,1-9.27-.38,10.69,10.69,0,0,1-5.89-4.37,15.66,15.66,0,0,1-2.29-8l-16,7,.89-9.2,15.91-7a46.35,46.35,0,0,1,4-10.66,53.22,53.22,0,0,1,7.72-11,73.09,73.09,0,0,1,12-10.58,91.67,91.67,0,0,1,16.75-9.35l-1.62,16.71a56.23,56.23,0,0,0-9.62,5.25,35.73,35.73,0,0,0-6.38,5.55,20.31,20.31,0,0,0-3.61,5.49,17.56,17.56,0,0,0-1.38,5.06,7.62,7.62,0,0,0,.59,4.31,4.32,4.32,0,0,0,2.55,2.17,8.55,8.55,0,0,0,4.18.16A23,23,0,0,0,1949.59,944.55Z" transform="translate(-271.52 -459.76)"/><path class="cls-6" d="M2118.27,890.5l3.32,12.13s4.75-.86,12.31-2.26c2.27-.43,3.56-.76,3.56-.76,6.05-1.19,13.29-2.81,21.17-4.53h.11c13.5-3.24,28.62-7.13,41.36-11.45,9-3.13,16.74-6.48,22-9.83a12.85,12.85,0,0,0,1.51-1.08c12.64-9.18,27.65-36.18,39.31-65.12,1.62-4,3.14-8,4.65-11.88a295.13,295.13,0,0,0,12.31-41,116.41,116.41,0,0,0,2.92-19.55,49.1,49.1,0,0,0,.1-5.51c-.21-31.31-15.76-35.63-15.76-35.63-.33-.11-.65-.22-1.08-.33-2.7-.43-5.51,1.41-8.43,5-3.67,4.43-7.56,11.66-11.55,20.41-6.16,13.93-12.64,32-18.69,49.9-3.34,9.82-6.59,19.65-9.82,28.72-1.84,5.51-3.68,10.69-5.4,15.45-3.35,9.07-6.38,16.41-9.08,21-1.72,3-6.69,7.24-13.28,12-11.45,8.32-28.19,18.36-42.77,26.57-6,3.46-10.52,7.59-15.28,10.18C2124.13,887.11,2118.27,890.5,2118.27,890.5Z" transform="translate(-271.52 -459.76)"/><path class="cls-7" d="M2246.14,719.09c20.8-5.74,36.83,10.5,36.83,10.5-.26-31.27-15.82-35.55-15.82-35.55C2260.89,691.45,2253.63,702.29,2246.14,719.09Z" transform="translate(-271.52 -459.76)"/><path class="cls-6" d="M2121.59,902.63s-11.38,18-16.6,21.44-12.81,10.22-15.46,8.59,10.06-18.51,9.89-21.82-.53-5.92-.53-5.92-8,4.73-12.53,2.09c0,0,3.48-1.74,6.27-3.48s5.11-7.66,11.34-8.18,14.3-4.85,14.3-4.85Z" transform="translate(-271.52 -459.76)"/><path class="cls-12" d="M1601.57,621.4s-40.57,68.74-77.77,69.7S1430,659.24,1430,659.24s-34.15-91.6-11-127.45c0,0,23.24-12.26,47.53,9.4a80.68,80.68,0,0,1,12.57,14.5c5.89,8.52,12.51,13.38,19.53,15.93,26.54,9.72,58-13.14,69.83,8.92A146,146,0,0,0,1589,609.77,97.23,97.23,0,0,0,1601.57,621.4Z" transform="translate(-271.52 -459.76)"/><path class="cls-12" d="M1019.58,1626.5s-99.63-874,454.58-935.4c0,0,430.05,102.4,322.8,935.4Z" transform="translate(-271.52 -459.76)"/><path class="cls-7" d="M1403.44,703.87s103.47,27.68,135.39,11.41c0,0,4.83-52.06-38.75-44.76-29.82,5-49.24-12.25-60.67-19.25C1423.24,641.37,1399.15,682.09,1403.44,703.87Z" transform="translate(-271.52 -459.76)"/><path class="cls-13" d="M1493.49,625.38c-6.62,6-26.94-84.19-26.94-84.19a80.68,80.68,0,0,1,12.57,14.5c5.89,8.52,12.51,13.38,19.53,15.93C1498.72,574.25,1499.91,619.57,1493.49,625.38Z" transform="translate(-271.52 -459.76)"/><path class="cls-13" d="M1589,609.77c-1.46,1-49.31,35.53-55.8,35.53s35.28-64.76,35.28-64.76A146,146,0,0,0,1589,609.77Z" transform="translate(-271.52 -459.76)"/><path class="cls-13" d="M1310.55,798.12s144.7,295.9,303.08,252.14,69.68,182.41,69.68,182.41-353.07-2.05-354.64-8.37S1310.55,798.12,1310.55,798.12Z" transform="translate(-271.52 -459.76)"/><path class="cls-3" d="M2107.36,1597.05v22.72a8.75,8.75,0,0,1-5.61,8.16,7.4,7.4,0,0,1-1.61.45,7.81,7.81,0,0,1-1.54.14H1736.68a8.77,8.77,0,0,1-8.74-8.3c0-.15,0-.3,0-.45v-22.72c0-.15,0-.3,0-.45a8.78,8.78,0,0,1,8.74-8.31H2098.6a8.86,8.86,0,0,1,3.15.59,8.85,8.85,0,0,1,4.11,3.28A8.75,8.75,0,0,1,2107.36,1597.05Z" transform="translate(-271.52 -459.76)"/><path class="cls-11" d="M1905.83,1588.29H1735.74c-4.16,0-7.59,3.7-7.8,8.31,0,.15,0,.3,0,.45v22.72c0,.15,0,.3,0,.45.21,4.61,3.64,8.3,7.8,8.3h193.9C1914.87,1616.52,1908.54,1600.13,1905.83,1588.29Z" transform="translate(-271.52 -459.76)"/><rect class="cls-11" x="1787.68" y="1128.53" width="4.11" height="40.23"/><rect class="cls-11" x="1773.76" y="1128.53" width="4.11" height="40.23"/><rect class="cls-11" x="1757.06" y="1128.53" width="4.11" height="40.23"/><rect class="cls-11" x="1731.47" y="1128.53" width="4.11" height="40.23"/><rect class="cls-11" x="1704.41" y="1128.53" width="4.11" height="40.23"/><rect class="cls-11" x="1662.92" y="1128.53" width="4.11" height="40.23"/><rect class="cls-11" x="1800.94" y="1128.53" width="4.11" height="40.23"/><rect class="cls-11" x="1809.69" y="1128.53" width="4.11" height="40.23"/><rect class="cls-11" x="1818.15" y="1128.53" width="4.11" height="40.23"/><path class="cls-11" d="M2096,1588.29v40.23h2.57a7.81,7.81,0,0,0,1.54-.14v-40a8.65,8.65,0,0,0-1.54-.14Z" transform="translate(-271.52 -459.76)"/><path class="cls-11" d="M2101.75,1588.88v39a8.77,8.77,0,0,0,4.11-3.27v-32.5A8.85,8.85,0,0,0,2101.75,1588.88Z" transform="translate(-271.52 -459.76)"/><path class="cls-3" d="M2090.87,1556.81v22.72a8.67,8.67,0,0,1-1.5,4.89,8.85,8.85,0,0,1-4.11,3.28,8.62,8.62,0,0,1-1.6.45,8.85,8.85,0,0,1-1.55.14H1720.2a8.79,8.79,0,0,1-8.75-8.31c0-.15,0-.3,0-.45v-22.72c0-.15,0-.3,0-.45a8.79,8.79,0,0,1,8.75-8.31h361.91a8.85,8.85,0,0,1,1.55.14,8.62,8.62,0,0,1,1.6.45,8.85,8.85,0,0,1,4.11,3.28A8.67,8.67,0,0,1,2090.87,1556.81Z" transform="translate(-271.52 -459.76)"/><path class="cls-11" d="M1889.34,1548.05H1719.26c-4.17,0-7.6,3.7-7.81,8.31,0,.15,0,.3,0,.45v22.72c0,.15,0,.3,0,.45.21,4.61,3.64,8.31,7.81,8.31h193.89C1898.38,1576.28,1892.05,1559.9,1889.34,1548.05Z" transform="translate(-271.52 -459.76)"/><rect class="cls-11" x="1771.2" y="1088.3" width="4.11" height="40.23"/><rect class="cls-11" x="1757.27" y="1088.3" width="4.11" height="40.23"/><rect class="cls-11" x="1740.58" y="1088.3" width="4.11" height="40.23"/><rect class="cls-11" x="1714.98" y="1088.3" width="4.11" height="40.23"/><rect class="cls-11" x="1687.92" y="1088.3" width="4.11" height="40.23"/><rect class="cls-11" x="1646.43" y="1088.3" width="4.11" height="40.23"/><rect class="cls-11" x="1784.45" y="1088.3" width="4.11" height="40.23"/><rect class="cls-11" x="1793.21" y="1088.3" width="4.11" height="40.23"/><rect class="cls-11" x="1801.66" y="1088.3" width="4.11" height="40.23"/><path class="cls-11" d="M2079.54,1548.05v40.24h2.57a8.85,8.85,0,0,0,1.55-.14v-40a8.85,8.85,0,0,0-1.55-.14Z" transform="translate(-271.52 -459.76)"/><path class="cls-11" d="M2085.26,1548.64v39.06a8.85,8.85,0,0,0,4.11-3.28v-32.5A8.85,8.85,0,0,0,2085.26,1548.64Z" transform="translate(-271.52 -459.76)"/><path class="cls-3" d="M2109.72,1516.39v22.72a8.67,8.67,0,0,1-1.5,4.89,8.83,8.83,0,0,1-4.11,3.27,7.31,7.31,0,0,1-1.6.45,8,8,0,0,1-1.55.14H1739.05a8.78,8.78,0,0,1-8.75-8.3c0-.15,0-.3,0-.45v-22.72c0-.15,0-.3,0-.45a8.79,8.79,0,0,1,8.75-8.31H2101a8.85,8.85,0,0,1,1.55.14,8.62,8.62,0,0,1,1.6.45,8.85,8.85,0,0,1,4.11,3.28A8.67,8.67,0,0,1,2109.72,1516.39Z" transform="translate(-271.52 -459.76)"/><path class="cls-11" d="M1908.19,1507.63H1738.11c-4.17,0-7.6,3.7-7.81,8.31,0,.15,0,.3,0,.45v22.72c0,.15,0,.3,0,.45.21,4.61,3.64,8.3,7.81,8.3H1932C1917.24,1535.85,1910.91,1519.47,1908.19,1507.63Z" transform="translate(-271.52 -459.76)"/><rect class="cls-11" x="1790.05" y="1047.87" width="4.11" height="40.23"/><rect class="cls-11" x="1776.12" y="1047.87" width="4.11" height="40.23"/><rect class="cls-11" x="1759.43" y="1047.87" width="4.11" height="40.23"/><rect class="cls-11" x="1733.83" y="1047.87" width="4.11" height="40.23"/><rect class="cls-11" x="1706.77" y="1047.87" width="4.11" height="40.23"/><rect class="cls-11" x="1665.28" y="1047.87" width="4.11" height="40.23"/><rect class="cls-11" x="1803.3" y="1047.87" width="4.11" height="40.23"/><rect class="cls-11" x="1812.06" y="1047.87" width="4.11" height="40.23"/><rect class="cls-11" x="1820.51" y="1047.87" width="4.11" height="40.23"/><path class="cls-11" d="M2098.39,1507.63v40.23H2101a8,8,0,0,0,1.55-.14v-40a8.85,8.85,0,0,0-1.55-.14Z" transform="translate(-271.52 -459.76)"/><path class="cls-11" d="M2104.11,1508.22v39a8.83,8.83,0,0,0,4.11-3.27v-32.5A8.85,8.85,0,0,0,2104.11,1508.22Z" transform="translate(-271.52 -459.76)"/><path class="cls-3" d="M2090.87,1476.15v22.72a8.67,8.67,0,0,1-1.5,4.89,8.85,8.85,0,0,1-4.11,3.28,8.62,8.62,0,0,1-1.6.45,8.85,8.85,0,0,1-1.55.14H1720.2a8.79,8.79,0,0,1-8.75-8.31c0-.15,0-.3,0-.45v-22.72c0-.15,0-.3,0-.45a8.79,8.79,0,0,1,8.75-8.31h361.91a8,8,0,0,1,1.55.15,7.31,7.31,0,0,1,1.6.45,8.77,8.77,0,0,1,4.11,3.27A8.67,8.67,0,0,1,2090.87,1476.15Z" transform="translate(-271.52 -459.76)"/><path class="cls-11" d="M1889.34,1467.39H1719.26c-4.17,0-7.6,3.7-7.81,8.31,0,.15,0,.3,0,.45v22.72c0,.15,0,.3,0,.45.21,4.61,3.64,8.31,7.81,8.31h193.89C1898.38,1495.62,1892.05,1479.24,1889.34,1467.39Z" transform="translate(-271.52 -459.76)"/><rect class="cls-11" x="1771.2" y="1007.64" width="4.11" height="40.23"/><rect class="cls-11" x="1757.27" y="1007.64" width="4.11" height="40.23"/><rect class="cls-11" x="1740.58" y="1007.64" width="4.11" height="40.23"/><rect class="cls-11" x="1714.98" y="1007.64" width="4.11" height="40.23"/><rect class="cls-11" x="1687.92" y="1007.64" width="4.11" height="40.23"/><rect class="cls-11" x="1646.43" y="1007.64" width="4.11" height="40.23"/><rect class="cls-11" x="1784.45" y="1007.64" width="4.11" height="40.23"/><rect class="cls-11" x="1793.21" y="1007.64" width="4.11" height="40.23"/><rect class="cls-11" x="1801.66" y="1007.64" width="4.11" height="40.23"/><path class="cls-11" d="M2079.54,1467.39v40.24h2.57a8.85,8.85,0,0,0,1.55-.14v-40a8,8,0,0,0-1.55-.15Z" transform="translate(-271.52 -459.76)"/><path class="cls-11" d="M2085.26,1468v39a8.85,8.85,0,0,0,4.11-3.28v-32.5A8.77,8.77,0,0,0,2085.26,1468Z" transform="translate(-271.52 -459.76)"/><path class="cls-3" d="M2090.87,1435.72v22.73a8.61,8.61,0,0,1-1.5,4.88,8.79,8.79,0,0,1-4.11,3.28,7.31,7.31,0,0,1-1.6.45,8.85,8.85,0,0,1-1.55.14H1720.2a8.79,8.79,0,0,1-8.75-8.3c0-.15,0-.3,0-.45v-22.73c0-.15,0-.3,0-.45a8.79,8.79,0,0,1,8.75-8.3h361.91a8.85,8.85,0,0,1,1.55.14,8.62,8.62,0,0,1,1.6.45,8.79,8.79,0,0,1,4.11,3.28A8.61,8.61,0,0,1,2090.87,1435.72Z" transform="translate(-271.52 -459.76)"/><path class="cls-11" d="M1889.34,1427H1719.26c-4.17,0-7.6,3.7-7.81,8.3,0,.15,0,.3,0,.45v22.73c0,.15,0,.3,0,.45.21,4.6,3.64,8.3,7.81,8.3h193.89C1898.38,1455.19,1892.05,1438.81,1889.34,1427Z" transform="translate(-271.52 -459.76)"/><rect class="cls-11" x="1771.2" y="967.21" width="4.11" height="40.23"/><rect class="cls-11" x="1757.27" y="967.21" width="4.11" height="40.23"/><rect class="cls-11" x="1740.58" y="967.21" width="4.11" height="40.23"/><rect class="cls-11" x="1714.98" y="967.21" width="4.11" height="40.23"/><rect class="cls-11" x="1687.92" y="967.21" width="4.11" height="40.23"/><rect class="cls-11" x="1646.43" y="967.21" width="4.11" height="40.23"/><rect class="cls-11" x="1784.45" y="967.21" width="4.11" height="40.23"/><rect class="cls-11" x="1793.21" y="967.21" width="4.11" height="40.23"/><rect class="cls-11" x="1801.66" y="967.21" width="4.11" height="40.23"/><path class="cls-11" d="M2079.54,1427v40.23h2.57a8.85,8.85,0,0,0,1.55-.14v-40a8.85,8.85,0,0,0-1.55-.14Z" transform="translate(-271.52 -459.76)"/><path class="cls-11" d="M2085.26,1427.56v39a8.79,8.79,0,0,0,4.11-3.28v-32.49A8.79,8.79,0,0,0,2085.26,1427.56Z" transform="translate(-271.52 -459.76)"/><path class="cls-3" d="M2068.84,1395.3V1418a8.67,8.67,0,0,1-1.5,4.89,8.85,8.85,0,0,1-4.11,3.28,8.62,8.62,0,0,1-1.6.45,8.85,8.85,0,0,1-1.55.14H1698.17a8.79,8.79,0,0,1-8.75-8.31c0-.15,0-.3,0-.45V1395.3c0-.15,0-.3,0-.45a8.79,8.79,0,0,1,8.75-8.31h361.91a8.85,8.85,0,0,1,1.55.14,8.62,8.62,0,0,1,1.6.45,8.85,8.85,0,0,1,4.11,3.28A8.67,8.67,0,0,1,2068.84,1395.3Z" transform="translate(-271.52 -459.76)"/><path class="cls-11" d="M1867.31,1386.54H1697.23c-4.17,0-7.6,3.7-7.81,8.31,0,.15,0,.3,0,.45V1418c0,.15,0,.3,0,.45.21,4.61,3.64,8.31,7.81,8.31h193.89C1876.36,1414.77,1870,1398.39,1867.31,1386.54Z" transform="translate(-271.52 -459.76)"/><rect class="cls-11" x="1749.17" y="926.79" width="4.11" height="40.23"/><rect class="cls-11" x="1735.24" y="926.79" width="4.11" height="40.23"/><rect class="cls-11" x="1718.55" y="926.79" width="4.11" height="40.23"/><rect class="cls-11" x="1692.95" y="926.79" width="4.11" height="40.23"/><rect class="cls-11" x="1665.89" y="926.79" width="4.11" height="40.23"/><rect class="cls-11" x="1624.4" y="926.79" width="4.11" height="40.23"/><rect class="cls-11" x="1762.42" y="926.79" width="4.11" height="40.23"/><rect class="cls-11" x="1771.18" y="926.79" width="4.11" height="40.23"/><rect class="cls-11" x="1779.63" y="926.79" width="4.11" height="40.23"/><path class="cls-11" d="M2057.51,1386.54v40.24h2.57a8.85,8.85,0,0,0,1.55-.14v-40a8.85,8.85,0,0,0-1.55-.14Z" transform="translate(-271.52 -459.76)"/><path class="cls-11" d="M2063.23,1387.13v39.06a8.85,8.85,0,0,0,4.11-3.28v-32.5A8.85,8.85,0,0,0,2063.23,1387.13Z" transform="translate(-271.52 -459.76)"/><path class="cls-3" d="M2080.83,1354.87v22.72a8.67,8.67,0,0,1-1.5,4.89,8.8,8.8,0,0,1-4.11,3.28,8.75,8.75,0,0,1-3.14.59H1710.16a8.79,8.79,0,0,1-8.75-8.31c0-.15,0-.3,0-.45v-22.72c0-.15,0-.3,0-.45a8.78,8.78,0,0,1,8.75-8.3h361.92a8.65,8.65,0,0,1,1.54.13,7.93,7.93,0,0,1,1.6.46,8.75,8.75,0,0,1,5.61,8.16Z" transform="translate(-271.52 -459.76)"/><path class="cls-11" d="M1879.3,1346.12H1709.22c-4.16,0-7.59,3.69-7.81,8.3,0,.15,0,.3,0,.45v22.72c0,.15,0,.3,0,.45.22,4.61,3.65,8.31,7.81,8.31h193.9C1888.35,1374.34,1882,1358,1879.3,1346.12Z" transform="translate(-271.52 -459.76)"/><rect class="cls-11" x="1761.16" y="886.36" width="4.11" height="40.23"/><rect class="cls-11" x="1747.24" y="886.36" width="4.11" height="40.23"/><rect class="cls-11" x="1730.54" y="886.36" width="4.11" height="40.23"/><rect class="cls-11" x="1704.95" y="886.36" width="4.11" height="40.23"/><rect class="cls-11" x="1677.88" y="886.36" width="4.11" height="40.23"/><rect class="cls-11" x="1636.39" y="886.36" width="4.11" height="40.23"/><rect class="cls-11" x="1774.42" y="886.36" width="4.11" height="40.23"/><rect class="cls-11" x="1783.17" y="886.36" width="4.11" height="40.23"/><rect class="cls-11" x="1791.63" y="886.36" width="4.11" height="40.23"/><path class="cls-11" d="M2069.51,1346.12v40.23h2.57a8.65,8.65,0,0,0,1.54-.14v-40a8.65,8.65,0,0,0-1.54-.13Z" transform="translate(-271.52 -459.76)"/><path class="cls-11" d="M2075.22,1346.71v39a8.8,8.8,0,0,0,4.11-3.28V1350A8.72,8.72,0,0,0,2075.22,1346.71Z" transform="translate(-271.52 -459.76)"/><path class="cls-3" d="M2107.36,1314.64v22.72a8.75,8.75,0,0,1-5.61,8.16,7.4,7.4,0,0,1-1.61.45,7.81,7.81,0,0,1-1.54.15H1736.68a8.78,8.78,0,0,1-8.74-8.31c0-.15,0-.3,0-.45v-22.72c0-.15,0-.3,0-.45a8.78,8.78,0,0,1,8.74-8.31H2098.6a8.86,8.86,0,0,1,3.15.59,8.85,8.85,0,0,1,4.11,3.28A8.75,8.75,0,0,1,2107.36,1314.64Z" transform="translate(-271.52 -459.76)"/><path class="cls-11" d="M1905.83,1305.88H1735.74c-4.16,0-7.59,3.7-7.8,8.31,0,.15,0,.3,0,.45v22.72c0,.15,0,.3,0,.45.21,4.61,3.64,8.31,7.8,8.31h193.9C1914.87,1334.11,1908.54,1317.73,1905.83,1305.88Z" transform="translate(-271.52 -459.76)"/><rect class="cls-11" x="1787.68" y="846.13" width="4.11" height="40.23"/><rect class="cls-11" x="1773.76" y="846.13" width="4.11" height="40.23"/><rect class="cls-11" x="1757.06" y="846.13" width="4.11" height="40.23"/><rect class="cls-11" x="1731.47" y="846.13" width="4.11" height="40.23"/><rect class="cls-11" x="1704.41" y="846.13" width="4.11" height="40.23"/><rect class="cls-11" x="1662.92" y="846.13" width="4.11" height="40.23"/><rect class="cls-11" x="1800.94" y="846.13" width="4.11" height="40.23"/><rect class="cls-11" x="1809.69" y="846.13" width="4.11" height="40.23"/><rect class="cls-11" x="1818.15" y="846.13" width="4.11" height="40.23"/><path class="cls-11" d="M2096,1305.88v40.24h2.57a7.81,7.81,0,0,0,1.54-.15v-40a8.65,8.65,0,0,0-1.54-.14Z" transform="translate(-271.52 -459.76)"/><path class="cls-11" d="M2101.75,1306.47v39a8.77,8.77,0,0,0,4.11-3.27v-32.5A8.85,8.85,0,0,0,2101.75,1306.47Z" transform="translate(-271.52 -459.76)"/><path class="cls-3" d="M2090.87,1274.4v22.72a8.67,8.67,0,0,1-1.5,4.89,8.85,8.85,0,0,1-4.11,3.28,8.62,8.62,0,0,1-1.6.45,8.85,8.85,0,0,1-1.55.14H1720.2a8.79,8.79,0,0,1-8.75-8.31c0-.15,0-.3,0-.45V1274.4c0-.15,0-.3,0-.45a8.79,8.79,0,0,1,8.75-8.31h361.91a8,8,0,0,1,1.55.15,7.31,7.31,0,0,1,1.6.45,8.77,8.77,0,0,1,4.11,3.27A8.67,8.67,0,0,1,2090.87,1274.4Z" transform="translate(-271.52 -459.76)"/><path class="cls-11" d="M1889.34,1265.64H1719.26c-4.17,0-7.6,3.7-7.81,8.31,0,.15,0,.3,0,.45v22.72c0,.15,0,.3,0,.45.21,4.61,3.64,8.31,7.81,8.31h193.89C1898.38,1293.87,1892.05,1277.49,1889.34,1265.64Z" transform="translate(-271.52 -459.76)"/><rect class="cls-11" x="1771.2" y="805.89" width="4.11" height="40.23"/><rect class="cls-11" x="1757.27" y="805.89" width="4.11" height="40.23"/><rect class="cls-11" x="1740.58" y="805.89" width="4.11" height="40.23"/><rect class="cls-11" x="1714.98" y="805.89" width="4.11" height="40.23"/><rect class="cls-11" x="1687.92" y="805.89" width="4.11" height="40.23"/><rect class="cls-11" x="1646.43" y="805.89" width="4.11" height="40.23"/><rect class="cls-11" x="1784.45" y="805.89" width="4.11" height="40.23"/><rect class="cls-11" x="1793.21" y="805.89" width="4.11" height="40.23"/><rect class="cls-11" x="1801.66" y="805.89" width="4.11" height="40.23"/><path class="cls-11" d="M2079.54,1265.64v40.24h2.57a8.85,8.85,0,0,0,1.55-.14v-40a8,8,0,0,0-1.55-.15Z" transform="translate(-271.52 -459.76)"/><path class="cls-11" d="M2085.26,1266.24v39a8.85,8.85,0,0,0,4.11-3.28v-32.5A8.77,8.77,0,0,0,2085.26,1266.24Z" transform="translate(-271.52 -459.76)"/><path class="cls-3" d="M2109.72,1234v22.72a8.67,8.67,0,0,1-1.5,4.89,8.83,8.83,0,0,1-4.11,3.27,7.31,7.31,0,0,1-1.6.45,8,8,0,0,1-1.55.14H1739.05a8.78,8.78,0,0,1-8.75-8.3c0-.15,0-.3,0-.45V1234c0-.15,0-.3,0-.45a8.79,8.79,0,0,1,8.75-8.31H2101a8.85,8.85,0,0,1,1.55.14,8.62,8.62,0,0,1,1.6.45,8.85,8.85,0,0,1,4.11,3.28A8.67,8.67,0,0,1,2109.72,1234Z" transform="translate(-271.52 -459.76)"/><path class="cls-11" d="M1908.19,1225.22H1738.11c-4.17,0-7.6,3.7-7.81,8.31,0,.15,0,.3,0,.45v22.72c0,.15,0,.3,0,.45.21,4.61,3.64,8.3,7.81,8.3H1932C1917.24,1253.45,1910.91,1237.06,1908.19,1225.22Z" transform="translate(-271.52 -459.76)"/><rect class="cls-11" x="1790.05" y="765.46" width="4.11" height="40.23"/><rect class="cls-11" x="1776.12" y="765.46" width="4.11" height="40.23"/><rect class="cls-11" x="1759.43" y="765.46" width="4.11" height="40.23"/><rect class="cls-11" x="1733.83" y="765.46" width="4.11" height="40.23"/><rect class="cls-11" x="1706.77" y="765.46" width="4.11" height="40.23"/><rect class="cls-11" x="1665.28" y="765.46" width="4.11" height="40.23"/><rect class="cls-11" x="1803.3" y="765.46" width="4.11" height="40.23"/><rect class="cls-11" x="1812.06" y="765.46" width="4.11" height="40.23"/><rect class="cls-11" x="1820.51" y="765.46" width="4.11" height="40.23"/><path class="cls-11" d="M2098.39,1225.22v40.23H2101a8,8,0,0,0,1.55-.14v-40a8.85,8.85,0,0,0-1.55-.14Z" transform="translate(-271.52 -459.76)"/><path class="cls-11" d="M2104.11,1225.81v39a8.83,8.83,0,0,0,4.11-3.27v-32.5A8.85,8.85,0,0,0,2104.11,1225.81Z" transform="translate(-271.52 -459.76)"/><path class="cls-3" d="M2090.87,1193.74v22.72a8.67,8.67,0,0,1-1.5,4.89,8.85,8.85,0,0,1-4.11,3.28,8.62,8.62,0,0,1-1.6.45,8.85,8.85,0,0,1-1.55.14H1720.2a8.79,8.79,0,0,1-8.75-8.31c0-.15,0-.3,0-.45v-22.72c0-.15,0-.3,0-.45a8.78,8.78,0,0,1,8.75-8.3h361.91a8,8,0,0,1,1.55.14,7.31,7.31,0,0,1,1.6.45,8.77,8.77,0,0,1,4.11,3.27A8.67,8.67,0,0,1,2090.87,1193.74Z" transform="translate(-271.52 -459.76)"/><path class="cls-11" d="M1889.34,1185H1719.26c-4.17,0-7.6,3.69-7.81,8.3,0,.15,0,.3,0,.45v22.72c0,.15,0,.3,0,.45.21,4.61,3.64,8.31,7.81,8.31h193.89C1898.38,1213.21,1892.05,1196.83,1889.34,1185Z" transform="translate(-271.52 -459.76)"/><rect class="cls-11" x="1771.2" y="725.23" width="4.11" height="40.23"/><rect class="cls-11" x="1757.27" y="725.23" width="4.11" height="40.23"/><rect class="cls-11" x="1740.58" y="725.23" width="4.11" height="40.23"/><rect class="cls-11" x="1714.98" y="725.23" width="4.11" height="40.23"/><rect class="cls-11" x="1687.92" y="725.23" width="4.11" height="40.23"/><rect class="cls-11" x="1646.43" y="725.23" width="4.11" height="40.23"/><rect class="cls-11" x="1784.45" y="725.23" width="4.11" height="40.23"/><rect class="cls-11" x="1793.21" y="725.23" width="4.11" height="40.23"/><rect class="cls-11" x="1801.66" y="725.23" width="4.11" height="40.23"/><path class="cls-11" d="M2079.54,1185v40.23h2.57a8.85,8.85,0,0,0,1.55-.14v-39.95a8,8,0,0,0-1.55-.14Z" transform="translate(-271.52 -459.76)"/><path class="cls-11" d="M2085.26,1185.58v39.05a8.85,8.85,0,0,0,4.11-3.28v-32.5A8.77,8.77,0,0,0,2085.26,1185.58Z" transform="translate(-271.52 -459.76)"/><path class="cls-3" d="M2090.87,1153.32V1176a8.67,8.67,0,0,1-1.5,4.89,8.83,8.83,0,0,1-4.11,3.27,7.31,7.31,0,0,1-1.6.45,8,8,0,0,1-1.55.14H1720.2a8.78,8.78,0,0,1-8.75-8.3c0-.15,0-.3,0-.45v-22.72c0-.15,0-.3,0-.45a8.79,8.79,0,0,1,8.75-8.31h361.91a8.85,8.85,0,0,1,1.55.14,8.62,8.62,0,0,1,1.6.45,8.85,8.85,0,0,1,4.11,3.28A8.65,8.65,0,0,1,2090.87,1153.32Z" transform="translate(-271.52 -459.76)"/><path class="cls-11" d="M1889.34,1144.56H1719.26c-4.17,0-7.6,3.7-7.81,8.31,0,.15,0,.3,0,.45V1176c0,.15,0,.3,0,.45.21,4.61,3.64,8.3,7.81,8.3h193.89C1898.38,1172.78,1892.05,1156.4,1889.34,1144.56Z" transform="translate(-271.52 -459.76)"/><rect class="cls-11" x="1771.2" y="684.8" width="4.11" height="40.23"/><rect class="cls-11" x="1757.27" y="684.8" width="4.11" height="40.23"/><rect class="cls-11" x="1740.58" y="684.8" width="4.11" height="40.23"/><rect class="cls-11" x="1714.98" y="684.8" width="4.11" height="40.23"/><rect class="cls-11" x="1687.92" y="684.8" width="4.11" height="40.23"/><rect class="cls-11" x="1646.43" y="684.8" width="4.11" height="40.23"/><rect class="cls-11" x="1784.45" y="684.8" width="4.11" height="40.23"/><rect class="cls-11" x="1793.21" y="684.8" width="4.11" height="40.23"/><rect class="cls-11" x="1801.66" y="684.8" width="4.11" height="40.23"/><path class="cls-11" d="M2079.54,1144.56v40.23h2.57a8,8,0,0,0,1.55-.14v-40a8.85,8.85,0,0,0-1.55-.14Z" transform="translate(-271.52 -459.76)"/><path class="cls-11" d="M2085.26,1145.15v39a8.83,8.83,0,0,0,4.11-3.27v-32.5A8.85,8.85,0,0,0,2085.26,1145.15Z" transform="translate(-271.52 -459.76)"/><path class="cls-3" d="M2068.84,1112.89v22.72a8.67,8.67,0,0,1-1.5,4.89,8.85,8.85,0,0,1-4.11,3.28,8.62,8.62,0,0,1-1.6.45,8.85,8.85,0,0,1-1.55.14H1698.17a8.79,8.79,0,0,1-8.75-8.31c0-.15,0-.3,0-.45v-22.72c0-.15,0-.3,0-.45a8.79,8.79,0,0,1,8.75-8.31h361.91a8.85,8.85,0,0,1,1.55.14,8.62,8.62,0,0,1,1.6.45,8.85,8.85,0,0,1,4.11,3.28A8.67,8.67,0,0,1,2068.84,1112.89Z" transform="translate(-271.52 -459.76)"/><path class="cls-11" d="M1867.31,1104.13H1697.23c-4.17,0-7.6,3.7-7.81,8.31,0,.15,0,.3,0,.45v22.72c0,.15,0,.3,0,.45.21,4.61,3.64,8.31,7.81,8.31h193.89C1876.36,1132.36,1870,1116,1867.31,1104.13Z" transform="translate(-271.52 -459.76)"/><rect class="cls-11" x="1749.17" y="644.38" width="4.11" height="40.23"/><rect class="cls-11" x="1735.24" y="644.38" width="4.11" height="40.23"/><rect class="cls-11" x="1718.55" y="644.38" width="4.11" height="40.23"/><rect class="cls-11" x="1692.95" y="644.38" width="4.11" height="40.23"/><rect class="cls-11" x="1665.89" y="644.38" width="4.11" height="40.23"/><rect class="cls-11" x="1624.4" y="644.38" width="4.11" height="40.23"/><rect class="cls-11" x="1762.42" y="644.38" width="4.11" height="40.23"/><rect class="cls-11" x="1771.18" y="644.38" width="4.11" height="40.23"/><rect class="cls-11" x="1779.63" y="644.38" width="4.11" height="40.23"/><path class="cls-11" d="M2057.51,1104.13v40.24h2.57a8.85,8.85,0,0,0,1.55-.14v-40a8.85,8.85,0,0,0-1.55-.14Z" transform="translate(-271.52 -459.76)"/><path class="cls-11" d="M2063.23,1104.72v39.06a8.85,8.85,0,0,0,4.11-3.28V1108A8.85,8.85,0,0,0,2063.23,1104.72Z" transform="translate(-271.52 -459.76)"/><path class="cls-3" d="M2080.83,1072.46v22.72a8.67,8.67,0,0,1-1.5,4.89,8.8,8.8,0,0,1-4.11,3.28,8.75,8.75,0,0,1-3.14.59H1710.16a8.79,8.79,0,0,1-8.75-8.31c0-.15,0-.3,0-.45v-22.72c0-.15,0-.3,0-.45a8.78,8.78,0,0,1,8.75-8.3h361.92a7.81,7.81,0,0,1,1.54.14,7.31,7.31,0,0,1,1.6.45,8.78,8.78,0,0,1,4.11,3.27A8.67,8.67,0,0,1,2080.83,1072.46Z" transform="translate(-271.52 -459.76)"/><path class="cls-11" d="M1879.3,1063.71H1709.22c-4.16,0-7.59,3.69-7.81,8.3,0,.15,0,.3,0,.45v22.72c0,.15,0,.3,0,.45.22,4.61,3.65,8.31,7.81,8.31h193.9C1888.35,1091.93,1882,1075.55,1879.3,1063.71Z" transform="translate(-271.52 -459.76)"/><rect class="cls-11" x="1761.16" y="603.95" width="4.11" height="40.23"/><rect class="cls-11" x="1747.24" y="603.95" width="4.11" height="40.23"/><rect class="cls-11" x="1730.54" y="603.95" width="4.11" height="40.23"/><rect class="cls-11" x="1704.95" y="603.95" width="4.11" height="40.23"/><rect class="cls-11" x="1677.88" y="603.95" width="4.11" height="40.23"/><rect class="cls-11" x="1636.39" y="603.95" width="4.11" height="40.23"/><rect class="cls-11" x="1774.42" y="603.95" width="4.11" height="40.23"/><rect class="cls-11" x="1783.17" y="603.95" width="4.11" height="40.23"/><rect class="cls-11" x="1791.63" y="603.95" width="4.11" height="40.23"/><path class="cls-11" d="M2069.51,1063.71v40.23h2.57a8.65,8.65,0,0,0,1.54-.14v-40a7.81,7.81,0,0,0-1.54-.14Z" transform="translate(-271.52 -459.76)"/><path class="cls-11" d="M2075.22,1064.3v39a8.8,8.8,0,0,0,4.11-3.28v-32.5A8.72,8.72,0,0,0,2075.22,1064.3Z" transform="translate(-271.52 -459.76)"/><polygon class="cls-14" points="1286.88 1029.66 866.62 1165.07 686.12 604.79 686.12 604.78 610.06 368.71 1030.31 233.31 1172.32 674.1 1286.88 1029.66"/><path class="cls-15" d="M1558.4,1489.42l-420.26,135.4-180.5-560.28s217.28,140.45,486.2,69.31Z" transform="translate(-271.52 -459.76)"/><path class="cls-16" d="M1496.74,1459l-326.26,105.11L939.87,848.37l326.27-105.12Zm-289.44,82.28L1453.36,1462a31.77,31.77,0,0,0,20.5-40L1269.32,787.18a32.36,32.36,0,0,0-40.71-20.87l-245.07,79a32.07,32.07,0,0,0-20.69,40.36l204.67,635.28A31.61,31.61,0,0,0,1207.3,1541.31Z" transform="translate(-271.52 -459.76)"/><path class="cls-16" d="M1130.52,1182a92.22,92.22,0,1,1,116.06,59.5A92.22,92.22,0,0,1,1130.52,1182Z" transform="translate(-271.52 -459.76)"/><path class="cls-9" d="M1589.44,946.14c-118.23,0-214.86,94.28-218.66,211.6,0,.2,0,.4,0,.6a63.46,63.46,0,0,1,8.78-.6h23.54c3.79-99.54,85.94-179.31,186.36-179.31s182.58,79.77,186.38,179.31h32.28C1804.3,1040.42,1707.67,946.14,1589.44,946.14Z" transform="translate(-271.52 -459.76)"/><path class="cls-9" d="M1758.44,1625.8H1317.9a45.48,45.48,0,0,1-45.37-48.66l5.83-83.1,2.74-39.06L1299,1200a45.47,45.47,0,0,1,45.37-42.29H1728a45.47,45.47,0,0,1,45.33,41.82l30.41,377.11A45.47,45.47,0,0,1,1758.44,1625.8Z" transform="translate(-271.52 -459.76)"/><path class="cls-7" d="M1854.08,1625.8H1413.54a45.47,45.47,0,0,1-45.36-48.66L1394.6,1200a45.48,45.48,0,0,1,45.37-42.3h383.71a45.48,45.48,0,0,1,45.33,41.82l30.41,377.11A45.48,45.48,0,0,1,1854.08,1625.8Z" transform="translate(-271.52 -459.76)"/><path class="cls-17" d="M1703.63,1431.52A65.16,65.16,0,1,1,1617,1370V1255.08a16.71,16.71,0,0,1,11.32-15.76,16.47,16.47,0,0,1,5.31-.88h9.71a16.68,16.68,0,0,1,16.63,16.64V1370A65.17,65.17,0,0,1,1703.63,1431.52Z" transform="translate(-271.52 -459.76)"/><path class="cls-18" d="M1683.31,1431.52a65.18,65.18,0,0,1-55,64.37A65.17,65.17,0,0,1,1617,1370V1255.08a11.95,11.95,0,1,1,22.64,0V1370A65.18,65.18,0,0,1,1683.31,1431.52Z" transform="translate(-271.52 -459.76)"/><path class="cls-19" d="M2588.38,1600.88v19.95a6.83,6.83,0,0,1-1.57,4.3,9.17,9.17,0,0,1-4.3,2.88,10.27,10.27,0,0,1-1.68.39,10.61,10.61,0,0,1-1.61.12H2200.68c-4.89,0-8.91-3.24-9.15-7.29,0-.13,0-.26,0-.4v-19.95c0-.13,0-.27,0-.4.24-4,4.26-7.29,9.15-7.29h378.54a10.61,10.61,0,0,1,1.61.12,10.27,10.27,0,0,1,1.68.39,9.17,9.17,0,0,1,4.3,2.88A6.83,6.83,0,0,1,2588.38,1600.88Z" transform="translate(-271.52 -459.76)"/><path class="cls-20" d="M2402.49,1628.52h-202.8a8,8,0,0,1-8.16-7.29c0-.13,0-.26,0-.4v-19.95c0-.13,0-.27,0-.4a8,8,0,0,1,8.16-7.29h177.9A61.92,61.92,0,0,0,2402.49,1628.52Z" transform="translate(-271.52 -459.76)"/><rect class="cls-20" x="2266.49" y="1133.43" width="4.3" height="35.34"/><rect class="cls-20" x="2251.93" y="1133.43" width="4.3" height="35.34"/><rect class="cls-20" x="2234.46" y="1133.43" width="4.3" height="35.34"/><rect class="cls-20" x="2207.7" y="1133.43" width="4.3" height="35.34"/><rect class="cls-20" x="2179.39" y="1133.43" width="4.3" height="35.34"/><rect class="cls-20" x="2135.99" y="1133.43" width="4.3" height="35.34"/><rect class="cls-20" x="2095.36" y="1133.43" width="4.3" height="35.34"/><rect class="cls-20" x="2059.08" y="1133.43" width="4.3" height="35.34"/><rect class="cls-20" x="2280.35" y="1133.43" width="4.3" height="35.34"/><rect class="cls-20" x="2289.51" y="1133.43" width="4.3" height="35.34"/><rect class="cls-20" x="2298.36" y="1133.43" width="4.3" height="35.34"/><path class="cls-20" d="M2580.83,1593.31v35.09a10.61,10.61,0,0,1-1.61.12h-2.69v-35.33h2.69A10.61,10.61,0,0,1,2580.83,1593.31Z" transform="translate(-271.52 -459.76)"/><path class="cls-20" d="M2586.81,1596.58v28.55a9.17,9.17,0,0,1-4.3,2.88V1593.7A9.17,9.17,0,0,1,2586.81,1596.58Z" transform="translate(-271.52 -459.76)"/><path class="cls-19" d="M2547.9,1565.54v20a6.77,6.77,0,0,1-1.57,4.3,9.14,9.14,0,0,1-4.29,2.88,9.33,9.33,0,0,1-1.68.39,10.71,10.71,0,0,1-1.61.13H2160.2c-4.88,0-8.9-3.25-9.15-7.3,0-.13,0-.26,0-.4v-20c0-.13,0-.27,0-.4.25-4.05,4.27-7.29,9.15-7.29h378.55c.24,0,.48,0,.72,0s.21,0,.31,0l.34,0,.24,0a9.35,9.35,0,0,1,1.68.4l.23.08.24.08.46.19.26.12a1.67,1.67,0,0,1,.23.12,3.55,3.55,0,0,1,.43.23c.17.09.32.19.48.29l.35.24,0,0,.23.17a7.54,7.54,0,0,1,.67.58l.18.18.18.18c.11.13.23.26.33.39A6.77,6.77,0,0,1,2547.9,1565.54Z" transform="translate(-271.52 -459.76)"/><path class="cls-20" d="M2362,1593.19h-202.8a8,8,0,0,1-8.17-7.3c0-.13,0-.26,0-.4v-20c0-.13,0-.27,0-.4a8,8,0,0,1,8.17-7.29h177.89c.08.28.16.57.25.87A61.85,61.85,0,0,0,2362,1593.19Z" transform="translate(-271.52 -459.76)"/><rect class="cls-20" x="2226.02" y="1098.09" width="4.3" height="35.34"/><rect class="cls-20" x="2211.46" y="1098.09" width="4.3" height="35.34"/><rect class="cls-20" x="2193.99" y="1098.09" width="4.3" height="35.34"/><rect class="cls-20" x="2167.22" y="1098.09" width="4.3" height="35.34"/><rect class="cls-20" x="2138.92" y="1098.09" width="4.3" height="35.34"/><rect class="cls-20" x="2095.52" y="1098.09" width="4.3" height="35.34"/><rect class="cls-20" x="2054.89" y="1098.09" width="4.3" height="35.34"/><rect class="cls-20" x="2018.61" y="1098.09" width="4.3" height="35.34"/><rect class="cls-20" x="2239.88" y="1098.09" width="4.3" height="35.34"/><rect class="cls-20" x="2249.04" y="1098.09" width="4.3" height="35.34"/><rect class="cls-20" x="2257.88" y="1098.09" width="4.3" height="35.34"/><path class="cls-20" d="M2540.36,1558v35.09a10.71,10.71,0,0,1-1.61.12h-2.69v-35.33h2.69A10.71,10.71,0,0,1,2540.36,1558Z" transform="translate(-271.52 -459.76)"/><path class="cls-20" d="M2546.33,1561.24v28.55a9.14,9.14,0,0,1-4.29,2.88v-34.31A9.14,9.14,0,0,1,2546.33,1561.24Z" transform="translate(-271.52 -459.76)"/><path class="cls-19" d="M2567.46,1531.07v20a6.8,6.8,0,0,1-1.57,4.29,9.64,9.64,0,0,1-6,3.27,10.73,10.73,0,0,1-1.62.13H2179.76a10.57,10.57,0,0,1-4.22-.87,7.87,7.87,0,0,1-4.9-6.08l0-.35c0-.13,0-.26,0-.39v-20c0-.13,0-.26,0-.4.25-4,4.27-7.29,9.15-7.29H2558.3a10.74,10.74,0,0,1,1.62.12,9.93,9.93,0,0,1,1.67.4,9,9,0,0,1,4.3,2.88A6.78,6.78,0,0,1,2567.46,1531.07Z" transform="translate(-271.52 -459.76)"/><path class="cls-20" d="M2381.58,1558.72h-202.8a8.6,8.6,0,0,1-3.77-.87,7.74,7.74,0,0,1-4.37-6.08l0-.35c0-.13,0-.26,0-.39v-20c0-.13,0-.26,0-.4a8,8,0,0,1,8.17-7.29h177.89a62.09,62.09,0,0,0,23.66,34.47Z" transform="translate(-271.52 -459.76)"/><rect class="cls-20" x="2245.58" y="1063.62" width="4.3" height="35.34"/><rect class="cls-20" x="2231.01" y="1063.62" width="4.3" height="35.34"/><rect class="cls-20" x="2213.55" y="1063.62" width="4.3" height="35.34"/><rect class="cls-20" x="2186.78" y="1063.62" width="4.3" height="35.34"/><rect class="cls-20" x="2158.47" y="1063.62" width="4.3" height="35.34"/><rect class="cls-20" x="2115.08" y="1063.62" width="4.3" height="35.34"/><rect class="cls-20" x="2074.45" y="1063.62" width="4.3" height="35.34"/><rect class="cls-20" x="2038.17" y="1063.62" width="4.3" height="35.34"/><rect class="cls-20" x="2259.44" y="1063.62" width="4.3" height="35.34"/><rect class="cls-20" x="2268.6" y="1063.62" width="4.3" height="35.34"/><rect class="cls-20" x="2277.44" y="1063.62" width="4.3" height="35.34"/><path class="cls-20" d="M2559.92,1523.5v35.09a10.73,10.73,0,0,1-1.62.13h-2.68v-35.34h2.68A10.74,10.74,0,0,1,2559.92,1523.5Z" transform="translate(-271.52 -459.76)"/><path class="cls-20" d="M2565.89,1526.77v28.55a9.14,9.14,0,0,1-4.29,2.88v-34.3A9.12,9.12,0,0,1,2565.89,1526.77Z" transform="translate(-271.52 -459.76)"/><path class="cls-19" d="M2576.53,1495.73v20A6.8,6.8,0,0,1,2575,1520a9.12,9.12,0,0,1-4.3,2.88,9.43,9.43,0,0,1-1.67.39,9.66,9.66,0,0,1-1.62.13H2188.83c-4.88,0-8.9-3.25-9.15-7.3,0-.13,0-.26,0-.39v-20c0-.13,0-.26,0-.4.23-3.74,3.69-6.8,8.06-7.24.36,0,.72,0,1.09,0h378.54a10.84,10.84,0,0,1,1.62.12,10.42,10.42,0,0,1,1.67.4,9,9,0,0,1,4.3,2.88A6.8,6.8,0,0,1,2576.53,1495.73Z" transform="translate(-271.52 -459.76)"/><path class="cls-20" d="M2390.65,1523.38h-202.8a8,8,0,0,1-8.17-7.3c0-.13,0-.26,0-.39v-20c0-.13,0-.26,0-.4a7.94,7.94,0,0,1,7.2-7.24c.31,0,.64,0,1,0h177.89l0,0A61.94,61.94,0,0,0,2390.65,1523.38Z" transform="translate(-271.52 -459.76)"/><rect class="cls-20" x="2254.65" y="1028.28" width="4.3" height="35.34"/><rect class="cls-20" x="2240.08" y="1028.28" width="4.3" height="35.34"/><rect class="cls-20" x="2222.62" y="1028.28" width="4.3" height="35.34"/><rect class="cls-20" x="2195.85" y="1028.28" width="4.3" height="35.34"/><rect class="cls-20" x="2167.54" y="1028.28" width="4.3" height="35.34"/><rect class="cls-20" x="2124.15" y="1028.28" width="4.3" height="35.34"/><rect class="cls-20" x="2083.51" y="1028.28" width="4.3" height="35.34"/><rect class="cls-20" x="2047.23" y="1028.28" width="4.3" height="35.34"/><rect class="cls-20" x="2268.51" y="1028.28" width="4.3" height="35.34"/><rect class="cls-20" x="2277.67" y="1028.28" width="4.3" height="35.34"/><rect class="cls-20" x="2286.51" y="1028.28" width="4.3" height="35.34"/><path class="cls-20" d="M2569,1488.16v35.09a10.84,10.84,0,0,1-1.62.13h-2.69V1488h2.69A10.84,10.84,0,0,1,2569,1488.16Z" transform="translate(-271.52 -459.76)"/><path class="cls-20" d="M2575,1491.43V1520a9.12,9.12,0,0,1-4.3,2.88v-34.3A9.1,9.1,0,0,1,2575,1491.43Z" transform="translate(-271.52 -459.76)"/><path class="cls-19" d="M2548.7,1460.45v20a6.83,6.83,0,0,1-1.57,4.3,9.12,9.12,0,0,1-4.3,2.88,10.4,10.4,0,0,1-1.67.39l-.54.07-.29,0-.3,0H2161c-4.88,0-8.9-3.24-9.15-7.29,0-.13,0-.26,0-.4v-20c0-.14,0-.27,0-.4s0-.22,0-.32c.37-3.26,3.18-6,6.87-6.74l.28,0a10.72,10.72,0,0,1,2-.19h378.54c.28,0,.55,0,.82,0l.36,0h0l.43.06a10.4,10.4,0,0,1,1.67.39,9.12,9.12,0,0,1,4.3,2.88A6.83,6.83,0,0,1,2548.7,1460.45Z" transform="translate(-271.52 -459.76)"/><path class="cls-20" d="M2362.81,1488.09H2160a8,8,0,0,1-8.17-7.29c0-.13,0-.26,0-.4v-20c0-.14,0-.27,0-.4s0-.22,0-.32a7.9,7.9,0,0,1,6.35-6.78l.35-.07a8.59,8.59,0,0,1,1.45-.13h177.89c0,.09.05.17.07.26a61.92,61.92,0,0,0,24.75,35Z" transform="translate(-271.52 -459.76)"/><rect class="cls-20" x="2226.81" y="993" width="4.3" height="35.34"/><rect class="cls-20" x="2212.25" y="993" width="4.3" height="35.34"/><rect class="cls-20" x="2194.79" y="993" width="4.3" height="35.34"/><rect class="cls-20" x="2168.02" y="993" width="4.3" height="35.34"/><rect class="cls-20" x="2139.71" y="993" width="4.3" height="35.34"/><rect class="cls-20" x="2096.32" y="993" width="4.3" height="35.34"/><rect class="cls-20" x="2055.68" y="993" width="4.3" height="35.34"/><rect class="cls-20" x="2019.4" y="993" width="4.3" height="35.34"/><rect class="cls-20" x="2240.68" y="993" width="4.3" height="35.34"/><rect class="cls-20" x="2249.84" y="993" width="4.3" height="35.34"/><rect class="cls-20" x="2258.68" y="993" width="4.3" height="35.34"/><path class="cls-20" d="M2541.16,1452.88V1488a10.84,10.84,0,0,1-1.62.12h-2.69v-35.34h2.69A10.84,10.84,0,0,1,2541.16,1452.88Z" transform="translate(-271.52 -459.76)"/><path class="cls-20" d="M2547.13,1456.15v28.55a9.1,9.1,0,0,1-4.3,2.87v-34.3A9.12,9.12,0,0,1,2547.13,1456.15Z" transform="translate(-271.52 -459.76)"/><path class="cls-19" d="M2547.9,1425.36v20a6.75,6.75,0,0,1-1.57,4.3,9.14,9.14,0,0,1-4.29,2.88,9.3,9.3,0,0,1-1.31.33h0l-.36.06a10.71,10.71,0,0,1-1.61.13H2160.2a11.33,11.33,0,0,1-1.18-.07l-.45-.06c-4.12-.63-7.3-3.59-7.52-7.17,0-.13,0-.26,0-.4v-20c0-.13,0-.27,0-.4.25-4,4.27-7.29,9.15-7.29h378.55c.24,0,.48,0,.72,0l.31,0,.34,0,.24,0a10.29,10.29,0,0,1,1.68.4l.23.08.24.08.46.19c.16.08.33.15.49.24a3.55,3.55,0,0,1,.43.23c.17.09.32.19.48.29l.35.24,0,0,.23.17a7.54,7.54,0,0,1,.67.58l.18.18.18.18c.11.13.23.26.33.39A6.77,6.77,0,0,1,2547.9,1425.36Z" transform="translate(-271.52 -459.76)"/><path class="cls-20" d="M2362,1453h-202.8l-.48,0-.52,0a7.94,7.94,0,0,1-7.17-7.24c0-.13,0-.26,0-.4v-20c0-.13,0-.27,0-.4a8,8,0,0,1,8.17-7.29h177.89c.08.29.16.58.25.87a61.77,61.77,0,0,0,24.3,34.21Z" transform="translate(-271.52 -459.76)"/><rect class="cls-20" x="2226.02" y="957.91" width="4.3" height="35.34"/><rect class="cls-20" x="2211.46" y="957.91" width="4.3" height="35.34"/><rect class="cls-20" x="2193.99" y="957.91" width="4.3" height="35.34"/><rect class="cls-20" x="2167.22" y="957.91" width="4.3" height="35.34"/><rect class="cls-20" x="2138.92" y="957.91" width="4.3" height="35.34"/><rect class="cls-20" x="2095.52" y="957.91" width="4.3" height="35.34"/><rect class="cls-20" x="2054.89" y="957.91" width="4.3" height="35.34"/><rect class="cls-20" x="2018.61" y="957.91" width="4.3" height="35.34"/><rect class="cls-20" x="2239.88" y="957.91" width="4.3" height="35.34"/><rect class="cls-20" x="2249.04" y="957.91" width="4.3" height="35.34"/><rect class="cls-20" x="2257.88" y="957.91" width="4.3" height="35.34"/><path class="cls-20" d="M2540.36,1417.79v35.09a10.71,10.71,0,0,1-1.61.13h-2.69v-35.34h2.69A10.71,10.71,0,0,1,2540.36,1417.79Z" transform="translate(-271.52 -459.76)"/><path class="cls-20" d="M2546.33,1421.06v28.55a9.14,9.14,0,0,1-4.29,2.88v-34.3A9.12,9.12,0,0,1,2546.33,1421.06Z" transform="translate(-271.52 -459.76)"/><path class="cls-19" d="M2567.46,1390.89v20a6.8,6.8,0,0,1-1.57,4.29,9.12,9.12,0,0,1-4.3,2.88,9.93,9.93,0,0,1-1.67.4,10.74,10.74,0,0,1-1.62.12H2179.76a10.57,10.57,0,0,1-4.22-.87,7.87,7.87,0,0,1-4.9-6.08l0-.35c0-.13,0-.26,0-.39v-20c0-.13,0-.26,0-.39.25-4,4.27-7.3,9.15-7.3H2558.3a10.74,10.74,0,0,1,1.62.12,9.93,9.93,0,0,1,1.67.4,9,9,0,0,1,4.3,2.88A6.78,6.78,0,0,1,2567.46,1390.89Z" transform="translate(-271.52 -459.76)"/><path class="cls-20" d="M2381.58,1418.54h-202.8a8.6,8.6,0,0,1-3.77-.87,7.74,7.74,0,0,1-4.37-6.08l0-.35c0-.13,0-.26,0-.39v-20c0-.13,0-.26,0-.39a8,8,0,0,1,8.17-7.3h177.89a62.09,62.09,0,0,0,23.66,34.47Z" transform="translate(-271.52 -459.76)"/><rect class="cls-20" x="2245.58" y="923.44" width="4.3" height="35.34"/><rect class="cls-20" x="2231.01" y="923.44" width="4.3" height="35.34"/><rect class="cls-20" x="2213.55" y="923.44" width="4.3" height="35.34"/><rect class="cls-20" x="2186.78" y="923.44" width="4.3" height="35.34"/><rect class="cls-20" x="2158.47" y="923.44" width="4.3" height="35.34"/><rect class="cls-20" x="2115.08" y="923.44" width="4.3" height="35.34"/><rect class="cls-20" x="2074.45" y="923.44" width="4.3" height="35.34"/><rect class="cls-20" x="2038.17" y="923.44" width="4.3" height="35.34"/><rect class="cls-20" x="2259.44" y="923.44" width="4.3" height="35.34"/><rect class="cls-20" x="2268.6" y="923.44" width="4.3" height="35.34"/><rect class="cls-20" x="2277.44" y="923.44" width="4.3" height="35.34"/><path class="cls-20" d="M2559.92,1383.32v35.1a10.74,10.74,0,0,1-1.62.12h-2.68V1383.2h2.68A10.74,10.74,0,0,1,2559.92,1383.32Z" transform="translate(-271.52 -459.76)"/><path class="cls-20" d="M2565.89,1386.6v28.54a9.14,9.14,0,0,1-4.29,2.88v-34.3A9.07,9.07,0,0,1,2565.89,1386.6Z" transform="translate(-271.52 -459.76)"/><path class="cls-19" d="M2598.4,1355.55v20a6.8,6.8,0,0,1-1.57,4.29,9.17,9.17,0,0,1-4.3,2.88,10.29,10.29,0,0,1-1.68.4,10.61,10.61,0,0,1-1.61.12H2210.7c-4.89,0-8.91-3.25-9.15-7.3,0-.13,0-.26,0-.39v-20c0-.13,0-.26,0-.39.22-3.75,3.68-6.81,8.06-7.24a9.82,9.82,0,0,1,1.09-.06h378.54a10.61,10.61,0,0,1,1.61.12,10.29,10.29,0,0,1,1.68.4,9.1,9.1,0,0,1,4.3,2.88A6.8,6.8,0,0,1,2598.4,1355.55Z" transform="translate(-271.52 -459.76)"/><path class="cls-20" d="M2412.51,1383.2h-202.8a8,8,0,0,1-8.16-7.3c0-.13,0-.26,0-.39v-20c0-.13,0-.26,0-.39a7.92,7.92,0,0,1,7.2-7.24,7.5,7.5,0,0,1,1-.06h177.9s0,0,0,.06A62,62,0,0,0,2412.51,1383.2Z" transform="translate(-271.52 -459.76)"/><rect class="cls-20" x="2276.51" y="888.1" width="4.3" height="35.34"/><rect class="cls-20" x="2261.95" y="888.1" width="4.3" height="35.34"/><rect class="cls-20" x="2244.49" y="888.1" width="4.3" height="35.34"/><rect class="cls-20" x="2217.72" y="888.1" width="4.3" height="35.34"/><rect class="cls-20" x="2189.41" y="888.1" width="4.3" height="35.34"/><rect class="cls-20" x="2146.01" y="888.1" width="4.3" height="35.34"/><rect class="cls-20" x="2105.38" y="888.1" width="4.3" height="35.34"/><rect class="cls-20" x="2069.1" y="888.1" width="4.3" height="35.34"/><rect class="cls-20" x="2290.38" y="888.1" width="4.3" height="35.34"/><rect class="cls-20" x="2299.53" y="888.1" width="4.3" height="35.34"/><rect class="cls-20" x="2308.38" y="888.1" width="4.3" height="35.34"/><path class="cls-20" d="M2590.85,1348v35.1a10.61,10.61,0,0,1-1.61.12h-2.69v-35.34h2.69A10.61,10.61,0,0,1,2590.85,1348Z" transform="translate(-271.52 -459.76)"/><path class="cls-20" d="M2596.83,1351.26v28.54a9.12,9.12,0,0,1-4.3,2.88v-34.3A9,9,0,0,1,2596.83,1351.26Z" transform="translate(-271.52 -459.76)"/><path class="cls-19" d="M2548.7,1320.27v20a6.83,6.83,0,0,1-1.57,4.3,9.12,9.12,0,0,1-4.3,2.88,9.43,9.43,0,0,1-1.67.39l-.54.07c-.14,0-.28,0-.42,0l-.21,0H2161c-4.88,0-8.9-3.25-9.15-7.3,0-.13,0-.26,0-.4v-20c0-.14,0-.27,0-.4.25-4,4.27-7.29,9.15-7.29h379a10.54,10.54,0,0,1,1.13.11,10.4,10.4,0,0,1,1.67.39c.27.09.54.19.8.3l.47.21.05,0,.46.24a.18.18,0,0,1,.07.05,2.8,2.8,0,0,1,.41.25,7.67,7.67,0,0,1,.92.66l.25.23,0,0a1.14,1.14,0,0,1,.16.15s0,0,0,0l.27.28.36.41A6.83,6.83,0,0,1,2548.7,1320.27Z" transform="translate(-271.52 -459.76)"/><path class="cls-20" d="M2362.81,1347.92H2160a8,8,0,0,1-8.17-7.3c0-.13,0-.26,0-.4v-20c0-.14,0-.27,0-.4a8,8,0,0,1,8.17-7.29h177.89c.07.26.15.54.23.81a61.9,61.9,0,0,0,24.59,34.47Z" transform="translate(-271.52 -459.76)"/><rect class="cls-20" x="2226.81" y="852.82" width="4.3" height="35.34"/><rect class="cls-20" x="2212.25" y="852.82" width="4.3" height="35.34"/><rect class="cls-20" x="2194.79" y="852.82" width="4.3" height="35.34"/><rect class="cls-20" x="2168.02" y="852.82" width="4.3" height="35.34"/><rect class="cls-20" x="2139.71" y="852.82" width="4.3" height="35.34"/><rect class="cls-20" x="2096.32" y="852.82" width="4.3" height="35.34"/><rect class="cls-20" x="2055.68" y="852.82" width="4.3" height="35.34"/><rect class="cls-20" x="2019.4" y="852.82" width="4.3" height="35.34"/><rect class="cls-20" x="2240.68" y="852.82" width="4.3" height="35.34"/><rect class="cls-20" x="2249.84" y="852.82" width="4.3" height="35.34"/><rect class="cls-20" x="2258.68" y="852.82" width="4.3" height="35.34"/><path class="cls-20" d="M2541.16,1312.7v35.09a10.84,10.84,0,0,1-1.62.13h-2.69v-35.34h2.69A10.84,10.84,0,0,1,2541.16,1312.7Z" transform="translate(-271.52 -459.76)"/><path class="cls-20" d="M2547.13,1316v28.55a9.12,9.12,0,0,1-4.3,2.88v-34.31A9.12,9.12,0,0,1,2547.13,1316Z" transform="translate(-271.52 -459.76)"/><path class="cls-19" d="M2576.53,1285.74v20a6.83,6.83,0,0,1-1.57,4.3,9.1,9.1,0,0,1-4.3,2.87,10.42,10.42,0,0,1-1.67.4,10.84,10.84,0,0,1-1.62.12H2188.83a10.51,10.51,0,0,1-4.09-.81,7.85,7.85,0,0,1-5-6.17c0-.1,0-.21,0-.31s0-.27,0-.4v-20c0-.13,0-.26,0-.39.23-3.75,3.69-6.8,8.06-7.24a9.82,9.82,0,0,1,1.09-.06h378.54a10.84,10.84,0,0,1,1.62.13,9.43,9.43,0,0,1,1.67.39,9.12,9.12,0,0,1,4.3,2.88A6.8,6.8,0,0,1,2576.53,1285.74Z" transform="translate(-271.52 -459.76)"/><path class="cls-20" d="M2390.65,1313.39h-202.8a8.49,8.49,0,0,1-3.65-.81,7.71,7.71,0,0,1-4.49-6.17c0-.1,0-.21,0-.31s0-.27,0-.4v-20c0-.13,0-.26,0-.39a7.94,7.94,0,0,1,7.2-7.24,7.66,7.66,0,0,1,1-.06h177.89l0,.06a62,62,0,0,0,23.72,34.47Z" transform="translate(-271.52 -459.76)"/><rect class="cls-20" x="2254.65" y="818.3" width="4.3" height="35.34"/><rect class="cls-20" x="2240.08" y="818.3" width="4.3" height="35.34"/><rect class="cls-20" x="2222.62" y="818.3" width="4.3" height="35.34"/><rect class="cls-20" x="2195.85" y="818.3" width="4.3" height="35.34"/><rect class="cls-20" x="2167.54" y="818.3" width="4.3" height="35.34"/><rect class="cls-20" x="2124.15" y="818.3" width="4.3" height="35.34"/><rect class="cls-20" x="2083.51" y="818.3" width="4.3" height="35.34"/><rect class="cls-20" x="2047.23" y="818.3" width="4.3" height="35.34"/><rect class="cls-20" x="2268.51" y="818.3" width="4.3" height="35.34"/><rect class="cls-20" x="2277.67" y="818.3" width="4.3" height="35.34"/><rect class="cls-20" x="2286.51" y="818.3" width="4.3" height="35.34"/><path class="cls-20" d="M2569,1278.17v35.1a10.84,10.84,0,0,1-1.62.12h-2.69v-35.34h2.69A10.84,10.84,0,0,1,2569,1278.17Z" transform="translate(-271.52 -459.76)"/><path class="cls-20" d="M2575,1281.45V1310a9,9,0,0,1-4.3,2.88v-34.3A9.12,9.12,0,0,1,2575,1281.45Z" transform="translate(-271.52 -459.76)"/><path class="cls-19" d="M2588.38,1250.46v20a6.8,6.8,0,0,1-1.57,4.29,9.17,9.17,0,0,1-4.3,2.88,9.33,9.33,0,0,1-1.68.39,4.51,4.51,0,0,1-.53.07l-.3,0-.3,0h-379c-4.89,0-8.91-3.25-9.15-7.3,0-.13,0-.26,0-.39v-20c0-.13,0-.26,0-.4.24-4,4.26-7.29,9.15-7.29h378.54a10.61,10.61,0,0,1,1.61.12,10.29,10.29,0,0,1,1.68.4,9.1,9.1,0,0,1,4.3,2.88A6.78,6.78,0,0,1,2588.38,1250.46Z" transform="translate(-271.52 -459.76)"/><path class="cls-20" d="M2402.49,1278.11h-202.8a8,8,0,0,1-8.16-7.3c0-.13,0-.26,0-.39v-20c0-.13,0-.26,0-.4a8,8,0,0,1,8.16-7.29h177.9a61.91,61.91,0,0,0,24.82,35.28Z" transform="translate(-271.52 -459.76)"/><rect class="cls-20" x="2266.49" y="783.01" width="4.3" height="35.34"/><rect class="cls-20" x="2251.93" y="783.01" width="4.3" height="35.34"/><rect class="cls-20" x="2234.47" y="783.01" width="4.3" height="35.34"/><rect class="cls-20" x="2207.7" y="783.01" width="4.3" height="35.34"/><rect class="cls-20" x="2179.39" y="783.01" width="4.3" height="35.34"/><rect class="cls-20" x="2135.99" y="783.01" width="4.3" height="35.34"/><rect class="cls-20" x="2095.36" y="783.01" width="4.3" height="35.34"/><rect class="cls-20" x="2059.08" y="783.01" width="4.3" height="35.34"/><rect class="cls-20" x="2280.36" y="783.01" width="4.3" height="35.34"/><rect class="cls-20" x="2289.51" y="783.01" width="4.3" height="35.34"/><rect class="cls-20" x="2298.36" y="783.01" width="4.3" height="35.34"/><path class="cls-20" d="M2580.83,1242.89V1278a10.6,10.6,0,0,1-1.61.13h-2.69v-35.34h2.69A10.61,10.61,0,0,1,2580.83,1242.89Z" transform="translate(-271.52 -459.76)"/><path class="cls-20" d="M2586.81,1246.17v28.54a9.12,9.12,0,0,1-4.3,2.88v-34.3A9,9,0,0,1,2586.81,1246.17Z" transform="translate(-271.52 -459.76)"/><circle class="cls-21" cx="2169.57" cy="1448.71" r="179.91" transform="translate(-297.03 -420.8) rotate(-1.02)"/><circle class="cls-19" cx="2153.87" cy="1448.71" r="179.91" transform="translate(-665.06 1487.58) rotate(-45)"/><path class="cls-20" d="M2153.87,1614.75a163.92,163.92,0,1,1,115.91-48A162.83,162.83,0,0,1,2153.87,1614.75Zm0-318c-85,0-154.13,69.14-154.13,154.13S2068.88,1605,2153.87,1605,2308,1535.82,2308,1450.83,2238.86,1296.7,2153.87,1296.7Z" transform="translate(-271.52 -459.76)"/><path class="cls-20" d="M2176.44,1498.41a26.94,26.94,0,0,0-.39-9.52,19.79,19.79,0,0,0-4-7.9,37.43,37.43,0,0,0-8.05-7.11,99.57,99.57,0,0,0-12.47-7,260.4,260.4,0,0,1-23-12.65,81.53,81.53,0,0,1-17.22-14,47.86,47.86,0,0,1-10.17-17.08q-3.23-9.48-1.75-21.85a49.42,49.42,0,0,1,6.12-19.11,45.4,45.4,0,0,1,12.71-14.11,56.91,56.91,0,0,1,18.18-8.67,75.78,75.78,0,0,1,22.71-2.61l3.21-27,21.74,2.58-3.25,27.39a68.08,68.08,0,0,1,20.47,8.71,51.44,51.44,0,0,1,22.9,32.87,68.24,68.24,0,0,1,.9,23.21l-39.28-4.66q1.8-15.15-4-23.46t-17.12-9.65a29.49,29.49,0,0,0-10.74.46,19.85,19.85,0,0,0-7.82,3.8,18.75,18.75,0,0,0-5.05,6.51,27.57,27.57,0,0,0-2.39,8.55,25,25,0,0,0,.36,8.62,18.61,18.61,0,0,0,3.85,7.57,37.75,37.75,0,0,0,8.12,7.1,127.55,127.55,0,0,0,13,7.5q12.6,6.48,22.79,12.94a82.85,82.85,0,0,1,17.14,14.13A48.76,48.76,0,0,1,2214,1481.1q3.21,9.47,1.76,21.72a49.24,49.24,0,0,1-6.24,19.48,44.92,44.92,0,0,1-12.75,14,55,55,0,0,1-18.28,8.33,81.86,81.86,0,0,1-22.82,2.41l-3,25.13-21.62-2.57,3-25a91.31,91.31,0,0,1-21.23-7.51,58.21,58.21,0,0,1-17.39-13.13,52.12,52.12,0,0,1-10.91-19.54q-3.61-11.45-1.81-26.59l39.28,4.66q-1.07,9,.74,15.26a25.21,25.21,0,0,0,5.59,10.39,24.45,24.45,0,0,0,9,6.19,42,42,0,0,0,10.77,2.75,35.23,35.23,0,0,0,11.4-.31,23.3,23.3,0,0,0,8.63-3.59,18.61,18.61,0,0,0,5.71-6.3A22.77,22.77,0,0,0,2176.44,1498.41Z" transform="translate(-271.52 -459.76)"/><path class="cls-12" d="M2496.63,1047s-19.33,27.21-37.05,27.59S2414.9,1062,2414.9,1062s-16.27-36.26-5.23-50.45c0,0,11.06-4.86,22.63,3.72a34.58,34.58,0,0,1,6,5.74,19,19,0,0,0,9.3,6.3c12.64,3.85,27.65-5.2,33.26,3.53a59.05,59.05,0,0,0,9.78,11.58A44.53,44.53,0,0,0,2496.63,1047Z" transform="translate(-271.52 -459.76)"/><path class="cls-12" d="M2244.65,1243.29s68.31-165.54,191.28-168.69c0,0,113.51,12.61,119.82,168.69Z" transform="translate(-271.52 -459.76)"/><path class="cls-17" d="M2402.24,1079.65s49.29,11,64.5,4.52c0,0,2.3-20.61-18.46-17.72-14.21,2-23.46-4.85-28.9-7.62C2411.67,1054.91,2400.2,1071,2402.24,1079.65Z" transform="translate(-271.52 -459.76)"/><path class="cls-13" d="M2445.14,1048.59c-3.15,2.36-12.84-33.33-12.84-33.33a34.58,34.58,0,0,1,6,5.74,19,19,0,0,0,9.3,6.3C2447.63,1028.34,2448.2,1046.28,2445.14,1048.59Z" transform="translate(-271.52 -459.76)"/><path class="cls-13" d="M2490.64,1042.41c-.7.41-23.49,14.06-26.58,14.06s16.8-25.64,16.8-25.64A59.05,59.05,0,0,0,2490.64,1042.41Z" transform="translate(-271.52 -459.76)"/><path class="cls-13" d="M2311.39,1197c-1.27-1.08,48.34-73,62-73.57s44.36,15.77,66.58,17.87,43.77-4.21,48,8.93,15.76,59.72,8.67,67.17S2338.67,1220.35,2311.39,1197Z" transform="translate(-271.52 -459.76)"/><path class="cls-6" d="M2456.3,1064c-4.12-2.91-13.47-9.31-14-7.88-.35,1,.15,2.77,1.27,4.58-5.66-2.11-11.4-3.5-25-.89a10.18,10.18,0,0,0-6.68,4.4c-1.38,2.15-1.9,4.85,1.57,7,6.93,4.31,4.92,1.73,14.55,8s21.42,7.88,28.46,3.47l9.45-1.57,1.18-15.55S2461.78,1065,2456.3,1064Z" transform="translate(-271.52 -459.76)"/><path class="cls-6" d="M2704,933.63s-22.29,26.44-50.67,15.38c0,0-6.1-14.77-6.19-25.65,0-1.34,0-2.64,0-3.88-.15-12.25-.56-19.13-.56-19.13h0c1.29-.53,43.38-17.82,43.35-16.38C2689.2,917.11,2704,933.63,2704,933.63Z" transform="translate(-271.52 -459.76)"/><path class="cls-22" d="M2685.7,891.86c-4.06,7.53-18,22.25-38.59,27.62-.15-12.25-.56-19.13-.56-19.13h0C2647.74,900,2686.91,889.65,2685.7,891.86Z" transform="translate(-271.52 -459.76)"/><path class="cls-6" d="M2637.73,899.08s47.34,11.13,53.82-18.46,16.95-48.08-13-56.43-38.32,1.64-42.88,11S2625.59,895.42,2637.73,899.08Z" transform="translate(-271.52 -459.76)"/><path class="cls-23" d="M2689.93,888.68c.64.41,10.83,3.54,30.12-34.88,3-6,5.09-19.09-2-30.62s-32.08-20.59-52.88-24.54-25.79,7.76-30.68,19.52c-5.14,12.34-20,22.5-20,22.5,17.93,10,39.53-4.31,47-1.95s10.13,14.15,10.69,17.93,1.42,6.92,10.83,3.54,4.26,13.34,2.75,16.53C2685.81,876.71,2684.53,885.22,2689.93,888.68Z" transform="translate(-271.52 -459.76)"/><path class="cls-2" d="M2811.87,1626.5h28.67c6,0,12.68-6,14.35-17s14-17,16.7-26-11-21.71-11-21.71l-2.29-2.94-2.38-3.07-22.71,5.34s-.56,5.41-.91,12.29a156.42,156.42,0,0,0-.09,15.77c.67,12-3.37,25-14.05,27.31S2811.87,1626.5,2811.87,1626.5Z" transform="translate(-271.52 -459.76)"/><path class="cls-2" d="M2612.33,1626.5h76a6.5,6.5,0,0,0,1.61-.47c5.07-2.54,3.49-22,2.88-28-.12-1.11-.2-1.76-.2-1.76s-26.72-21.37-30.4-5c-.12.51-.25,1-.39,1.51h0c-4.64,15.31-25.37,22.27-37.35,24.21C2615.31,1618.5,2612.94,1623.83,2612.33,1626.5Z" transform="translate(-271.52 -459.76)"/><path class="cls-4" d="M2627.64,1188.35s4.06,50.62,8.83,111.47c6.48,82.67,14.27,184.21,15.05,203.44,1.33,33.41,6.68,86.84,6.68,86.84s12.68,12.69,38.07,7.34c0,0,22.62-76.27,29.08-157l.3-4c6-82.15,15.36-255.15,15.36-255.15Z" transform="translate(-271.52 -459.76)"/><path class="cls-5" d="M2627.64,1188.35s4.06,50.62,8.83,111.47l88.88,140.65.3-4c6-82.15,15.36-255.15,15.36-255.15Z" transform="translate(-271.52 -459.76)"/><path class="cls-4" d="M2646.17,1194.36s73.14,183.34,121.23,269.5,63.12,110.21,63.12,110.21,27.55-11,30.05-18.54c0,0-18.39-166.34-50.59-206.88-18.2-22.92-39.58-91.68-40.58-115.72s-6.51-71.63-6.51-71.63Z" transform="translate(-271.52 -459.76)"/><path class="cls-6" d="M2813,1161.05l.77,11.79s-7.77,21,14,31.69c0,0,9.32,3.76,9.7-3.5s-.81-4.53-.06-14.75-3.26-19.89-10-23.15l-5.55-6.4Z" transform="translate(-271.52 -459.76)"/><path class="cls-24" d="M2821.47,1169.63c-8.09,2.6-9.39,2-9.39,2s-39.4-71.73-43.39-78.3S2685,1012.9,2685,1012.9l20.48-76.34s90.6,117.33,100.39,134.17c16.17,27.82,25.64,92.44,25.64,92.44A23.68,23.68,0,0,1,2821.47,1169.63Z" transform="translate(-271.52 -459.76)"/><path class="cls-25" d="M2612.2,1042.87c.29,15.68,1.2,33.31,2.42,51.21.08,1.06.16,2.12.23,3.18.79,11.09,1.64,22.2,2.62,33q.59,6.53,1.24,12.87l.07.56c0,1.58.22,3.3.4,4.86,4,40.6,8.18,72.67,9,73.16a4.57,4.57,0,0,0,3.12.8c10.64-1.34,42.41,1.07,68.41-4.58,21.95-4.63,40.84-13.41,60.87-25.24,2.65-1.57,8.71-5.73,8.22-8.84-.49-3.42-1.38-8.36-2.52-14.57-3.94-21.59-10.75-58.74-13.07-102.21q-.69-12.15-2-24a364.28,364.28,0,0,0-10.6-57.22c-8.92-32.11-22-56.69-38.46-66.31-2.15-1.21-13.71,6.15-24.32,13a46.93,46.93,0,0,1-30.16,7.15l-8.83,9.76c-10.7,12.44-22.09,29-25.2,52.53-.23,1.74-.43,3.58-.6,5.55A345.9,345.9,0,0,0,2612.2,1042.87Z" transform="translate(-271.52 -459.76)"/><path class="cls-24" d="M2612.2,1042.87c.29,15.68,1.2,33.31,2.42,51.21.08,1.06.16,2.12.23,3.18,60.81-38.06,70.18-107.72,70.18-107.72-29.92,1.31-53.68,8.19-72,18A345.9,345.9,0,0,0,2612.2,1042.87Z" transform="translate(-271.52 -459.76)"/><path class="cls-25" d="M2458.55,1072.86c-.63-9,4-10.52,4-10.52s91.69-16.62,99.49-19.07,74.44-71.79,74.44-71.79S2662.07,942.67,2683,949c18.18,5.53,25.28,19.71,27.7,33.22a39.79,39.79,0,0,1-18.48,40.84c-31.29,19.2-93.93,57-108.68,61.34-32.84,9.62-121.06.77-121.06.77A28.44,28.44,0,0,1,2458.55,1072.86Z" transform="translate(-271.52 -459.76)"/><path class="cls-26" d="M702.31,1218.15l7.49,6.08s20.49-7.35,25.12,17c0,0,1.23,10.38-5.35,10.39s-3.86-1.13-13.16-.86-17-4.63-18.39-12.18l-4.45-6.4Z" transform="translate(-271.52 -459.76)"/><path class="cls-24" d="M701.47,1231.2c6-6.24,5.49-10.85,5.49-10.85s-69.19-56.65-76.21-61.26c-4.78-3.15-55.74-48.32-79.56-75.86-11.81-13.66-26.45-8.36-43.19-3.56l-13.79,4c-16.65,4.77-21,28.06-7.32,39.38,38.48,31.87,102.48,67.71,114.46,75.25,29.73,18.7,87.92,40.92,87.92,40.92A36.91,36.91,0,0,0,701.47,1231.2Z" transform="translate(-271.52 -459.76)"/><path class="cls-5" d="M780.43,1579.24s16.79,12.59,42.52,5.94c0,0,20.74-4.73,25.29,5.62,0,0-31.81,16.16-39.86,20.58-6.07,3.33-12.4,8.59-16.88,12.65a8.34,8.34,0,0,1-12.08-.93c-1.4-1.72-3-3.77-4.76-6.15-4.9-6.64-16.33-28.12-16.33-28.12Z" transform="translate(-271.52 -459.76)"/><path class="cls-4" d="M790.28,1572.85s-10.22,23.58-33.82,19.24c0,0-48.16-39.77-81.2-81.09-10.73-13.42-19.87-27-25.23-39.43-21.91-50.72-81-126.37-118.63-164.71l94.05-34s30.13,60.61,70.22,135.05C724.55,1461.51,758.61,1522.34,790.28,1572.85Z" transform="translate(-271.52 -459.76)"/><path class="cls-5" d="M695.67,1407.88,675.26,1511c-10.73-13.42-19.87-27-25.23-39.43-21.91-50.72-81-126.37-118.63-164.71l94.05-34S655.58,1333.44,695.67,1407.88Z" transform="translate(-271.52 -459.76)"/><path class="cls-5" d="M618.78,1592.93s-1,18.81,21.78,21.32c0,0,13,.07,13.07,12l-66.28.21s-1.92-4.83-2.39-15.17c-.36-7.95,7.7-28.72,7.7-28.72Z" transform="translate(-271.52 -459.76)"/><path class="cls-4" d="M594.6,1272.83s41.9,46,68.5,129c14.48,45.14-26.52,158.61-34.51,198,0,0-27.51,2.34-46.31-4.93,0,0-1.43-81.43,9.57-144.2,6.15-35.12-55.17-75.12-82-138.58-18.23-43.18,4-42.44,31.2-43.48Z" transform="translate(-271.52 -459.76)"/><path class="cls-27" d="M546.23,1067.42c-23.31,13.16-71,1-71,1s19.38-22.16,10.58-57.85l18.3,9.3,19.66,10a163.94,163.94,0,0,1,2.16,17.62c.22,2.91.42,6.17.56,9.73A61.06,61.06,0,0,1,546.23,1067.42Z" transform="translate(-271.52 -459.76)"/><path class="cls-25" d="M631.72,1270.45c0,4.1-4.72,6.06-5.72,6.26-9.41,1.72-35.66,11.93-59.31,14.27-19.92,2.09-38.41.11-58.72-4-2.69-.54-9-2.24-9.45-4.82-.56-2.81-78.36-158.58-17.88-225.5,1.42-1.57,13.35,1.26,24.27,3.85a44.86,44.86,0,0,0,27.59-2.25l10.24,5.38c12.57,7,36.36,31.9,39.14,51.43,1.41,9.93,7.09,17.29,8.74,26,.61,3.24,1.23,6.39,1.87,9.47q1.86,9,3.83,17.24c3.55,14.77,7.31,27.48,11,38.47,3.93,11.66,7.78,21.36,11.21,29.48,4.46,10.52,8.23,18.39,10.58,24.41C630.77,1264.43,631.72,1267.76,631.72,1270.45Z" transform="translate(-271.52 -459.76)"/><path class="cls-24" d="M629.1,1260.19c-109.81-51.74-147.84-151.08-147.84-151.08s89.22,32.91,111.23,41.48q1.86,9,3.83,17.24c3.55,14.77,7.31,27.48,11,38.47,3.93,11.66,7.78,21.36,11.21,29.48C623,1246.3,626.75,1254.17,629.1,1260.19Z" transform="translate(-271.52 -459.76)"/><path class="cls-26" d="M525.89,1047.5c-22.93,1.29-37.84-17.64-37.84-17.64a180.68,180.68,0,0,0,16-10l19.66,10A163.94,163.94,0,0,1,525.89,1047.5Z" transform="translate(-271.52 -459.76)"/><path class="cls-27" d="M535.66,1024s-34.74,24.93-49.93,3.06-29.91-33.39-8.37-50.23,31.69-11.52,38.53-5.45S544.3,1016.91,535.66,1024Z" transform="translate(-271.52 -459.76)"/><path class="cls-5" d="M519.56,951.59a55.76,55.76,0,0,0-4-14.32s-2.18,9-18.69,7.78-42.65,1.62-51.37,20.43a38.42,38.42,0,0,0-1.49,3.69,43.48,43.48,0,0,1-2-10.42c-3.13,8.1,0,18.22,0,18.22h0c0,.3-.08.59-.13.89-3.64,3.08-6.7,12.65-6.7,12.65,1.1-2.67,3.78-4.41,6.17-5.49-.07,14.64,5.86,28.94,16.28,33.2,15.23,6.23,15.11,1.48,30.42,11.64,0,0,4.11-5.1,1.31-8.53s-13.39-8.4-7.47-13.38,8.09.62,10.27-2.81-8.71-13.39,5.3-22.73S520.81,960,519.56,951.59Z" transform="translate(-271.52 -459.76)"/><circle class="cls-19" cx="713.79" cy="1076.35" r="169.37" transform="translate(-823.55 360.22) rotate(-45)"/><path class="cls-20" d="M752.74,1227.73a154.31,154.31,0,1,1,94.41-71A153.21,153.21,0,0,1,752.74,1227.73Zm-74.61-290c-77.49,19.94-124.31,99.2-104.37,176.69s99.2,124.31,176.69,104.37,124.31-99.2,104.37-176.7S755.61,917.82,678.13,937.76Z" transform="translate(-271.52 -459.76)"/><path class="cls-20" d="M746,1116.37a25.5,25.5,0,0,0-2.58-8.59,18.63,18.63,0,0,0-5.53-6.26,35,35,0,0,0-9-4.59,94,94,0,0,0-13-3.44,243.4,243.4,0,0,1-24-6.13,76.7,76.7,0,0,1-19-8.74,45.13,45.13,0,0,1-13.28-13.19q-5.16-7.87-6.72-19.51a46.27,46.27,0,0,1,1.1-18.86,42.78,42.78,0,0,1,8.27-15.85,53.37,53.37,0,0,1,14.55-12.16A71.54,71.54,0,0,1,697,991.33L693.54,966,714,963.2l3.47,25.74a64.26,64.26,0,0,1,20.7,3.13,48.32,48.32,0,0,1,28.59,24.6,64.27,64.27,0,0,1,6.27,20.95l-36.91,5q-1.9-14.23-9.18-20.45T709,1017.36a27.8,27.8,0,0,0-9.68,2.94,18.7,18.7,0,0,0-6.24,5.3,17.57,17.57,0,0,0-3.08,7.12,25.62,25.62,0,0,0-.17,8.36,23.49,23.49,0,0,0,2.34,7.77,17.37,17.37,0,0,0,5.3,6,34.76,34.76,0,0,0,9.06,4.58,118.1,118.1,0,0,0,13.58,3.79q13,3,23.81,6.46a77.32,77.32,0,0,1,18.94,8.86,46,46,0,0,1,13.29,13.25q5.16,7.88,6.7,19.39a46.62,46.62,0,0,1-1.11,19.23,42.43,42.43,0,0,1-8.35,15.73A51.91,51.91,0,0,1,758.71,1158a77,77,0,0,1-20.24,7.55l3.18,23.6-20.31,2.74-3.16-23.49a86.1,86.1,0,0,1-21.11-1.87,54.69,54.69,0,0,1-18.94-7.89,49.05,49.05,0,0,1-14.54-15.26q-6-9.59-7.88-23.82l36.9-5a37,37,0,0,0,4.26,13.74,23.85,23.85,0,0,0,7.53,8.16,23,23,0,0,0,9.64,3.53,39.89,39.89,0,0,0,10.47,0,33.11,33.11,0,0,0,10.32-3,22,22,0,0,0,7-5.3,17.51,17.51,0,0,0,3.72-7.08A21.2,21.2,0,0,0,746,1116.37Z" transform="translate(-271.52 -459.76)"/><path class="cls-28" d="M695.67,1247.11s18.58,6.26,29.29,6,29.33-11.52,29.36-12.32-8.37-5.64-20.56-4.1-14.68-.29-10.89-1.8c4.27-1.71,7.31-4.26,6.27-5.89-.58-.89-6.7,1-8.79,1.74s-7.31-1.21-11.67,1.93c-2.89,2.08-13.75,3.64-13.75,3.64Z" transform="translate(-271.52 -459.76)"/><path class="cls-25" d="M703,1241.07c3.28-9.24,4.78-13.43,4.78-13.43S634.63,1171,627.2,1166.2c-5.06-3.29-55.54-39.07-80.43-67.33a50.58,50.58,0,0,0-49.58-15.79l-15,3.54c-18.07,4.27-23.39,27.42-9,39.14,40.55,33,108.5,70.81,121.19,78.7,31.5,19.6,100.77,46.43,100.77,46.43S700.44,1248.33,703,1241.07Z" transform="translate(-271.52 -459.76)"/><path class="cls-5" d="M1760.92,1122.6c-14.57,25.36-32.89,35.14-32.89,35.14h-76.21S1772,1103.27,1760.92,1122.6Z" transform="translate(-271.52 -459.76)"/><path class="cls-6" d="M1702.38,1318.75a7,7,0,0,0-1.26,7.53l0,0c1.82,5,7.83,10.63,14.8,16.23.89.72,1.69,1.38,2.38,2l.53.48.41.37c6.51,6,4.06,7.37,15.74,19.54,13.33,13.86,22.51,14.11,25.12,12.85,2.2-1.08-2.28-8.43-7.25-16.69-.25-.4-.48-.81-.73-1.21-.66-1.1-1.32-2.21-2-3.32-5.83-10-4.33-14.61-3-29.42,1.12-12,18.71-67.2,18.71-67.2l-25.54-4.4s-7.69,43.93-16.16,50.7c-4.53,3.61-9.6,3.65-14,6.33-.3.18-.61.37-.9.57A33.11,33.11,0,0,0,1702.38,1318.75Z" transform="translate(-271.52 -459.76)"/><path class="cls-5" d="M1702.38,1318.75a7,7,0,0,0-1.26,7.53l0,0c2.23,5,8.08,10.6,14.83,16.18.88.73,1.66,1.4,2.35,2l.53.48.41.37c6.51,6,4.06,7.37,15.74,19.54,13.33,13.86,22.51,14.11,25.12,12.85,2.2-1.08-2.28-8.43-7.25-16.69a56.87,56.87,0,0,1-23.76-17.51c-8-10.24-13.37-23.39-18.84-31-.3.18-.61.37-.9.57A33.11,33.11,0,0,0,1702.38,1318.75Z" transform="translate(-271.52 -459.76)"/><path class="cls-6" d="M1908.29,1302.79c1.58,7.89,12.82,6.57,25.37,3.51s9.57.58,27.44-1.4,23.27-8.64,23.82-11.3c.49-2.36-8.34-3.19-17.81-4.28-1.19-.13-2.39-.28-3.58-.43-10.69-1.34-18.52-8.24-28.23-13.9-9.2-5.37-22.93-27.23-22.93-27.23l-24.5,1.94s12.86,19.53,17.83,28c2.93,5,2.77,11.59,2.41,16.69A31.78,31.78,0,0,0,1908.29,1302.79Z" transform="translate(-271.52 -459.76)"/><path class="cls-5" d="M1933.66,1306.3c12.55-3.07,9.57.58,27.44-1.4s23.27-8.64,23.82-11.3c.49-2.36-8.34-3.19-17.81-4.28l-.09.18a50.35,50.35,0,0,1-25.58,8c-12.13.29-25-3.18-33.33-3a31.78,31.78,0,0,0,.18,8.38C1909.87,1310.68,1921.11,1309.36,1933.66,1306.3Z" transform="translate(-271.52 -459.76)"/><path class="cls-5" d="M1814.4,1146.13l-22.91,61.63-29.9,80.48a48.44,48.44,0,0,1-15.89-1.46c-7.15-2.07-15.36-7.48-15.36-7.48s8.3-86.4,23.79-136c4-12.74,8.42-23,13.33-28.83C1791.47,1086.09,1814.4,1146.13,1814.4,1146.13Z" transform="translate(-271.52 -459.76)"/><path class="cls-4" d="M1605.54,1088.63s151.73-51.3,185.57-40.39,135.44,213.07,135.44,213.07-2.29,3-8.55,5.4c-5.82,2.18-19.91,2-19.91,2s-91.7-78.6-102.61-101.52-15.29-44.76-26.2-42.57c-6.67,1.33-58.23,33.08-104.41,33.08H1598c-28.9-31.12-20.81-80.44-20.81-80.44Z" transform="translate(-271.52 -459.76)"/><path class="cls-29" d="M1711,739.57c-6.25-4.22-14.06-5.24-19.57-5.34a9.3,9.3,0,0,1,4.35-1.66c-3.36-.77-11.21,2-11.21,2-45.86-21.89-58.71,47.14-59,63.39s-1.6,34.87-26.33,47.54c-48.66,24.93-13.36,77.8-13.36,77.8.35.24,18.79,37.92,18.79,37.92-.18-13.16,65.49-77.44,98.56-95.64,8.54-10.68,12.81-30.39,13.13-31.94-2.55,15.69-5.94,24.34-8.74,29.14C1736.15,840.34,1727.51,750.77,1711,739.57Z" transform="translate(-271.52 -459.76)"/><path class="cls-6" d="M1689.4,863.67c.14.1-16.27,5.7-27.25.84C1651.83,860,1644,843,1644.16,843c4.7-.22,9.85-4.32,13.82-31.27l2,.72,33.64,12.1s-2.44,10.79-4,21.06C1688.28,854.19,1687.56,862.46,1689.4,863.67Z" transform="translate(-271.52 -459.76)"/><path class="cls-22" d="M1693.62,824.5s-2.44,10.79-4,21.06c-19.31-3.47-26.9-22.72-29.62-33.16Z" transform="translate(-271.52 -459.76)"/><path class="cls-29" d="M1651.87,804s-10.28-16.25-12.75-30.14c-1.76-9.92,3.29-46.68,40.23-41.38a50.09,50.09,0,0,1,20.82,7.87c8,5.41,19.59,17.11,6.65,49.19l-3.36,10.83Z" transform="translate(-271.52 -459.76)"/><path class="cls-6" d="M1698.62,835.21s-46-6.18-41.72-34.77,1.23-48.65,30.79-45.92,33.62,14.5,34.51,24.39S1710.7,836.08,1698.62,835.21Z" transform="translate(-271.52 -459.76)"/><path class="cls-29" d="M1708.7,757s-17.63,31.64-37.67,33.69-27.62-4.39-27.62-4.39a55.2,55.2,0,0,0,22.74-29.57S1701.64,739.58,1708.7,757Z" transform="translate(-271.52 -459.76)"/><path class="cls-29" d="M1705.18,759.23s8.25,8.91,9.44,16.53,0,22.77,4.4,22.92c0,0,12.91-21.37,4.22-35.87C1714,747.43,1705.18,759.23,1705.18,759.23Z" transform="translate(-271.52 -459.76)"/><path class="cls-25" d="M1569.94,1089.43c2.51,7,10.18,8.74,20.48,7.54,19.62-2.3,48.76-15.47,69.77-24.58,32-13.88,46.58-.84,56.76-9.67s-11.64-28.48,7.28-119.69c6.42-30.93-34.63-97.47-34.63-97.47s-3.13,19.42-42-3.67c-1.37-.82-16.69,21.86-31.44,49.81-16.26,30.85-31.83,68.1-27.25,87.3C1597.6,1015.6,1562.67,1069.24,1569.94,1089.43Z" transform="translate(-271.52 -459.76)"/><path class="cls-24" d="M1569.94,1089.43c2.51,7,10.18,8.74,20.48,7.54,13.58-5.92,72.24-28.65,71.59-44-1-22.8-11.28-23.53-4-51.67,5.85-22.6-48.36-64.61-57-73.75-16.26,30.84-16.71,32.3-12.13,51.5C1597.6,1015.6,1562.67,1069.24,1569.94,1089.43Z" transform="translate(-271.52 -459.76)"/><path class="cls-4" d="M1791.49,1207.76l-29.9,80.48a48.44,48.44,0,0,1-15.89-1.46c-7.15-2.07-15.36-7.48-15.36-7.48s8.3-86.4,23.79-136Z" transform="translate(-271.52 -459.76)"/><path class="cls-25" d="M1689.6,845.56s40,6.79,44.73,24,32.36,118.55,32.36,118.55-20.35,3.66-29.75-5.74-32.71-87.22-32.71-87.22Z" transform="translate(-271.52 -459.76)"/><path class="cls-25" d="M1647.56,841.89s-37.83,2.33-50.93,20.6c-18.44,25.71-55,135.3-34.05,149.92,23.6,16.46,107.43,4.3,107.43,4.3s2.79-13-1.09-19.34-67-16.5-69.87-19.41,36.39-56.77,36.39-65.5S1647.56,841.89,1647.56,841.89Z" transform="translate(-271.52 -459.76)"/><polygon class="cls-7" points="1377.6 592.48 1539.17 592.48 1568.3 490.91 1406.98 490.91 1377.6 592.48"/><rect class="cls-9" x="1598.92" y="1048.28" width="211.22" height="3.96" transform="translate(3137.54 1640.76) rotate(180)"/><path class="cls-19" d="M1759.39,999.8c1-3.57-1-6.46-4.61-6.46a9.26,9.26,0,0,0-8.32,6.46c-1,3.58,1,6.47,4.61,6.47A9.26,9.26,0,0,0,1759.39,999.8Z" transform="translate(-271.52 -459.76)"/><polygon class="cls-17" points="1082.03 948.77 1006.84 1034.28 1009.58 995.23 1025.63 948.77 1082.03 948.77"/><path class="cls-30" d="M1237.72,1170l123,211.65a19.7,19.7,0,0,1-7.11,26.85l-371.3,215.69a19.71,19.71,0,0,1-26.85-7.12L832.46,1405.45a19.71,19.71,0,0,1,7.12-26.85l371.29-215.69A19.71,19.71,0,0,1,1237.72,1170Z" transform="translate(-271.52 -459.76)"/><path class="cls-3" d="M1071.85,1510.13l-98.95,57.49a8.83,8.83,0,0,1-12-3.19l-.55-1a8.84,8.84,0,0,1,3.19-12l99-57.48a8.82,8.82,0,0,1,12,3.19l.55.95A8.81,8.81,0,0,1,1071.85,1510.13Z" transform="translate(-271.52 -459.76)"/><path class="cls-3" d="M1202.26,1434.38l-99,57.49a8.83,8.83,0,0,1-12-3.2l-.55-1a8.82,8.82,0,0,1,3.19-12l98.95-57.49a8.84,8.84,0,0,1,12,3.19l.55.95A8.83,8.83,0,0,1,1202.26,1434.38Z" transform="translate(-271.52 -459.76)"/><path class="cls-3" d="M926.2,1462.31a21.34,21.34,0,0,1,3.26,10,9.64,9.64,0,0,1-14.66,8.51,25.3,25.3,0,0,1-10.32-17.68,9.72,9.72,0,0,1,14.73-8.56A21.46,21.46,0,0,1,926.2,1462.31Zm-4.55,2.62a21.36,21.36,0,0,0-4.08-5.25q-3.21-2.78-5.89-1.22t-1.92,5.7a20.45,20.45,0,0,0,2.53,6.21q5.37,9.23,10.08,6.49c1.81-1,2.43-3,1.84-5.75A21.11,21.11,0,0,0,921.65,1464.93Z" transform="translate(-271.52 -459.76)"/><path class="cls-3" d="M946.51,1450.51a21.25,21.25,0,0,1,3.27,10,9.65,9.65,0,0,1-14.66,8.52,25.3,25.3,0,0,1-10.32-17.68,9.72,9.72,0,0,1,14.73-8.56A21.36,21.36,0,0,1,946.51,1450.51Zm-4.54,2.62a21.43,21.43,0,0,0-4.08-5.26q-3.21-2.77-5.89-1.21t-1.92,5.7a20.31,20.31,0,0,0,2.53,6.2q5.37,9.24,10.08,6.5c1.81-1.06,2.43-3,1.84-5.75A21.11,21.11,0,0,0,942,1453.13Z" transform="translate(-271.52 -459.76)"/><path class="cls-3" d="M966.83,1438.71a21.18,21.18,0,0,1,3.27,10,9.65,9.65,0,0,1-14.66,8.52,25.35,25.35,0,0,1-10.32-17.68,9.71,9.71,0,0,1,14.73-8.56A21.28,21.28,0,0,1,966.83,1438.71Zm-4.55,2.61a20.89,20.89,0,0,0-4.08-5.25q-3.19-2.77-5.88-1.21t-1.92,5.7a20.41,20.41,0,0,0,2.53,6.2q5.36,9.24,10.08,6.5c1.81-1.06,2.43-3,1.84-5.75A20.84,20.84,0,0,0,962.28,1441.32Z" transform="translate(-271.52 -459.76)"/><path class="cls-3" d="M987.15,1426.9a21.25,21.25,0,0,1,3.27,10,9.65,9.65,0,0,1-14.67,8.51,25.33,25.33,0,0,1-10.31-17.68,9.72,9.72,0,0,1,14.73-8.56A21.36,21.36,0,0,1,987.15,1426.9Zm-4.55,2.62a20.89,20.89,0,0,0-4.08-5.25q-3.19-2.77-5.88-1.22t-1.92,5.7a20.45,20.45,0,0,0,2.53,6.21q5.36,9.22,10.07,6.49c1.82-1,2.43-3,1.85-5.75A21.17,21.17,0,0,0,982.6,1429.52Z" transform="translate(-271.52 -459.76)"/><path class="cls-3" d="M1017.94,1409a21.25,21.25,0,0,1,3.27,10,9.65,9.65,0,0,1-14.66,8.52,25.35,25.35,0,0,1-10.32-17.69,9.71,9.71,0,0,1,14.73-8.55A21.32,21.32,0,0,1,1017.94,1409Zm-4.54,2.62a21.14,21.14,0,0,0-4.09-5.25c-2.13-1.85-4.09-2.26-5.88-1.21s-2.48,3-1.92,5.7a20.41,20.41,0,0,0,2.53,6.2q5.37,9.23,10.08,6.49c1.81-1,2.43-3,1.84-5.74A21,21,0,0,0,1013.4,1411.63Z" transform="translate(-271.52 -459.76)"/><path class="cls-3" d="M1038.26,1397.21a21.25,21.25,0,0,1,3.27,10,9.64,9.64,0,0,1-14.66,8.52,25.3,25.3,0,0,1-10.32-17.68,9.72,9.72,0,0,1,14.73-8.56A21.36,21.36,0,0,1,1038.26,1397.21Zm-4.55,2.62a21.15,21.15,0,0,0-4.08-5.26c-2.13-1.84-4.09-2.25-5.88-1.21s-2.48,3-1.92,5.7a20.31,20.31,0,0,0,2.53,6.2q5.36,9.24,10.08,6.5c1.81-1,2.43-3,1.84-5.75A20.9,20.9,0,0,0,1033.71,1399.83Z" transform="translate(-271.52 -459.76)"/><path class="cls-3" d="M1058.58,1385.41a21.22,21.22,0,0,1,3.27,10,9.65,9.65,0,0,1-14.67,8.52,25.33,25.33,0,0,1-10.31-17.68,9.71,9.71,0,0,1,14.73-8.56A21.28,21.28,0,0,1,1058.58,1385.41ZM1054,1388a20.78,20.78,0,0,0-4.08-5.26q-3.2-2.77-5.88-1.21t-1.92,5.7a20.31,20.31,0,0,0,2.53,6.2q5.35,9.24,10.07,6.5c1.82-1.06,2.43-3,1.85-5.75A21.06,21.06,0,0,0,1054,1388Z" transform="translate(-271.52 -459.76)"/><path class="cls-3" d="M1078.9,1373.6a21.37,21.37,0,0,1,3.27,10,9.65,9.65,0,0,1-14.67,8.51,25.33,25.33,0,0,1-10.31-17.68,9.71,9.71,0,0,1,14.73-8.55A21.41,21.41,0,0,1,1078.9,1373.6Zm-4.55,2.62a20.89,20.89,0,0,0-4.08-5.25c-2.13-1.85-4.09-2.26-5.89-1.21s-2.47,3-1.92,5.7a20.67,20.67,0,0,0,2.53,6.2q5.37,9.22,10.08,6.49c1.82-1.05,2.43-3,1.85-5.74A21.11,21.11,0,0,0,1074.35,1376.22Z" transform="translate(-271.52 -459.76)"/><path class="cls-3" d="M1109.69,1355.72a21.18,21.18,0,0,1,3.27,10,9.65,9.65,0,0,1-14.67,8.52,25.39,25.39,0,0,1-10.31-17.68,9.71,9.71,0,0,1,14.73-8.56A21.28,21.28,0,0,1,1109.69,1355.72Zm-4.55,2.61a20.89,20.89,0,0,0-4.08-5.25q-3.19-2.77-5.88-1.21t-1.92,5.7a20.31,20.31,0,0,0,2.53,6.2q5.36,9.24,10.07,6.5c1.82-1.06,2.43-3,1.85-5.75A21.21,21.21,0,0,0,1105.14,1358.33Z" transform="translate(-271.52 -459.76)"/><path class="cls-3" d="M1130,1343.91a21.25,21.25,0,0,1,3.27,10,9.65,9.65,0,0,1-14.67,8.51,25.33,25.33,0,0,1-10.31-17.68,9.72,9.72,0,0,1,14.73-8.56A21.45,21.45,0,0,1,1130,1343.91Zm-4.55,2.62a20.89,20.89,0,0,0-4.08-5.25q-3.2-2.77-5.89-1.22t-1.91,5.7a20.1,20.1,0,0,0,2.53,6.21q5.36,9.22,10.07,6.49c1.82-1,2.43-3,1.85-5.75A21.17,21.17,0,0,0,1125.46,1346.53Z" transform="translate(-271.52 -459.76)"/><path class="cls-3" d="M1150.33,1332.11a21.48,21.48,0,0,1,3.27,10,9.65,9.65,0,0,1-14.67,8.52,21.22,21.22,0,0,1-7-7.77,21.47,21.47,0,0,1-3.29-9.91,9.73,9.73,0,0,1,14.74-8.56A21.45,21.45,0,0,1,1150.33,1332.11Zm-4.55,2.62a21,21,0,0,0-4.08-5.26q-3.2-2.78-5.89-1.21c-1.84,1.07-2.47,3-1.92,5.7a20.57,20.57,0,0,0,2.53,6.2q5.37,9.24,10.08,6.5,2.73-1.58,1.84-5.75A20.84,20.84,0,0,0,1145.78,1334.73Z" transform="translate(-271.52 -459.76)"/><path class="cls-3" d="M1170.65,1320.31a21.27,21.27,0,0,1,3.26,10,9.65,9.65,0,0,1-14.66,8.52,25.35,25.35,0,0,1-10.32-17.68,9.71,9.71,0,0,1,14.74-8.56A21.36,21.36,0,0,1,1170.65,1320.31Zm-4.55,2.61a21.12,21.12,0,0,0-4.08-5.25c-2.13-1.85-4.1-2.25-5.89-1.21s-2.48,3-1.92,5.7a20.31,20.31,0,0,0,2.53,6.2q5.37,9.24,10.08,6.5c1.82-1.06,2.43-3,1.84-5.75A21.16,21.16,0,0,0,1166.1,1322.92Z" transform="translate(-271.52 -459.76)"/><path class="cls-3" d="M1201.44,1302.42a21.37,21.37,0,0,1,3.27,10,9.65,9.65,0,0,1-14.67,8.52,25.33,25.33,0,0,1-10.31-17.68,9.72,9.72,0,0,1,14.73-8.56A21.45,21.45,0,0,1,1201.44,1302.42Zm-4.55,2.62a21,21,0,0,0-4.08-5.26q-3.19-2.77-5.89-1.21t-1.92,5.7a20.57,20.57,0,0,0,2.53,6.2q5.37,9.24,10.08,6.5c1.82-1,2.43-3,1.85-5.75A21.17,21.17,0,0,0,1196.89,1305Z" transform="translate(-271.52 -459.76)"/><path class="cls-3" d="M1221.76,1290.62a21.27,21.27,0,0,1,3.26,10,9.65,9.65,0,0,1-14.66,8.52,25.35,25.35,0,0,1-10.32-17.68,9.72,9.72,0,0,1,14.74-8.56A21.36,21.36,0,0,1,1221.76,1290.62Zm-4.55,2.61a20.89,20.89,0,0,0-4.08-5.25c-2.13-1.85-4.1-2.25-5.89-1.21s-2.48,3-1.92,5.7a20.67,20.67,0,0,0,2.53,6.2q5.37,9.24,10.08,6.5c1.82-1.06,2.43-3,1.84-5.75A20.78,20.78,0,0,0,1217.21,1293.23Z" transform="translate(-271.52 -459.76)"/><path class="cls-3" d="M1242.08,1278.81a21.34,21.34,0,0,1,3.26,10,9.64,9.64,0,0,1-14.66,8.51,25.3,25.3,0,0,1-10.32-17.68,9.72,9.72,0,0,1,14.74-8.56A21.54,21.54,0,0,1,1242.08,1278.81Zm-4.55,2.62a21.36,21.36,0,0,0-4.08-5.25q-3.21-2.78-5.89-1.22t-1.92,5.7a20.45,20.45,0,0,0,2.53,6.21q5.37,9.23,10.08,6.49c1.81-1,2.43-3,1.84-5.75A21.11,21.11,0,0,0,1237.53,1281.43Z" transform="translate(-271.52 -459.76)"/><path class="cls-3" d="M1262.4,1267a21.34,21.34,0,0,1,3.26,10,9.65,9.65,0,0,1-14.66,8.52,25.3,25.3,0,0,1-10.32-17.68,9.72,9.72,0,0,1,14.73-8.56A21.46,21.46,0,0,1,1262.4,1267Zm-4.55,2.62a21.43,21.43,0,0,0-4.08-5.26q-3.21-2.77-5.89-1.21t-1.92,5.7a20.31,20.31,0,0,0,2.53,6.2q5.37,9.24,10.08,6.5c1.81-1.06,2.43-3,1.84-5.75A21.11,21.11,0,0,0,1257.85,1269.63Z" transform="translate(-271.52 -459.76)"/><path class="cls-3" d="M972.8,1344.48,876,1400.74a8.82,8.82,0,0,1-12-3.19h0a8.84,8.84,0,0,1,3.19-12L964,1329.26a8.84,8.84,0,0,1,12,3.19h0A8.83,8.83,0,0,1,972.8,1344.48Z" transform="translate(-271.52 -459.76)"/><path class="cls-3" d="M1212.25,1227.05a13.44,13.44,0,0,0-6.82-5.82,1.44,1.44,0,0,0-1.91,1l-.19.73a1.42,1.42,0,0,0,.85,1.68,9.9,9.9,0,0,1,6.18,10.63,1.44,1.44,0,0,0,1,1.58l.72.19a1.44,1.44,0,0,0,1.81-1.17A13.49,13.49,0,0,0,1212.25,1227.05Z" transform="translate(-271.52 -459.76)"/><path class="cls-3" d="M1218.53,1223.41a20.65,20.65,0,0,0-11.38-9.26,1.43,1.43,0,0,0-1.83,1l-.11.41a1.44,1.44,0,0,0,1,1.72,17.45,17.45,0,0,1,11.55,19.87,1.44,1.44,0,0,0,1,1.68l.41.11a1.43,1.43,0,0,0,1.79-1.08A20.68,20.68,0,0,0,1218.53,1223.41Z" transform="translate(-271.52 -459.76)"/><path class="cls-3" d="M1224,1220.21a27,27,0,0,0-15.31-12.24,1.45,1.45,0,0,0-1.82,1h0a1.46,1.46,0,0,0,1,1.73,24.2,24.2,0,0,1,16.41,28.24,1.44,1.44,0,0,0,1,1.69h0a1.44,1.44,0,0,0,1.79-1.07A27,27,0,0,0,1224,1220.21Z" transform="translate(-271.52 -459.76)"/><path class="cls-3" d="M1230,1216.75a33.87,33.87,0,0,0-19.56-15.45,1.44,1.44,0,0,0-1.82,1l-.18.71a1.44,1.44,0,0,0,1,1.73,30.37,30.37,0,0,1,20.81,35.82,1.43,1.43,0,0,0,1,1.7l.71.2a1.45,1.45,0,0,0,1.79-1.07A33.93,33.93,0,0,0,1230,1216.75Z" transform="translate(-271.52 -459.76)"/><path class="cls-3" d="M984.33,1584.35a10.27,10.27,0,0,1,1.57,4.81,4.64,4.64,0,0,1-7.07,4.1,10.17,10.17,0,0,1-3.39-3.74,10.44,10.44,0,0,1-1.59-4.78,4.69,4.69,0,0,1,7.11-4.13A10.3,10.3,0,0,1,984.33,1584.35Zm-2.2,1.26a10.06,10.06,0,0,0-2-2.53c-1-.89-2-1.09-2.83-.58a2.3,2.3,0,0,0-.93,2.74,9.81,9.81,0,0,0,1.22,3c1.73,3,3.34,4,4.86,3.13.88-.51,1.17-1.43.89-2.77A10.18,10.18,0,0,0,982.13,1585.61Z" transform="translate(-271.52 -459.76)"/><path class="cls-3" d="M994.13,1578.66a10.27,10.27,0,0,1,1.57,4.8,4.65,4.65,0,0,1-7.07,4.11,10.29,10.29,0,0,1-3.39-3.75,10.4,10.4,0,0,1-1.59-4.78,4.69,4.69,0,0,1,7.11-4.12A10.3,10.3,0,0,1,994.13,1578.66Zm-2.2,1.26a10.06,10.06,0,0,0-2-2.53c-1-.9-2-1.09-2.83-.59a2.31,2.31,0,0,0-.93,2.75,9.76,9.76,0,0,0,1.22,3q2.6,4.45,4.86,3.14c.88-.51,1.17-1.44.89-2.78A10.14,10.14,0,0,0,991.93,1579.92Z" transform="translate(-271.52 -459.76)"/><path class="cls-3" d="M998.31,1568.84a1.59,1.59,0,0,1,.16.69l1,13.53a1.28,1.28,0,0,1-.53,1.34,1.06,1.06,0,0,1-.78.12,1,1,0,0,1-.62-.48,1.55,1.55,0,0,1-.2-.69l-1-13.52a1.3,1.3,0,0,1,.52-1.32,1.07,1.07,0,0,1,.79-.14A.91.91,0,0,1,998.31,1568.84Z" transform="translate(-271.52 -459.76)"/><path class="cls-3" d="M1010.63,1569.07a10.27,10.27,0,0,1,1.57,4.81,4.65,4.65,0,0,1-7.07,4.11,12.22,12.22,0,0,1-5-8.53,4.68,4.68,0,0,1,7.1-4.13A10.22,10.22,0,0,1,1010.63,1569.07Zm-2.19,1.27a10.37,10.37,0,0,0-2-2.54c-1-.89-2-1.09-2.84-.58a2.3,2.3,0,0,0-.93,2.74,10.07,10.07,0,0,0,1.22,3q2.6,4.45,4.86,3.13c.88-.51,1.17-1.43.89-2.77A10.25,10.25,0,0,0,1008.44,1570.34Z" transform="translate(-271.52 -459.76)"/><path class="cls-3" d="M1020.43,1563.38a10.27,10.27,0,0,1,1.57,4.8,4.65,4.65,0,0,1-7.07,4.11,12.23,12.23,0,0,1-5-8.52,4.68,4.68,0,0,1,7.1-4.13A10.22,10.22,0,0,1,1020.43,1563.38Zm-2.19,1.26a10.29,10.29,0,0,0-2-2.53c-1-.9-2-1.09-2.84-.59a2.31,2.31,0,0,0-.93,2.75,9.76,9.76,0,0,0,1.22,3q2.6,4.46,4.86,3.14c.88-.51,1.17-1.44.89-2.78A10.36,10.36,0,0,0,1018.24,1564.64Z" transform="translate(-271.52 -459.76)"/><path class="cls-3" d="M1030.23,1557.69a10.27,10.27,0,0,1,1.57,4.8,4.65,4.65,0,0,1-7.07,4.11,12.22,12.22,0,0,1-5-8.53,4.68,4.68,0,0,1,7.1-4.13A10.34,10.34,0,0,1,1030.23,1557.69ZM1028,1559a10.37,10.37,0,0,0-2-2.54c-1-.89-2-1.08-2.84-.58s-1.2,1.43-.93,2.75a10,10,0,0,0,1.22,3q2.6,4.46,4.86,3.13c.88-.5,1.17-1.43.89-2.77A10.36,10.36,0,0,0,1028,1559Z" transform="translate(-271.52 -459.76)"/><path class="cls-3" d="M1040,1552a10.27,10.27,0,0,1,1.57,4.81,4.65,4.65,0,0,1-7.07,4.11,10.29,10.29,0,0,1-3.39-3.75,10.4,10.4,0,0,1-1.59-4.78,4.69,4.69,0,0,1,7.11-4.13A10.39,10.39,0,0,1,1040,1552Zm-2.2,1.27a10.35,10.35,0,0,0-2-2.54c-1-.89-2-1.09-2.84-.58s-1.2,1.43-.93,2.75a9.76,9.76,0,0,0,1.22,3q2.6,4.45,4.86,3.13c.88-.51,1.17-1.43.89-2.77A10,10,0,0,0,1037.83,1553.26Z" transform="translate(-271.52 -459.76)"/><rect class="cls-31" x="58.92" y="1166.55" width="2702.56" height="7.17" rx="3.06"/></svg>