<?xml version="1.0" encoding="utf-8"?>
<svg version="1.1" xmlns:xlink="http://www.w3.org/1999/xlink" width="35px" height="35px" xmlns="http://www.w3.org/2000/svg">
  <g transform="matrix(1 0 0 1 -191 -479 )">
    <path d="M 27.53896933333334 34.83338999999999  L 27.280000000000005 35  L 25.809933333333333 34.980468666666674  L 25.38676666666667 34.901042  C 25.053433333333334 34.837238666666664  24.700566666666667 34.774738666666664  24.363333333333337 34.69140533333333  C 22.433633333333333 34.210938666666664  20.50666666666667 33.32420533333333  18.297000000000004 31.907538666666664  C 15.587366666666668 30.167938666666668  12.91666666666667 27.943871999999992  9.893333333333336 24.907538666666664  L 9.893333333333336 24.90623666666666  C 7.515733333333336 22.588536666666666  5.371333333333335 20.04290333333333  3.4896666666666696 17.307236666666665  C 1.8933000000000026 14.930936666666662  0.9362666666666696 12.973903333333332  0.3829000000000029 10.920569999999998  C 0.26962000000000297 10.507803333333332  0.19279666666666959 10.097636666666665  0.11988000000000293 9.70050333333333  C 0.08602666666666958 9.529929999999998  0.056076666666669585 9.367169999999996  0.023526666666669586 9.19400333333333  L 8.933333333624911E-05 8.983066666666664  L 8.933333333624911E-05 7.796866666666664  L 0.07951600000000292 7.6041599999999985  C 0.6667493333333363 6.183593333333332  1.6667493333333363 5.179693333333332  2.647216000000003 4.276026666666664  C 3.3607493333333363 3.609359999999998  4.113349333333336 3.0025933333333312  4.82038266666667 2.4387933333333307  L 4.82038266666667 2.4400953333333306  C 5.678449333333337 1.7369619999999975  6.82168266666667 1.4895619999999976  7.893316000000004 1.7734286666666643  C 8.580816000000004 1.9361886666666641  9.178482666666671 2.360661999999998  9.559982666666672 2.9570286666666643  L 10.474049333333337 4.333328666666665  C 11.42718266666667 5.7864619999999976  12.410249333333336 7.2864619999999976  13.41024933333334 8.736995333333331  C 14.18628266666667 9.808595333333331  14.295649333333337 11.225261999999999  13.692802666666669 12.403661999999999  C 13.515719333333337 12.79429533333333  13.312602666666672 13.153661999999997  13.115969333333338 13.503928666666667  L 12.865969333333338 13.954461999999996  C 12.679772666666668 14.287795333333328  12.496169333333338 14.621128666666666  12.302169333333337 14.954462  L 12.92846933333334 15.704461999999998  C 13.492269333333336 16.371128666666667  14.07820266666667 17.087261999999996  14.678469333333336 17.73439533333333  L 14.679771333333337 17.73309333333333  C 16.32690466666667 19.542993333333328  18.11843800000001 21.214759999999995  20.036438000000004 22.73309333333333  C 20.74347133333334 22.322926666666664  21.483038000000004 21.910159999999998  22.292938000000007 21.47006  C 23.104138000000003 20.97786  24.070271333333334 20.80989333333333  24.999971333333338 20.99999333333333  C 25.329398000000005 21.07551333333333  25.64320466666667 21.20832666666666  25.927038000000003 21.39322666666666  C 27.990838 22.75129333333333  30.050704666666668 24.114593333333328  32.104038 25.483226666666663  C 33.17697133333334 26.199359999999995  33.60793800000001 27.660293333333332  33.157438000000006 29.040559999999992  L 33.15613600000001 29.040559999999992  C 33.05457266666667 29.369986666666662  32.902229333333345 29.68119333333333  32.70300266666668 29.96372666666666  C 31.634002666666674 31.47935999999999  30.357936000000006 32.83742666666666  28.91266933333334 34.00006  C 28.598866000000008 34.237039999999986  28.264236000000007 34.446659999999994  27.912669333333344 34.62635999999999  C 27.786366000000005 34.69667333333332  27.66266933333334 34.763079999999995  27.53896933333334 34.83338999999999  Z M 25.773673333333335 32.79702466666667  L 26.11723333333334 32.86326666666667  L 26.71096666666667 32.86326666666667  L 26.890653333333336 32.766913333333335  C 27.13674666666667 32.641913333333335  27.373720000000006 32.49608  27.596386666666668 32.33331333333334  C 28.885453333333334 31.28514666666667  30.02215333333334 30.06248  30.974053333333337 28.700646666666668  C 31.03785666666667 28.59648  31.087333333333333 28.4845  31.11988666666667 28.367313333333335  C 31.28134666666667 27.988413333333334  31.200616666666665 27.550913333333334  30.91285666666667 27.25664666666667  C 28.862090000000002 25.889446666666668  26.807523333333336 24.530080000000005  24.750190000000007 23.177313333333338  C 24.679876666666676 23.131740000000004  24.601753333333335 23.09918666666667  24.519720000000003 23.079656666666672  C 24.09655333333334 23.00804333333334  23.662953333333334 23.097886000000003  23.30358666666667 23.333563333333334  C 22.40645333333334 23.816630000000007  21.603053333333335 24.269763333333337  20.84655333333334 24.716363333333337  C 20.27495333333334 25.090063333333337  19.526253333333337 25.045790000000004  19.00018666666667 24.609593333333333  C 16.886920000000007 22.972859999999997  14.919520000000007 21.15526  13.11985333333334 19.17726  C 12.476620000000006 18.487159999999996  11.873753333333337 17.760593333333333  11.290420000000006 17.05746  C 10.980523333333338 16.69286  10.666720000000005 16.333493333333333  10.373753333333338 15.974126666666667  C 9.932353333333337 15.487159999999998  9.877653333333338 14.763193333333334  10.243546666666674 14.216326666666665  C 10.506566666666671 13.782726666666663  10.750046666666671 13.342626666666666  10.993546666666672 12.906426666666668  L 11.25396333333334 12.442893333333334  C 11.437556666666673 12.109560000000002  11.606830000000006 11.816593333333332  11.74356333333334 11.513193333333334  C 12.032626666666673 11.020993333333333  11.993563333333341 10.402526666666667  11.647210000000007 9.950693333333334  C 10.647210000000007 8.480626666666666  9.647210000000007 6.967626666666667  8.683676666666674 5.508026666666667  L 7.793043333333339 4.1408266666666655  C 7.70450333333334 3.9936899999999995  7.557366666666672 3.8921299999999994  7.3907100000000066 3.8595766666666664  C 6.96364333333334 3.73067  6.501376666666673 3.823116666666666  6.15634333333334 4.1069733333333325  C 5.489676666666673 4.649939999999999  4.759210000000007 5.233273333333332  4.096443333333339 5.846573333333334  C 3.309976666666672 6.5705399999999985  2.570410000000006 7.2997066666666655  2.136810000000006 8.226773333333332  L 2.136810000000006 8.873906666666667  C 2.166758000000006 9.017136666666667  2.1941033333333393 9.160366666666667  2.22014333333334 9.303606666666667  C 2.290456666666673 9.677306666666668  2.3568633333333393 10.027573333333335  2.446706666666673 10.360906666666668  C 2.933673333333339 12.164306666666668  3.803473333333339 13.937573333333333  5.263106666666673 16.110906666666665  L 5.263106666666673 16.10960466666667  C 7.069106666666672 18.73330466666667  9.126440000000006 21.173271333333332  11.406440000000005 23.397271333333332  C 14.333506666666672 26.333471333333332  16.87644000000001 28.450604666666663  19.453440000000008 30.106938000000003  C 21.453440000000004 31.39730466666667  23.186440000000005 32.19417133333334  24.880440000000004 32.617338000000004  C 25.173410000000008 32.69025466666667  25.474173333333336 32.743641333333336  25.773673333333335 32.79702466666667  Z " fill-rule="nonzero" fill="#000000" stroke="none" transform="matrix(1 0 0 1 191 479 )" />
  </g>
</svg>