<?xml version="1.0" encoding="UTF-8"?>
<svg fill="#163C84" width="100pt" height="100pt" version="1.1" viewBox="0 0 100 100" xmlns="http://www.w3.org/2000/svg">
 <path d="m12.5 29.168c0-9.207 7.4609-16.668 16.668-16.668h41.664c9.207 0 16.668 7.4609 16.668 16.668v41.664c0 9.207-7.4609 16.668-16.668 16.668h-41.664c-9.207 0-16.668-7.4609-16.668-16.668zm37.5 0c2.3008 0 4.168 1.8633 4.168 4.1641v8.3359c0 2.3008 1.8633 4.1641 4.1641 4.1641h8.3359c2.3008 0 4.1641 1.8672 4.1641 4.168s-1.8633 4.168-4.1641 4.168h-8.3359c-2.3008 0-4.1641 1.8633-4.1641 4.1641v8.3359c0 2.3008-1.8672 4.1641-4.168 4.1641s-4.168-1.8633-4.168-4.1641v-8.3359c0-2.3008-1.8633-4.1641-4.1641-4.1641h-8.3359c-2.3008 0-4.1641-1.8672-4.1641-4.168s1.8633-4.168 4.1641-4.168h8.3359c2.3008 0 4.1641-1.8633 4.1641-4.1641v-8.3359c0-2.3008 1.8672-4.1641 4.168-4.1641z" fill-rule="evenodd"/>
</svg>
