<?xml version="1.0" encoding="utf-8"?>
<svg version="1.1" xmlns:xlink="http://www.w3.org/1999/xlink" width="17px" height="19px" xmlns="http://www.w3.org/2000/svg">
  <g transform="matrix(1 0 0 1 -55 -31 )">
    <path d="M 16.76390777777778 5.428701111111112  C 16.765383377777777 4.903393333333334  16.57870788888889 4.399534444444445  16.2452 4.0292666666666666  L 13.394866666666667 0.8435999999999999  C 13.063574444444445 0.470862222222222  12.612753333333332 0.26222111111111096  12.14274111111111 0.26386777777777765  L 2.0069633333333345 0.26386777777777765  C 1.0293122222222233 0.26469237777777743  0.23686666666666742 1.1503655555555552  0.23613000000000076 2.243034444444444  L 0.23613000000000076 16.756923333333337  C 0.23686780000000057 17.84959222222222  1.0293122222222233 18.735266666666664  2.0069633333333345 18.73609  L 14.993074444444447 18.73609  C 15.970725555555557 18.7352654  16.76317111111111 17.84959222222222  16.76390777777778 16.756923333333337  L 16.76390777777778 5.428701111111112  Z M 6.138896444444445 1.5833248888888887  L 10.86111111111111 1.5833333333333333  L 10.86111111111111 3.5625  C 10.86111111111111 3.7373253333333336  10.799132888888888 3.905555555555556  10.688455333333334 4.029245555555557  C 10.577777777777778 4.152944  10.427259777777778 4.222213777777777  10.270840888888891 4.222213777777777  L 6.7291742222222215 4.222213777777777  C 6.403038666666666 4.222213777777777  6.138896444444445 3.9269959999999995  6.138896444444445 3.562491555555555  L 6.138896444444445 1.5833248888888887  Z M 12.63193688888889 17.416658222222225  L 4.368055555555555 17.416666666666664  L 4.368055555555555 12.138888888888888  C 4.368055555555555 11.774384444444445  4.632197777777778 11.479166666666666  4.958333333333334 11.479166666666666  L 12.041666666666668 11.479166666666666  C 12.198089333333336 11.479166666666666  12.348611111111113 11.548436444444443  12.45928111111111 11.672134888888888  C 12.569958666666665 11.795833333333334  12.63193688888889 11.964059333333337  12.63193688888889 12.138880444444446  L 12.63193688888889 17.416658222222225  Z M 15.583363555555557 5.428713777777777  L 15.583333333333332 16.756944444444443  C 15.582595533333334 17.121448888888892  15.319191111111113 17.415843333333335  14.993055555555555 17.416666666666664  L 13.8125 17.416666666666664  L 13.8125 12.138888888888888  C 13.8125 11.04622  13.019317777777777 10.159722222222221  12.041666666666668 10.159722222222221  L 4.958333333333334 10.159722222222221  C 3.9806822222222227 10.159722222222221  3.1875 11.04622  3.1875 12.138888888888888  L 3.1875 17.416666666666664  L 2.006944444444444 17.416666666666664  C 1.6808088888888892 17.415842066666666  1.4174033333333336 17.121448888888892  1.4166666666666665 16.756944444444443  L 1.4166666666666665 2.2430555555555554  C 1.417404466666667 1.8785511111111115  1.6808088888888892 1.5841566666666669  2.006944444444444 1.5833333333333333  L 4.958333333333334 1.5833333333333333  L 4.958333333333334 3.5625  C 4.958333333333334 4.655168888888889  5.751515555555555 5.541666666666667  6.729166666666666 5.541666666666667  L 10.270833333333332 5.541666666666667  C 11.248484444444445 5.541666666666667  12.041666666666668 4.655168888888889  12.041666666666668 3.5625  L 12.041666666666668 1.5833333333333333  C 12.23202888888889 1.5577698888888891  12.421654444444448 1.6286884444444445  12.560374444444443 1.7763015555555557  L 15.41070777777778 4.961968222222223  C 15.521385333333335 5.0856666666666674  15.584102111111113 5.253069333333333  15.583363555555557 5.428713777777777  Z M 7.319444444444445 2.902777777777778  C 7.319444444444445 2.5382733333333336  7.583586666666668 2.2430555555555554  7.909722222222222 2.2430555555555554  L 9.090277777777777 2.2430555555555554  C 9.416413333333335 2.2430555555555554  9.680555555555555 2.5382733333333336  9.680555555555555 2.902777777777778  C 9.680555555555555 3.2672822222222226  9.416413333333335 3.5625  9.090277777777777 3.5625  L 7.909722222222222 3.5625  C 7.583586666666668 3.5625  7.319444444444445 3.2672822222222226  7.319444444444445 2.902777777777778  Z M 12.041666666666668 13.458333333333334  C 12.041666666666668 13.822837777777778  11.777524444444445 14.118055555555555  11.45138888888889 14.118055555555555  L 5.548611111111112 14.118055555555555  C 5.222475555555556 14.118055555555555  4.958333333333334 13.822837777777778  4.958333333333334 13.458333333333334  C 4.958333333333334 13.093828888888888  5.222475555555556 12.798611111111112  5.548611111111112 12.798611111111112  L 11.45138888888889 12.798611111111112  C 11.777524444444445 12.798611111111112  12.041666666666668 13.093828888888888  12.041666666666668 13.458333333333334  Z M 12.041666666666668 15.4375  C 12.041666666666668 15.802004444444444  11.777524444444445 16.09722222222222  11.45138888888889 16.09722222222222  L 5.548611111111112 16.09722222222222  C 5.222475555555556 16.09722222222222  4.958333333333334 15.802004444444444  4.958333333333334 15.4375  C 4.958333333333334 15.072995555555556  5.222475555555556 14.777777777777779  5.548611111111112 14.777777777777779  L 11.45138888888889 14.777777777777779  C 11.777524444444445 14.777777777777779  12.041666666666668 15.072995555555556  12.041666666666668 15.4375  Z " fill-rule="nonzero" fill="#f9f9f9" stroke="none" transform="matrix(1 0 0 1 55 31 )" />
  </g>
</svg>