<svg id="Layer_1" data-name="Layer 1" xmlns="http://www.w3.org/2000/svg" viewBox="0 0 79.66 79.58"><defs><style>.cls-1{fill:#163c84;}.cls-2{fill:#75d7e3;}.cls-3{fill:#1aa1ad;}</style></defs><path class="cls-1" d="M48.3,68.2A21.43,21.43,0,1,1,60.9,55.4L74,68.5A38.75,38.75,0,1,0,61.3,81.3Z" transform="translate(-2.04 -9.22)"/><path class="cls-2" d="M43.9,63.8l-5.7-5.7L50.9,45.4l5.7,5.7-11.9.8Zm25.8.4L57.8,65,57,76.9l4.4,4.4.8-11.9L74,68.6Zm1.2,13.9,9.4-.6,1.4-1.4-3.2-3.2-11.9.8-.8,11.9L69,88.8l1.4-1.4ZM49.1,56.3l-.8,11.9,4.4,4.4.8-11.9,11.9-.8L61,55.4Z" transform="translate(-2.04 -9.22)"/><path class="cls-3" d="M70.9,78.1l9.4-.6-10,10Zm7.5-5.2L74,68.6l-11.9.8-.8,11.9,4.4,4.4.8-11.9Zm-8.7-8.7-4.4-4.4-11.9.8-.8,11.9L57,76.9,57.8,65ZM61,55.4,56.6,51l-11.9.8-.8,11.9,4.4,4.4.8-11.9Z" transform="translate(-2.04 -9.22)"/></svg>