<?xml version="1.0" encoding="UTF-8"?>
<svg fill="#9496C7" width="100pt" height="100pt" version="1.1" viewBox="0 0 100 100" xmlns="http://www.w3.org/2000/svg">
 <path d="m7.7305 39.473 7.5664-20.559c1.1523-2.4688 2.9609-4.7695 5.0977-6.5781 2.1367-1.8086 4.4414-2.9609 7.2383-3.7812h44.738c2.6328 0.82422 4.9336 1.9727 7.2383 3.7812 2.1367 1.8086 3.7812 4.1133 5.0977 6.5781l7.5664 20.559c2.9609 3.6172 5.2617 6.9062 7.4023 10.855 0 5.9219 0 11.844 0.16406 17.762 0 5.5938 0.16406 11.348 0.16406 15.953 0 4.1133-3.4531 7.4023-7.4023 7.4023h-3.7812c-3.9492 0-7.2383-3.2891-7.2383-7.4023v-4.2773c-21.219 2.3008-42.105 2.3008-63.156 0v4.2773c0 4.1133-3.2891 7.4023-7.4023 7.4023h-3.6172c-4.1133 0-7.4023-3.2891-7.4023-7.4023 0-4.6055 0-10.363 0.16406-15.953 0-5.9219 0.16406-11.844 0.16406-17.762 2.1367-3.9492 4.4414-7.2383 7.4023-10.855zm20.395-26.809c-1.8086 0.65625-3.4531 1.6445-5.0977 2.9609-1.4805 1.3164-2.7969 2.9609-3.9492 5.0977l-7.7305 20.887c-2.6328 3.125-4.9336 6.25-6.9062 9.8672 0 5.5938 0 11.02-0.16406 16.613 0 5.0977-0.16406 10.031-0.16406 15.953 0 1.8086 1.4805 3.2891 3.2891 3.2891h3.6172c1.8086 0 3.2891-1.4805 3.2891-3.2891v-8.8828c24.508 2.7969 46.875 2.7969 71.383 0v8.8828c0 1.8086 1.4805 3.2891 3.125 3.2891h3.7812c1.8086 0 3.125-1.4805 3.125-3.2891v-15.953c-0.16406-5.5938-0.16406-11.02-0.16406-16.613-1.9727-3.6172-4.2773-6.7422-6.9062-9.8672l-7.7305-20.887c-1.1523-2.1367-2.4688-3.7812-4.1133-5.0977-1.4805-1.3164-3.125-2.3008-5.0977-2.9609zm42.926 7.2383c1.9727 0.49219 3.125 1.6445 3.9492 3.4531 1.6445 4.6055 3.2891 9.0469 4.7695 13.652-20.23-2.3008-39.473-2.3008-59.703 0 1.6445-4.6055 3.2891-9.0469 4.9336-13.652 0.82422-1.8086 1.9727-2.9609 3.9492-3.4531h42.105zm14.969 22.039c-2.4688-6.5781-4.7695-13.488-7.0742-20.23-1.4805-3.2891-3.7812-5.2617-7.5664-5.9219h-42.926c-3.6172 0.65625-5.9219 2.6328-7.4023 5.9219-2.4688 6.7422-4.7695 13.652-7.0742 20.23 25.492-3.125 46.547-3.125 72.039 0zm-24.672 11.676c0.32812 0 0.65625 0.16406 0.82422 0.32812 0.49219 0.49219 0.49219 2.3008 0 2.7969-0.16406 0.16406-0.49219 0.32812-0.82422 0.32812h-22.699c-0.32813 0-0.65625-0.16406-0.82422-0.32812-0.49219-0.49219-0.49219-2.3008 0-2.7969 0.16406-0.16406 0.49219-0.32812 0.82422-0.32812zm0 7.5664c1.4805 0 2.7969-0.49219 3.7812-1.4805 2.1367-2.1367 2.1367-6.5781 0-8.7188-0.98828-0.98828-2.3008-1.6445-3.7812-1.6445h-22.699c-1.4805 0-2.7969 0.65625-3.7812 1.6445-2.1367 2.1367-2.1367 6.5781 0 8.7188 0.98828 0.98828 2.3008 1.4805 3.7812 1.4805zm19.574-11.844c-4.2773 0-7.8945 3.6172-7.8945 8.0586 0 4.2773 3.6172 7.8945 7.8945 7.8945 4.4414 0 8.0586-3.6172 8.0586-7.8945 0-4.4414-3.6172-8.0586-8.0586-8.0586zm0 4.2773c2.1367 0 3.7812 1.6445 3.7812 3.7812 0 1.9727-1.6445 3.7812-3.7812 3.7812-1.9727 0-3.7812-1.8086-3.7812-3.7812 0-2.1367 1.8086-3.7812 3.7812-3.7812zm-62.008-4.2773c4.4414 0 8.0586 3.6172 8.0586 8.0586 0 4.2773-3.6172 7.8945-8.0586 7.8945-4.2773 0-7.8945-3.6172-7.8945-7.8945 0-4.4414 3.6172-8.0586 7.8945-8.0586zm0 4.2773c-1.9727 0-3.6172 1.6445-3.6172 3.7812 0 1.9727 1.6445 3.7812 3.6172 3.7812 2.1367 0 3.7812-1.8086 3.7812-3.7812 0-2.1367-1.6445-3.7812-3.7812-3.7812z"/>
</svg>
