<?xml version="1.0" encoding="UTF-8"?>
<svg width="100pt" height="100pt" version="1.1" viewBox="0 0 100 100" xmlns="http://www.w3.org/2000/svg">
 <path d="m12.77 4.5078h66.016c1.2656 0 2.293 1.0273 2.293 2.2969v78.297c0 1.2656-1.0273 2.293-2.293 2.293h-66.016c-1.2656 0-2.2969-1.0273-2.2969-2.293v-78.297c0-1.2656 1.0273-2.2969 2.2969-2.2969zm41.094 62.934c0-3.0195 4.5898-3.0195 4.5898 0 0 4.2617 7.3945 4.2617 7.3945 0 0-1.8906-1.7695-3.2383-3.6953-3.2383-7.375 0-11.109-8.5156-5.7891-13.43 0.96484-0.89063 2.1602-1.5625 3.4922-1.9258v-2.3594c0-3.0195 4.5898-3.0195 4.5898 0v2.3594c3.4102 0.92969 5.9922 3.9102 5.9922 7.5273 0 3.0195-4.5898 3.0195-4.5898 0 0-4.2617-7.3945-4.2617-7.3945 0 0 1.8906 1.7695 3.2422 3.6992 3.2422 7.375 0 11.109 8.5156 5.7891 13.43-0.96484 0.89062-2.1602 1.5625-3.4922 1.9258v2.3594c0 3.0195-4.5898 3.0195-4.5898 0v-2.3594c-3.4102-0.92969-5.9922-3.9102-5.9922-7.5234zm-30.688-47.922c-3.0195 0-3.0195-4.5898 0-4.5898h27.449c3.0234 0 3.0234 4.5898 0 4.5898zm36.32 0c-3.0195 0-3.0195-4.5898 0-4.5898h8.875c3.0195 0 3.0195 4.5898 0 4.5898zm8.875 6.0508c3.0195 0 3.0195 4.5898 0 4.5898h-27.449c-3.0195 0-3.0195-4.5898 0-4.5898zm-36.32 0c3.0195 0 3.0195 4.5898 0 4.5898h-8.875c-3.0195 0-3.0195-4.5898 0-4.5898zm-8.875 15.227c-3.0195 0-3.0195-4.5898 0-4.5898h27.449c3.0234 0 3.0234 4.5898 0 4.5898zm36.32 0c-3.0195 0-3.0195-4.5898 0-4.5898h8.875c3.0195 0 3.0195 4.5898 0 4.5898zm25.434-14.805c0-3.0195 4.5898-3.0195 4.5898 0v67.203c0 1.2656-1.0273 2.293-2.2969 2.293h-56.66c-3.0195 0-3.0195-4.5898 0-4.5898h54.367v-64.91zm-8.4453-16.895h-61.426v73.707h61.426z"/>
</svg>
