<?xml version="1.0" encoding="UTF-8"?>
<svg fill="#9496C7" width="100pt" height="100pt" version="1.1" viewBox="0 0 100 100" xmlns="http://www.w3.org/2000/svg">
 <g>
  <path d="m75.801 49.488c-2.2109 0-4 1.793-4 4v25.633c0 0.31641-0.12891 0.62109-0.35156 0.84375-0.22656 0.22266-0.53125 0.34766-0.84766 0.34375h-39.68c-0.66016 0-1.1914-0.53125-1.1914-1.1875v-25.633c0-2.207-1.793-4-4-4-2.2109 0-4 1.793-4 4v25.633c0.003906 5.0703 4.1172 9.1836 9.1914 9.1875h39.68c5.0742-0.003906 9.1875-4.1133 9.1992-9.1875v-25.633c0-1.0586-0.42188-2.0781-1.1719-2.8281s-1.7695-1.1719-2.8281-1.1719z"/>
  <path d="m90.18 43.238-14.879-12.109v-0.12109-11.629c0-2.207-1.793-4-4-4-2.2109 0-4 1.793-4 4v5.2383l-14.781-12v0.003906c-1.4727-1.2031-3.5859-1.2031-5.0586 0l-37.641 30.617c-1.3125 1.0703-1.8086 2.8516-1.2422 4.4453 0.57031 1.5938 2.0781 2.6562 3.7734 2.6562 0.91797 0.003906 1.8086-0.31641 2.5195-0.89844l35.129-28.602 35.129 28.602c0.82031 0.70703 1.8867 1.0547 2.9648 0.96094s2.0742-0.62109 2.7539-1.4609c0.68359-0.83984 1-1.918 0.87109-2.9922-0.125-1.0742-0.67969-2.0508-1.5391-2.7109z"/>
  <path d="m45 64.5c2.2109 0 4-1.7891 4-4s-1.7891-4-4-4h-5c-2.2109 0-4 1.7891-4 4s1.7891 4 4 4z"/>
 </g>
</svg>
