<?xml version="1.0" encoding="UTF-8"?>
<svg fill="#333333" width="100pt" height="100pt" version="1.1" viewBox="0 0 100 100" xmlns="http://www.w3.org/2000/svg">
 <path d="m73.062 83.789c-0.26562 0-0.50781-0.011718-0.72266-0.019531-0.19531-0.007812-0.375-0.015625-0.54688-0.015625h-1.9219-1.2031c-2.4414 0-4.5312-1.7422-4.9688-4.1406-0.20312-1.1094-0.49219-2.0469-0.81641-2.6484-0.26953-0.5-0.47656-0.64844-0.55469-0.6875-0.046875-0.023438-0.050781-0.023438-0.10547-0.027344-0.015625 0-0.039062 0.003906-0.0625 0.007812h-0.007812c-0.59375 0.078126-1.1094 0.11719-1.5703 0.11719-0.74219 0-1.3086-0.089844-1.8398-0.28906-0.60547-0.21875-1.1836-0.66797-1.5078-1.1797-0.19531-0.29297-0.34375-0.62891-0.43359-0.99219-0.09375-0.375-0.10938-0.67187-0.125-0.90625l-0.003906-0.039062c-0.007813-0.10938-0.011719-0.20312-0.015625-0.28125-0.32031-0.16406-0.64844-0.32812-0.96484-0.48828l-0.19531-0.10156c-0.29297-0.14453-0.58984-0.28906-0.88672-0.43359-0.61328-0.30078-1.25-0.60937-1.9023-0.9375-1.0938-0.54687-1.8438-1.2969-2.457-1.957-0.33594-0.36719-0.51953-0.83594-0.51562-1.3359 0-0.53906 0.23438-1.0625 0.62891-1.4258 0.35938-0.33594 0.83203-0.51562 1.3242-0.51562 0.54297 0 1.0703 0.23047 1.4375 0.62891 0.51562 0.56641 0.95312 0.92969 1.3281 1.1094l0.007813 0.003906c0.64062 0.32031 1.2734 0.63281 1.8906 0.93359 0.29297 0.14062 0.58594 0.28516 0.87891 0.42969l0.26172 0.13281c0.39453 0.20312 0.80469 0.41016 1.2148 0.62109l0.015625 0.007813c0.51562 0.26172 0.97656 0.67969 1.2656 1.1406 0.24219 0.37891 0.40625 0.80078 0.49219 1.293 0.035156 0.22656 0.0625 0.45703 0.078125 0.68359h0.027344c0.28125 0 0.64844-0.03125 1.0625-0.085937 0.19141-0.023437 0.38672-0.039063 0.57812-0.039063h0.015626c0.65625 0 1.3125 0.16406 1.8984 0.46875 0.59766 0.3125 1.1328 0.76953 1.5898 1.3633 0.84766 1.1172 1.4258 2.6211 1.8203 4.7305 0.097657 0.54297 0.57422 0.9375 1.125 0.9375h1.207 1.9375c0.29688 0.003907 0.55469 0.015626 0.78125 0.023438 0.17578 0.007812 0.32813 0.015625 0.44531 0.015625h0.035156c0.089844 0 0.15625-0.003906 0.19531-0.007813 0.28906-0.24219 0.51562-0.45703 0.71094-0.67969 0.14062-0.16016 0.21875-0.26953 0.33594-0.42578 0.023437-0.03125 0.050781-0.070313 0.078125-0.10547l0.019531-0.023437c0.10547-0.14063 0.25-0.32813 0.48828-0.54688 0.31641-0.29687 0.82812-0.55859 1.2773-0.65625 0.57422-0.13281 1.043-0.13281 1.6953-0.14062h0.40234 0.003906c0.20313 0 0.46875 0.007812 0.75 0.015624 0.41797 0.007813 0.89063 0.023438 1.2969 0.023438h0.046874c0.15625 0 0.29688-0.003906 0.38672-0.007812 0.11719-0.13281 0.26172-0.32031 0.39844-0.51563 0.23047-0.32812 0.46875-0.71484 0.72656-1.1211 0.18359-0.29688 0.37109-0.60156 0.55859-0.88281 0.30078-0.45312 0.59375-0.88672 0.875-1.3086 2.25-3.3555 4.0234-6 5.1953-8.7148 1.3945-3.2305 2.0039-6.5859 2.0352-11.219-0.019532-0.042969-0.039063-0.085938-0.0625-0.13281-0.13281-0.27344-0.35156-0.69531-0.61719-1.1797-0.48828-0.88281-1.1875-2.0859-2.0742-3.5625-1.0664-1.7773-2.2031-3.625-2.9531-4.8477-0.36328-0.58594-0.64844-1.0508-0.80859-1.3203-0.44531-0.75391-0.85156-1.4297-0.89062-1.4531l-0.003906-0.003906c-0.007813-0.003907-0.023438-0.015625-0.046876-0.03125-0.085937-0.054688-0.32031-0.17188-0.63281-0.31641-0.078125-0.039062-0.16016-0.078124-0.25-0.11719-0.44141-0.20703-1.0469-0.48828-1.8438-0.88672-0.40625-0.20312-0.71094-0.34766-0.98438-0.47266-0.0625-0.03125-0.11719-0.054688-0.17188-0.082031-0.050781-0.023438-0.097656-0.046875-0.14844-0.070313-0.25391-0.12109-0.49609-0.23438-0.82812-0.48828-0.27734-0.21094-0.55859-0.53906-0.71094-0.84766-0.19922-0.38672-0.26172-0.67578-0.3125-0.91016-0.003906-0.03125-0.011719-0.0625-0.019531-0.089843-0.015625-0.082031-0.03125-0.16406-0.046875-0.24219-0.046875-0.25-0.10547-0.53906-0.20312-0.9375-0.27734-1.1172-0.45312-2.1797-0.60938-3.1211-0.035156-0.21094-0.070313-0.41406-0.10156-0.61719-0.19922-1.2031-0.39453-2.0195-0.60547-2.4922-0.20312-0.48047-0.21094-1.0078-0.015624-1.4922 0.19531-0.48438 0.56641-0.86719 1.0469-1.0703 0.24219-0.10547 0.5-0.15625 0.76563-0.15625 0.78125 0 1.4883 0.46484 1.793 1.1875 0.48047 1.125 0.6875 2.3203 0.86719 3.375 0.03125 0.19531 0.0625 0.39063 0.097656 0.58203 0.15625 0.94531 0.32031 1.9258 0.55469 2.8672 0.10937 0.43359 0.17969 0.79297 0.22656 1.0312l0.082031 0.039063c0.26562 0.125 0.625 0.29297 1.0781 0.51953 0.71875 0.35938 1.25 0.60938 1.6797 0.80469 0.49609 0.23438 0.85547 0.39844 1.2422 0.61719 0.27734 0.16016 0.52344 0.33984 0.73438 0.53125 0.35156 0.31641 0.59375 0.67188 0.75 0.90625 0.16406 0.25 0.31641 0.50781 0.49219 0.8125 0.10547 0.17969 0.22656 0.38281 0.36328 0.60938 0.14844 0.24609 0.42578 0.70312 0.78125 1.2734 0.41016 0.66797 0.92188 1.5 1.4766 2.4062 1.3555 2.2227 2.3828 3.9414 3.1328 5.2578 0.61719 1.0859 1.0938 1.9453 1.3867 2.6172 0.078125 0.17969 0.14844 0.35547 0.21875 0.60938l0.007812 0.03125c0.03125 0.13281 0.070313 0.28516 0.070313 0.56641 0.003906 5.2812-0.71875 9.3125-2.3594 13.066-1.3398 3.0703-3.1914 5.832-5.3359 9.0234-0.34766 0.51953-0.70703 1.0547-1.0742 1.6094-0.125 0.1875-0.27344 0.42969-0.44922 0.71094-0.14844 0.24219-0.32031 0.51172-0.49219 0.78125-0.33594 0.51562-0.75781 1.1602-1.3359 1.7344l-0.023438 0.019531c-0.36719 0.33594-0.81641 0.75781-1.6836 0.9375h-0.003907l-0.015625 0.003906h-0.003906c-0.24609 0.042969-0.43359 0.054688-0.67188 0.066407-0.20312 0.007812-0.42188 0.015625-0.6875 0.015625-0.5 0-1.0469-0.015625-1.4844-0.027344-0.25391-0.007812-0.46875-0.011719-0.60938-0.015625h-0.011719-0.34766-0.039062c-0.17188 0-0.33594 0.003906-0.46875 0.007813-0.097657 0.13281-0.19141 0.25-0.28906 0.36719-0.38281 0.46484-0.86719 0.9375-1.4375 1.3984l-0.003906 0.007813c-0.38672 0.31641-0.88281 0.55469-1.3906 0.67188-0.45703 0.11719-0.85547 0.13281-1.1836 0.13281zm-51.844-5.3047c-0.16016 0-0.3125-0.003906-0.46094-0.003906h-0.035156c-1.1406 0-2.0391 0-2.8281-0.054688-0.72656-0.066406-1.4844-0.13281-2.3164-0.60547-0.52344-0.29687-1.0156-0.84766-1.25-1.4023-0.32812-0.76562-0.33594-1.4219-0.34375-1.9961 0-0.54297 0.039063-1.1172 0.078125-1.7891 0.054688-0.91406 0.11719-1.9531 0.125-3.2734-0.027344-0.070313-0.0625-0.15234-0.09375-0.23828-0.13672-0.32812-0.35156-0.80469-0.61719-1.3789-0.48047-1.0234-1.1641-2.4219-2.0312-4.1562-0.99219-1.9883-2.0312-4.0195-2.7891-5.5039-0.40625-0.79297-0.72656-1.4219-0.90234-1.7734-1.5156-3.0469-2.1953-5.3164-2.207-7.3516-0.007813-1.3672 0.35156-2.6406 1.0469-3.6836 0.60938-0.92969 1.4766-1.7188 2.6406-2.4141 1.7031-1 3.7227-1.6719 5.8594-2.3828 0.42969-0.14453 0.875-0.29297 1.3281-0.44531 0.83984-0.29688 1.6406-0.53516 2.4141-0.76562 0.75781-0.22656 1.4766-0.44141 2.1328-0.67969 0.48828-0.17188 0.875-0.30469 1.1641-0.39844 0.25781-0.085938 0.42578-0.14062 0.5-0.17188 0.011719-0.015625 0.03125-0.039063 0.054688-0.078125 0.11719-0.16016 0.32812-0.50781 0.62891-1.0156v-0.007813c1.543-2.6016 2.9922-5.0078 4.4688-7.4531 0.17188-0.28125 0.32812-0.54688 0.48047-0.79688 0.19141-0.32422 0.39062-0.65625 0.62109-1.0312 0.8125-1.3438 1.4844-2.3203 2.125-3.082 0.74609-0.88281 1.375-1.418 2.1094-1.7852 0.52734-0.26562 1.1289-0.41016 1.6953-0.41016h0.023438c0.84766 0.003906 1.5312 0.27344 2.0859 0.53906 0.32031 0.15625 0.61328 0.32031 0.89453 0.47266 0.20313 0.10937 0.39063 0.21484 0.58594 0.31641 0.69531 0.35156 1.4688 0.70703 2.6055 0.83594 0.03125-0.074219 0.054687-0.14844 0.082031-0.22656 0.15625-0.4375 0.30469-0.94531 0.45312-1.4297 0.10938-0.36719 0.21094-0.71484 0.3125-1.0195 0.066406-0.20312 0.15234-0.49219 0.25-0.82812 0.0625-0.21484 0.12891-0.4375 0.19531-0.66797 0.1875-0.60547 0.39062-1.25 0.67187-1.8594 0.015626-0.03125 0.03125-0.054687 0.042969-0.085937 0.1875-0.37891 0.38281-0.76953 0.87109-1.2266 0.25-0.22266 0.78906-0.60156 1.5547-0.60938h0.039063c2.0469 0 3.8906-0.10938 5.5156-0.20703 1.3125-0.078125 2.4531-0.14453 3.4922-0.14844 0.81641 0 1.4336 0.046874 2 0.14062 0.53125 0.09375 1.2266 0.25391 1.9141 0.70313 0.4375 0.28906 0.82031 0.6875 1.0781 1.1289 0.33203 0.5625 0.50781 1.2461 0.50391 1.9805-0.019531 1.3789-0.48828 2.7109-1.2422 4.4141-0.066406 0.14844-0.10156 0.30469-0.10156 0.46484 0 0.44531 0.25 0.83984 0.64062 1.0312l5.793 2.8438c0.16406 0.078125 0.33594 0.11719 0.51562 0.11719 0.375 0 0.71094-0.17188 0.90625-0.46094 0.82031-1.168 1.1875-2.8359 1.5898-4.8984 0.18359-0.91016 0.98828-1.5742 1.9141-1.5742 0.125 0 0.25781 0.015626 0.38281 0.039063 0.90625 0.17969 1.5664 0.98047 1.5742 1.9023 0 0.13281-0.011719 0.26562-0.039063 0.39453-0.03125 0.14844-0.058594 0.29688-0.089844 0.44531-0.39453 1.957-0.80469 3.9766-2.1094 5.8984-0.92578 1.3516-2.4688 2.1562-4.1172 2.1562h-0.007813c-0.77344 0-1.5469-0.17969-2.2344-0.51562l-5.793-2.8438c-0.86328-0.42578-1.582-1.0781-2.0859-1.8984-0.48828-0.79688-0.74609-1.7109-0.74219-2.6406 0-0.70703 0.15234-1.4219 0.44531-2.0703 0.58594-1.2734 0.87109-2.2812 0.89844-2.7188-0.28906-0.070312-0.86328-0.14453-1.5898-0.13281h-0.042969c-0.82812 0-1.8633 0.0625-3.0625 0.13281-1.4688 0.085938-3.1328 0.1875-5.0078 0.21484-0.027343 0.070312-0.054687 0.13672-0.074218 0.20312-0.14844 0.41406-0.28906 0.90234-0.42969 1.375-0.10547 0.36328-0.20703 0.70312-0.30859 1.0156v0.007812c-0.0625 0.19531-0.15234 0.48828-0.25391 0.82812-0.054687 0.17969-0.10938 0.375-0.17188 0.57031-0.16406 0.54688-0.36719 1.1875-0.61719 1.7969-0.17969 0.41406-0.35156 0.78906-0.67188 1.2109-0.21484 0.26562-0.46094 0.53906-0.9375 0.77734-0.29688 0.14844-0.64453 0.22656-0.97656 0.22656h-0.003906-0.085938c-2.8516 0-4.8047-1.0859-5.9766-1.7305-0.16797-0.09375-0.3125-0.17188-0.44531-0.24219-0.29688-0.15625-0.49609-0.22656-0.56641-0.24609-0.015625 0.007813-0.17578 0.085938-0.44531 0.35156-0.53906 0.52344-1.3125 1.6016-2.1758 3.0312l-0.003907 0.007813c-0.21875 0.35156-0.40234 0.66406-0.60156 1-0.15625 0.25781-0.3125 0.52734-0.49219 0.82812-1.543 2.5547-2.9414 4.8789-4.4531 7.4336l-0.003906 0.007813c-0.050781 0.085937-0.10156 0.16406-0.14453 0.24219-0.26953 0.45312-0.48438 0.80469-0.74609 1.1641-0.32031 0.44922-0.81641 0.88281-1.2656 1.1133-0.33203 0.17188-0.625 0.27734-0.88281 0.36719-0.125 0.039062-0.24609 0.082031-0.375 0.125-0.27344 0.089843-0.57813 0.19141-0.96094 0.32812-0.82812 0.29688-1.6484 0.54297-2.4414 0.78125-0.75 0.22266-1.4609 0.4375-2.1602 0.6875l-0.023438 0.007813c-0.34375 0.11719-0.6875 0.23047-1.0156 0.33984-1.6562 0.55469-3.0938 1.0312-4.2227 1.5352-1.2891 0.57031-2.1797 1.1953-2.5703 1.8125-0.23828 0.375-0.39844 0.78125-0.40625 1.5391-0.015625 1.2891 0.625 3.2734 1.793 5.6016 0.16797 0.33594 0.48047 0.94531 0.875 1.7227 1.1484 2.2578 3.0781 6.0312 4.3906 8.75 0.48828 1.0156 1.0312 2.1562 1.3203 2.9141 0.066407 0.17969 0.13281 0.35156 0.19141 0.58594 0.003906 0.019532 0.007812 0.039063 0.011719 0.054688 0.023437 0.11719 0.054687 0.25 0.0625 0.51562 0 1.6328-0.078126 2.9492-0.14063 3.9141-0.039062 0.59766-0.0625 1.0703-0.0625 1.4062v0.078125c0.14844 0.019532 0.3125 0.03125 0.48828 0.039063 0.51562 0.03125 1.2148 0.03125 2.25 0.03125h0.125c0.16797-0.14062 0.40234-0.36328 0.64062-0.60547 0.39062-0.39453 0.82812-0.875 1.2969-1.3828 0.28125-0.30469 0.57422-0.625 0.85547-0.92578 0.44531-0.46875 0.96094-1.0078 1.4766-1.4453 0.27344-0.22266 0.55469-0.45312 1.0039-0.67188 0.21094-0.09375 0.53125-0.23438 1.0391-0.24219 1.668 0 3.0195 0.082031 4.0078 0.14062 0.61719 0.035156 1.1016 0.0625 1.4492 0.0625h0.13281c0.015624-0.11719 0.027343-0.25 0.039062-0.38281 0.070312-1.0664 1.0078-1.8906 2.0781-1.8164 1.0742 0.070312 1.8906 1.0039 1.8164 2.0781-0.046875 0.625-0.10938 1.1523-0.28906 1.7031-0.10156 0.3125-0.41016 1.1016-1.1484 1.6367-0.34375 0.25-0.74219 0.42969-1.1875 0.53906-0.48828 0.11719-0.92578 0.14062-1.4375 0.14844-0.55078-0.003906-1.1406-0.035156-1.8281-0.078125-0.89062-0.050781-1.8984-0.10938-3.168-0.125-0.17188 0.14453-0.40234 0.36719-0.64063 0.60938-0.38672 0.39062-0.82812 0.87109-1.293 1.375-0.28516 0.30859-0.57812 0.62891-0.86719 0.93359-0.54688 0.58203-1.0078 1.0508-1.4766 1.4453-0.27344 0.22266-0.55469 0.45313-1.0078 0.67188-0.22266 0.09375-0.54297 0.23437-1.0508 0.24219zm21.27-10.547c-1.0781 0-1.9531-0.875-1.9531-1.9531s0.875-1.9531 1.9531-1.9531 1.9531 0.875 1.9531 1.9531c0 1.0742-0.87891 1.9531-1.9531 1.9531zm31.656-45.828c-1.0781 0-1.9531-0.875-1.9531-1.9531s0.875-1.9531 1.9531-1.9531 1.9531 0.875 1.9531 1.9531-0.875 1.9531-1.9531 1.9531z"/>
</svg>
