<?xml version="1.0" encoding="UTF-8"?>
<svg fill="#333333" width="100pt" height="100pt" version="1.1" viewBox="0 0 100 100" xmlns="http://www.w3.org/2000/svg">
 <path d="m87.629 50c0.007813-9.9922-3.9727-19.574-11.059-26.621l-0.058593-0.058594c-7.0391-7.0078-16.57-10.941-26.5-10.941-9.9336 0-19.461 3.9336-26.5 10.941h-0.050781c-7.1133 7.0547-11.105 16.664-11.09 26.68-0.003906 9.9062 3.9102 19.41 10.891 26.441 0.042969 0.058594 0.089843 0.11328 0.13672 0.16797l0.17187 0.14062c7.0312 6.9688 16.531 10.879 26.43 10.871 9.9023 0.003906 19.402-3.9062 26.43-10.883l0.17187-0.14062v0.003906c0.046876-0.054687 0.09375-0.11328 0.13672-0.17187 6.9805-7.0273 10.895-16.527 10.891-26.43zm-12.777 2.1289h8.4492c-0.48438 7.3633-3.4062 14.352-8.3008 19.871l-6-6c-0.84766-0.70703-2.0898-0.64844-2.8711 0.12891-0.77734 0.78125-0.83594 2.0234-0.12891 2.8711l6 6c-5.5312 4.8867-12.535 7.793-19.898 8.2617v-8.4102c-0.078124-1.1172-1.0078-1.9844-2.125-1.9844-1.1211 0-2.0508 0.86719-2.125 1.9844v8.4492c-7.3555-0.48828-14.34-3.4102-19.852-8.3008l6-6c0.70703-0.84766 0.64844-2.0898-0.12891-2.8711-0.78125-0.77734-2.0234-0.83594-2.8711-0.12891l-6 6c-4.8867-5.5312-7.793-12.535-8.2617-19.898h8.4531c0.58594 0.039063 1.168-0.16797 1.5977-0.57031 0.43359-0.40234 0.67578-0.96484 0.67578-1.5547 0-0.59375-0.24219-1.1562-0.67578-1.5586-0.42969-0.40234-1.0117-0.60938-1.5977-0.56641h-8.4922c0.48828-7.3555 3.4102-14.34 8.3008-19.852l6 6c0.84766 0.70703 2.0898 0.64844 2.8711-0.12891 0.77734-0.78125 0.83594-2.0234 0.12891-2.8711l-6-6c5.5312-4.8867 12.535-7.793 19.898-8.2617v33.262c0.007812 0.85938 0.52344 1.6289 1.3164 1.957 0.79297 0.32812 1.707 0.14844 2.3164-0.45703l10.789-10.809 12.68-12.691c4.8984 5.5195 7.8164 12.516 8.3008 19.879h-8.4492c-0.58984-0.039062-1.168 0.16797-1.6016 0.57031-0.42969 0.40234-0.67578 0.96484-0.67578 1.5547s0.24609 1.1562 0.67578 1.5586c0.43359 0.40234 1.0117 0.60938 1.6016 0.56641zm-22.723-18.68 5.7109 5.7109-5.7109 5.7109zm8.7109 2.6992-8.3398-8.3281c-0.11328-0.11328-0.24219-0.21484-0.37891-0.30078v-7.0703l12.207 12.199zm6.5-6.5117-12.691-12.637c6.4414 0.91016 12.477 3.6953 17.352 8z"/>
</svg>
