<?xml version="1.0" encoding="UTF-8"?>
<svg fill="#333333" width="100pt" height="100pt" version="1.1" viewBox="0 0 100 100" xmlns="http://www.w3.org/2000/svg">
 <g>
  <path d="m13.898 18.301 5-5v23.102c0 1.1016 0.89844 2.1016 2 2.1016 1.1016 0 2-0.89844 2-2.1016v-23.102l5 5c0.39844 0.39844 0.89844 0.60156 1.3984 0.60156s1-0.19922 1.3984-0.60156c0.80078-0.80078 0.80078-2.1016 0-2.8984l-8.5-8.5c-0.80078-0.80078-2.1016-0.80078-2.8984 0l-8.2969 8.4961c-0.80078 0.80078-0.80078 2.1016 0 2.8984 0.80078 0.80469 2.1016 0.80469 2.8984 0.003906z"/>
  <path d="m75.898 50.602c-1.1992 0-2.3984 0.10156-3.5 0.30078v-16.504c0-5.6992-9.3008-8.6016-18.5-8.6016-9.1992 0-18.5 3-18.5 8.6016v12.602c-3.6016-2-9-3-14.398-3-9.1992 0-18.5 3-18.5 8.6016v18.199c0 5.6992 9.3008 8.6016 18.5 8.6016 6.6016 0 13.199-1.5 16.398-4.5 3.1992 2.8984 9.8984 4.5 16.398 4.5 0.60156 0 1.1016-0.10156 1.6992-0.10156 3 8.3984 11 14.398 20.301 14.398 11.898 0 21.602-9.6992 21.602-21.602 0-11.898-9.5977-21.496-21.5-21.496zm-40.5 20.199c0 1.6016-5.5 4.5-14.398 4.5s-14.398-2.9023-14.398-4.5v-3.5c3.6016 2 9 3 14.398 3s10.801-1 14.398-3zm0-9.1016c0 1.6016-5.5 4.5-14.398 4.5s-14.398-2.8984-14.398-4.5v-3.5c3.6016 2 9 3 14.398 3s10.801-1 14.398-3zm-14.398-4.5977c-8.8984 0-14.398-2.8984-14.398-4.5 0-1.6016 5.5-4.5 14.398-4.5s14.398 2.8984 14.398 4.5c0 1.5977-5.5 4.5-14.398 4.5zm32.898-27.301c8.8984 0 14.398 2.8984 14.398 4.5 0 1.6016-5.5 4.5-14.398 4.5-8.8984 0-14.398-2.8984-14.398-4.5 0-1.6016 5.3984-4.5 14.398-4.5zm-14.398 10.199c3.6016 2 9 3 14.398 3 5.3984 0 10.801-1 14.398-3v3.5c0 1.6016-5.5 4.5-14.398 4.5-8.8984 0-14.398-2.8984-14.398-4.5zm0 9.1016c3.6016 2 9 3 14.398 3 5.3984 0 10.801-1 14.398-3l0.003906 2.8984c-2.6016 1-5 2.5-7.1016 4.3984-2.1016 0.5-4.5 0.80078-7.3008 0.80078-8.8984 0-14.398-2.8984-14.398-4.5zm0 9.0977c3.6016 2 9 3 14.398 3 1.1992 0 2.3984-0.10156 3.5-0.19922-1 1.6016-1.6992 3.3008-2.1992 5.1016-0.39844 0-0.80078 0.10156-1.3008 0.10156-8.8984 0-14.398-2.8984-14.398-4.5zm14.398 17.199c-8.8984 0-14.398-2.8984-14.398-4.5v-3.5c3.6016 2 9 3 14.398 3h0.5c-0.10156 0.60156-0.10156 1.1992-0.10156 1.8008 0 1.1016 0.10156 2.1016 0.30078 3.1992-0.29688-0.097657-0.49609 0-0.69922 0zm22 14.203c-9.6016 0-17.5-7.8008-17.5-17.5 0-9.6992 7.8008-17.5 17.5-17.5 9.6016 0 17.5 7.8008 17.5 17.5 0 9.6992-7.7969 17.5-17.5 17.5z"/>
  <path d="m74.5 66.301h2.8008c1.1016 0 1.8984 0.89844 1.8984 1.8984h4.1016c0-3.1016-2.3984-5.6016-5.3984-5.8984v-3.1992h-4.1016v3.1992c-3 0.30078-5.3984 2.8984-5.3984 5.8984 0 3.3008 2.6992 6 6 6h2.8008c1.1016 0 1.8984 0.89844 1.8984 1.8984 0 1.0039-0.70312 1.9023-1.8008 1.9023h-2.8008c-1.1016 0-1.8984-0.89844-1.8984-1.8984h-4.1016c0 3.1016 2.3984 5.6016 5.3984 5.8984v3.1016h4.1016v-3.1016c3-0.30078 5.3984-2.8984 5.3984-5.8984 0-3.3008-2.6992-6-6-6h-2.8008c-1.1016 0-1.8984-0.89844-1.8984-1.8984 0-1.0039 0.80078-1.9023 1.8008-1.9023z"/>
 </g>
</svg>
