<?xml version="1.0" encoding="UTF-8"?>
<svg fill="#333333" width="100pt" height="100pt" version="1.1" viewBox="0 0 100 100" xmlns="http://www.w3.org/2000/svg">
 <g>
  <path d="m43.82 77.77h-5.3789c-1.5469 0-2.8008-1.2539-2.8008-2.8008v-3.25c0-0.55078 0.44531-1 1-1 0.55078 0 1 0.44922 1 1v3.2812c0 0.44141 0.35938 0.80078 0.80078 0.80078h5.3789c0.21094 0 0.41406-0.085937 0.56641-0.23438 0.14844-0.15234 0.23438-0.35547 0.23438-0.56641v-2.7188c0-0.55469 0.44531-1 1-1 0.55078 0 1 0.44531 1 1v2.7188c-0.015625 1.5352-1.2656 2.7695-2.8008 2.7695z"/>
  <path d="m61.77 77.77h-5.3906c-1.5312 0-2.7773-1.2383-2.7891-2.7695v-2.7188c0-0.55469 0.44922-1 1-1 0.55078 0 1 0.44531 1 1v2.7188c0 0.4375 0.35156 0.79297 0.78906 0.80078h5.3906c0.21094 0 0.41406-0.085937 0.5625-0.23438 0.14844-0.15234 0.23047-0.35547 0.22656-0.56641v-2.7188c0-0.55469 0.44922-1 1-1 0.55469 0 1 0.44531 1 1v2.7188c-0.007813 1.5312-1.2539 2.7695-2.7891 2.7695z"/>
  <path d="m57 73.281h-13.82c-5.5703 0-10.91-2.2148-14.848-6.1523-3.9414-3.9375-6.1523-9.2812-6.1523-14.848v-0.38281c0-5.5664 2.2109-10.91 6.1523-14.848 3.9375-3.9375 9.2773-6.1523 14.848-6.1523h4.5898c0.55469 0 1 0.44922 1 1 0 0.55469-0.44531 1-1 1h-4.5898c-5.0391 0-9.8711 2.0039-13.434 5.5664s-5.5664 8.3945-5.5664 13.434v0.38281c0 5.0391 2.0039 9.8711 5.5664 13.434s8.3945 5.5664 13.434 5.5664h13.82c5.0391 0 9.8711-2.0039 13.434-5.5664 3.5664-3.5625 5.5664-8.3945 5.5664-13.434v-0.38281c0-5.0391-2-9.8711-5.5664-13.434-3.5625-3.5625-8.3945-5.5664-13.434-5.5664-0.55078 0-1-0.44531-1-1 0-0.55078 0.44922-1 1-1 5.5703 0 10.91 2.2148 14.848 6.1523 3.9414 3.9375 6.1523 9.2812 6.1523 14.848v0.38281c0 5.5664-2.2109 10.91-6.1523 14.848-3.9375 3.9375-9.2773 6.1523-14.848 6.1523z"/>
  <path d="m23.73 59.82c-4.2695 0-7.7305-3.4609-7.7305-7.7305 0-4.2695 3.4609-7.7305 7.7305-7.7305 0.55078 0 1 0.44922 1 1 0 0.55469-0.44922 1-1 1-3.1641 0-5.7305 2.5664-5.7305 5.7305 0 3.1641 2.5664 5.7305 5.7305 5.7305 0.55078 0 1 0.44922 1 1 0 0.55078-0.44922 1-1 1z"/>
  <path d="m60.871 65.211c-0.55469 0-1-0.44922-1-1 0-0.55469 0.44531-1 1-1 0.35156 0 8-0.14844 8-8 0-0.55469 0.44531-1 1-1 0.55078 0 1 0.44531 1 1-0.019532 9.8789-9.8711 10-10 10z"/>
  <path d="m77 59.82c-0.55078 0-1-0.44922-1-1 0-0.55078 0.44922-1 1-1 0.35938 0 8-0.14062 8-8 0-0.55078 0.44922-1 1-1s1 0.44922 1 1c0 9.8906-9.8789 10-10 10z"/>
  <path d="m59.078 37.379h-13.457c-0.55469 0-1-0.44531-1-1 0-0.55078 0.44531-1 1-1h13.457c0.55469 0 1 0.44922 1 1 0 0.55469-0.44531 1-1 1z"/>
  <path d="m34.398 50.852c-1.3125 0.003907-2.5039-0.78516-3.0078-2-0.50781-1.2148-0.23047-2.6133 0.69922-3.5469 0.92578-0.92969 2.3242-1.2109 3.543-0.70703 1.2148 0.5 2.0078 1.6875 2.0078 3.0039-0.007813 1.7891-1.4531 3.2383-3.2422 3.25zm0-4.4883v-0.003906c-0.50391-0.003906-0.96484 0.30078-1.1602 0.76953-0.19531 0.46484-0.089843 1.0078 0.26953 1.3633 0.35547 0.35937 0.89844 0.46484 1.3633 0.26953 0.46875-0.19531 0.77344-0.65625 0.76953-1.1602-0.007813-0.68359-0.55859-1.2344-1.2422-1.2422z"/>
  <path d="m27.672 40c-0.55469 0-1-0.44922-1-1v-16.078c0.003906-0.32031 0.16406-0.61719 0.42969-0.80078 0.26172-0.17969 0.59766-0.22656 0.89844-0.12109 13.449 4.4609 14.129 9 14.129 9.8984 0 0.55469-0.44531 1-1 1-0.55078 0-1-0.44531-1-1 0-2.3906-6.3203-5.6797-11.461-7.5703l0.003906 14.672c0 0.26562-0.10547 0.51953-0.29297 0.70703s-0.44531 0.29297-0.70703 0.29297z"/>
  <path d="m52.352 34.691c-3.1328 0-5.9531-1.8906-7.1484-4.7812-1.1914-2.8945-0.52344-6.2227 1.6953-8.4297s5.5508-2.8594 8.4375-1.6523c2.8867 1.2109 4.7617 4.043 4.7422 7.1719-0.027344 4.25-3.4766 7.6836-7.7266 7.6914zm0-13.461c-2.3164 0-4.4023 1.3906-5.293 3.5273-0.88672 2.1367-0.40625 4.5977 1.2266 6.2383 1.6289 1.6445 4.0859 2.1445 6.2305 1.2695 2.1406-0.875 3.5469-2.9531 3.5625-5.2656 0.011719-1.5273-0.58984-2.9922-1.6641-4.0742-1.0781-1.082-2.5391-1.6914-4.0625-1.6953z"/>
 </g>
</svg>
