<?xml version="1.0" encoding="UTF-8"?>
<svg fill="#333333" width="100pt" height="100pt" version="1.1" viewBox="0 0 100 100" xmlns="http://www.w3.org/2000/svg">
 <g>
  <path d="m82.668 78.43h-65.336c-4.9609 0-9-4.0352-9-9v-34.602c0-4.9648 4.0391-9 9-9h65.332c4.9609 0 9 4.0352 9 9v34.602c0.003907 4.9609-4.0352 9-8.9961 9zm-65.336-50.602c-3.8594 0-7 3.1406-7 7v34.602c0 3.8594 3.1406 7 7 7h65.332c3.8594 0 7-3.1406 7-7v-34.602c0-3.8594-3.1406-7-7-7z"/>
  <path d="m81 57.758h-16c-0.55078 0-1-0.44531-1-1v-20.664c0-0.55469 0.44922-1 1-1h16c0.55078 0 1 0.44531 1 1v20.664c0 0.55469-0.44922 1-1 1zm-15-2h14v-18.664h-14z"/>
  <path d="m44.668 63.594h-25.5c-0.55078 0-1-0.44531-1-1s0.44922-1 1-1h25.5c0.55078 0 1 0.44531 1 1 0 0.55078-0.44922 1-1 1z"/>
  <path d="m63 70.258h-43.832c-0.55078 0-1-0.44531-1-1 0-0.55469 0.44922-1 1-1h43.832c0.55078 0 1 0.44531 1 1 0 0.55469-0.44922 1-1 1z"/>
 </g>
</svg>
