<?xml version="1.0" encoding="utf-8"?>
<svg version="1.1" xmlns:xlink="http://www.w3.org/1999/xlink" width="16px" height="16px" xmlns="http://www.w3.org/2000/svg">
  <g transform="matrix(1 0 0 1 -119 -12 )">
    <path d="M 15.152287999999999 9.512449760000003  L 15.152239999999999 3.272239999999999  C 15.152239999999999 1.4966239999999997  13.712240000000001 0.05671999999999944  11.936720000000001 0.05671999999999944  L 4.064480000000001 0.05578255999999904  C 2.288864000000001 0.05578255999999904  0.8489600000000008 1.4957825599999994  0.8489600000000008 3.2713025599999987  L 0.8489600000000008 9.53578256  C 0.8489600000000008 11.120166559999998  2.0011520000000003 12.440262559999997  3.513440000000001 12.703542559999999  L 3.513440000000001 15.41578256  C 3.513440000000001 15.60796976  3.633440000000001 15.800166560000001  3.801248 15.89578256  C 3.873435200000001 15.94359536  3.9690607999999994 15.94359536  4.0412479999999995 15.94359536  C 4.1612480000000005 15.94359536  4.2568736000000005 15.919220959999997  4.353440000000001 15.847969760000002  L 5.961247999999999 14.672353760000004  C 7.71344 13.400161760000003  9.776767999999999 12.72796976  11.936767999999999 12.72796976  C 13.712383999999997 12.72796976  15.152287999999999 11.287969760000001  15.152287999999999 9.512449760000003  Z M 14.094654560000006 3.2722399999999947  L 14.095687999999999 9.53576  C 14.095687999999999 10.711376  13.135688000000002 11.671375999999999  11.960072000000002 11.671375999999999  C 9.584456000000001 11.671375999999999  7.304552000000003 12.415759999999999  5.360072000000002 13.806991999999997  L 4.592264000000002 14.359183999999996  L 4.592264000000002 12.199183999999995  C 4.592264000000002 11.911375999999995  4.3522640000000035 11.671375999999995  4.064456000000003 11.671375999999995  C 2.8888400000000036 11.671375999999995  1.9288400000000028 10.711375999999994  1.9288400000000028 9.535759999999994  L 1.9279025600000024 3.2722399999999947  C 1.9279025600000024 2.096623999999996  2.8879025600000023 1.136623999999995  4.063518560000004 1.136623999999995  L 11.959038560000005 1.136623999999995  C 13.134654560000005 1.136623999999995  14.094654560000006 2.096623999999995  14.094654560000006 3.2722399999999947  Z " fill-rule="nonzero" fill="#ffffff" stroke="none" transform="matrix(1 0 0 1 119 12 )" />
  </g>
</svg>