<?xml version="1.0" encoding="UTF-8"?>
<svg width="100pt" height="100pt" version="1.1" viewBox="0 0 100 100" xmlns="http://www.w3.org/2000/svg">
 <path d="m33.93 25c1.3281 0 2.5156 0.84375 2.9531 2.1016l15.176 43.75c0.56641 1.6289-0.29688 3.4102-1.9258 3.9766-1.6328 0.56641-3.4141-0.29688-3.9766-1.9297l-3.0664-8.8359h-18.32l-3.0664 8.8359c-0.56641 1.6328-2.3477 2.4961-3.9766 1.9297-1.6328-0.56641-2.4961-2.3477-1.9297-3.9766l3.7969-10.938 11.383-32.812c0.4375-1.2578 1.6211-2.1016 2.9531-2.1016zm-6.9922 32.812h13.984l-6.9922-20.152zm44.938-20.312c1.3281 0 2.5117 0.83984 2.9492 2.0938l10.938 31.25c0.57031 1.6289-0.28906 3.4102-1.918 3.9805-1.6289 0.57031-3.4102-0.28906-3.9805-1.918l-2.0039-5.7188h-11.969l-2.0039 5.7188c-0.57031 1.6289-2.3516 2.4883-3.9805 1.918-1.6289-0.57031-2.4883-2.3516-1.918-3.9805l10.938-31.25c0.4375-1.2539 1.6211-2.0938 2.9492-2.0938zm-3.7969 23.438h7.5938l-3.7969-10.852z" fill-rule="evenodd"/>
</svg>
