<?xml version="1.0" encoding="UTF-8"?>
<svg width="100pt" height="100pt" version="1.1" viewBox="0 0 100 100" xmlns="http://www.w3.org/2000/svg">
 <g>
  <path d="m64.527 2.4961c-0.64844-0.60156-1.5-0.93359-2.3867-0.93359h-38.43c-6.2461 0-11.328 5.082-11.328 11.328v74.219c0 6.2461 5.082 11.328 11.328 11.328h52.574c6.2461 0 11.328-5.082 11.328-11.328l0.003907-61.719c0-0.98047-0.41016-1.9141-1.1289-2.582zm0.49609 10.035 11.195 10.355h-8.8516c-1.293 0-2.3438-1.0508-2.3438-2.3438zm11.266 78.875h-52.578c-2.3711 0-4.2969-1.9258-4.2969-4.2969v-74.219c0-2.3711 1.9258-4.2969 4.2969-4.2969h34.281v11.949c0 5.168 4.207 9.375 9.375 9.375h13.219v57.191c0 2.3711-1.9297 4.2969-4.2969 4.2969z"/>
  <path d="m70.164 57.781h-41.594c-1.9414 0-3.5156 1.5742-3.5156 3.5156s1.5742 3.5156 3.5156 3.5156h41.598c1.9414 0 3.5156-1.5742 3.5156-3.5156-0.003906-1.9414-1.5781-3.5156-3.5195-3.5156z"/>
  <path d="m28.57 47.656h22.594c1.9414 0 3.5156-1.5742 3.5156-3.5156s-1.5742-3.5156-3.5156-3.5156h-22.594c-1.9414 0-3.5156 1.5742-3.5156 3.5156s1.5703 3.5156 3.5156 3.5156z"/>
  <path d="m70.164 74.938h-41.594c-1.9414 0-3.5156 1.5742-3.5156 3.5156s1.5742 3.5156 3.5156 3.5156h41.598c1.9414 0 3.5156-1.5742 3.5156-3.5156-0.003906-1.9414-1.5781-3.5156-3.5195-3.5156z"/>
 </g>
</svg>
