<?xml version="1.0" encoding="UTF-8"?>
<svg width="100pt" height="100pt" version="1.1" viewBox="0 0 100 100" xmlns="http://www.w3.org/2000/svg">
 <path d="m66 9c-3.8008 0-6.8984 3-7 6.8008l-36.5 19.199h-11.5c-3.3008 0-6 2.6992-6 6v18c0 3.3008 2.6992 6 6 6h11.5l36.5 19.199c0.10156 3.8008 3.1992 6.8008 7 6.8008 3.8984 0 7-3.1016 7-7v-68c0-3.8984-3.1016-7-7-7zm-57 50v-18c0-1.1016 0.89844-2 2-2h10v22h-10c-1.1016 0-2-0.89844-2-2zm16-20.801 34-17.898v59.398l-34-17.898zm44 45.801c0 1.6992-1.3008 3-3 3s-3-1.3008-3-3v-68c0-1.6992 1.3008-3 3-3s3 1.3008 3 3zm26-34c0 5.3008-2.1016 10.398-5.8984 14.102-0.39844 0.39844-0.89844 0.60156-1.3984 0.60156s-1-0.19922-1.3984-0.60156c-0.80078-0.80078-0.80078-2 0-2.8008 3-3 4.6992-7 4.6992-11.301s-1.6992-8.3008-4.6992-11.301c-0.80078-0.80078-0.80078-2 0-2.8008 0.80078-0.80078 2-0.80078 2.8008 0 3.793 3.7031 5.8945 8.8008 5.8945 14.102zm-12.898-7.1016c3.8984 3.8984 3.8984 10.199 0 14.102-0.39844 0.39844-0.89844 0.60156-1.3984 0.60156s-1-0.19922-1.3984-0.60156c-0.80078-0.80078-0.80078-2 0-2.8008 2.3008-2.3008 2.3008-6.1016 0-8.5-0.80078-0.80078-0.80078-2 0-2.8008 0.69531-0.79688 1.9961-0.79688 2.7969 0z"/>
</svg>
